<ttFont>
          <CharString index="0">
            2 13 -7 6 -12 0 rrcurveto
            -77 hlineto
            -14 0 -6 -6 2 -13 rrcurveto
            27 -187 rlineto
            1 -14 7 -9 13 0 rrcurveto
            15 hlineto
            14 0 6 8 3 13 rrcurveto
            return
          </CharString>
          <CharString index="1">
            29 9 -10 -28 hvcurveto
            -87 vlineto
            -28 -9 -11 -29 vhcurveto
            -23 hlineto
            -30 -8 11 28 hvcurveto
            87 vlineto
            28 8 10 30 vhcurveto
            return
          </CharString>
          <CharString index="2">
            -68 -38 -37 -68 hvcurveto
            -96 vlineto
            -68 38 -37 68 vhcurveto
            59 hlineto
            69 37 37 68 hvcurveto
            96 vlineto
            68 -37 37 -69 vhcurveto
            return
          </CharString>
          <CharString index="3">
            29 9 -11 -28 hvcurveto
            -87 vlineto
            -28 -9 -10 -29 vhcurveto
            -23 hlineto
            -30 -8 10 28 hvcurveto
            87 vlineto
            28 8 11 30 vhcurveto
            return
          </CharString>
          <CharString index="4">
            13 -7 6 -12 vhcurveto
            -89 hlineto
            -14 -6 -6 -14 hvcurveto
            -230 vlineto
            -15 8 -5 9 vhcurveto
            8 0 7 4 4 6 rrcurveto
            69 101 rlineto
            15 23 8 17 0 22 rrcurveto
            return
          </CharString>
          <CharString index="5">
            14 -7 5 -12 vhcurveto
            -89 hlineto
            -14 -6 -6 -14 hvcurveto
            -120 vlineto
            -14 6 -9 14 vhcurveto
            89 hlineto
            13 6 7 14 hvcurveto
            return
          </CharString>
          <CharString index="6">
            13 -7 6 -12 vhcurveto
            -89 hlineto
            -14 -6 -6 -14 hvcurveto
            -121 vlineto
            -13 6 -9 14 vhcurveto
            89 hlineto
            13 6 7 14 hvcurveto
            return
          </CharString>
          <CharString index="7">
            -18 -5 -7 -17 hvcurveto
            -54 vlineto
            -17 5 -7 18 vhcurveto
            379 hlineto
            18 5 7 17 hvcurveto
            54 vlineto
            17 -5 7 -18 vhcurveto
            return
          </CharString>
          <CharString index="8">
            14 0 4 5 3 16 rrcurveto
            28 110 195 0 28 -110 rlineto
            2 -16 5 -5 14 0 rrcurveto
            96 hlineto
            14 0 2 6 -4 15 rrcurveto
            -158 601 rlineto
            -4 16 -10 5 -16 0 rrcurveto
            -133 hlineto
            -16 0 -9 -5 -5 -16 rrcurveto
            -158 -601 rlineto
            -4 -15 2 -6 14 0 rrcurveto
            return
          </CharString>
          <CharString index="9">
            4 0 72 -289 -148 0 rlineto
            return
          </CharString>
          <CharString index="10">
            104 61 58 105 hvcurveto
            47 vlineto
            15 -7 7 -15 vhcurveto
            -84 hlineto
            -14 -7 -7 -15 hvcurveto
            -41 vlineto
            -42 -16 -17 -43 vhcurveto
            -68 hlineto
            -42 -16 17 42 hvcurveto
            305 vlineto
            42 16 17 42 vhcurveto
            68 hlineto
            43 16 -17 -42 hvcurveto
            -41 vlineto
            -15 7 -7 14 vhcurveto
            84 hlineto
            15 7 7 15 hvcurveto
            47 vlineto
            105 -61 58 -104 vhcurveto
            -109 hlineto
            -105 -60 -58 -105 hvcurveto
            -317 vlineto
            -105 60 -58 105 vhcurveto
            return
          </CharString>
          <CharString index="11">
            -7 -4 3 8 hvcurveto
            401 vlineto
            8 4 3 7 vhcurveto
            109 hlineto
            43 16 -17 -42 hvcurveto
            -305 vlineto
            -42 -16 -17 -43 vhcurveto
            return
          </CharString>
          <CharString index="12">
            -16 7 -5 14 vhcurveto
            247 hlineto
            104 61 58 105 hvcurveto
            317 vlineto
            105 -61 58 -104 vhcurveto
            -247 hlineto
            -14 -7 -5 -16 hvcurveto
            return
          </CharString>
          <CharString index="13">
            15 5 7 14 hvcurveto
            68 vlineto
            14 -5 7 -15 vhcurveto
            -209 hlineto
            -8 -4 3 8 hvcurveto
            139 vlineto
            8 4 3 8 vhcurveto
            171 hlineto
            15 6 7 14 hvcurveto
            68 vlineto
            14 -6 7 -15 vhcurveto
            -171 hlineto
            -8 -4 3 8 hvcurveto
            130 vlineto
            8 4 3 8 vhcurveto
            209 hlineto
            15 5 7 14 hvcurveto
            68 vlineto
            14 -5 7 -15 vhcurveto
            -327 hlineto
            -14 -7 -5 -16 hvcurveto
            -601 vlineto
            -16 7 -5 14 vhcurveto
            return
          </CharString>
          <CharString index="14">
            167 vlineto
            16 -8 7 -15 vhcurveto
            -175 hlineto
            -16 -5 -7 -14 hvcurveto
            -68 vlineto
            -14 5 -7 16 vhcurveto
            60 hlineto
            return
          </CharString>
          <CharString index="15">
            8 3 -3 -8 hvcurveto
            -63 vlineto
            -42 -15 -17 -43 vhcurveto
            -65 hlineto
            -42 -16 17 42 hvcurveto
            305 vlineto
            42 16 17 42 vhcurveto
            65 hlineto
            43 15 -17 -42 hvcurveto
            -24 vlineto
            -16 7 -6 14 vhcurveto
            85 hlineto
            14 7 6 16 hvcurveto
            30 vlineto
            105 -60 58 -104 vhcurveto
            -106 hlineto
            -105 -60 -58 -105 hvcurveto
            -317 vlineto
            -105 60 -58 105 vhcurveto
            return
          </CharString>
          <CharString index="16">
            16 -7 5 -14 vhcurveto
            -85 hlineto
            -14 -7 -5 -16 hvcurveto
            -601 vlineto
            -16 7 -5 14 vhcurveto
            85 hlineto
            14 7 5 16 hvcurveto
            return
          </CharString>
          <CharString index="17">
            -15 -7 -5 -16 hvcurveto
            -453 vlineto
            -42 -15 -17 -43 vhcurveto
            -59 hlineto
            -42 -16 17 42 hvcurveto
            88 vlineto
            15 -7 6 -14 vhcurveto
            -85 hlineto
            -14 -7 -6 -15 hvcurveto
            -94 vlineto
            -105 60 -58 105 vhcurveto
            100 hlineto
            104 60 58 105 hvcurveto
            460 vlineto
            15 -7 5 -14 vhcurveto
            return
          </CharString>
          <CharString index="18">
            14 7 5 16 hvcurveto
            0 171 63 74 153 -245 rlineto
            10 -17 15 -4 22 0 rrcurveto
            73 hlineto
            18 0 8 9 -10 16 rrcurveto
            -212 332 190 263 rlineto
            11 14 -5 9 -14 0 rrcurveto
            -98 hlineto
            -22 0 -7 -5 -10 -16 rrcurveto
            -152 -223 rlineto
            -8 -13 -15 -24 -8 -25 rrcurveto
            -2 285 hlineto
            16 -7 5 -14 vhcurveto
            -85 hlineto
            -14 -7 -5 -16 hvcurveto
            -601 vlineto
            -16 7 -5 14 vhcurveto
            return
          </CharString>
          <CharString index="19">
            15 5 7 14 hvcurveto
            68 vlineto
            14 -5 8 -15 vhcurveto
            -211 hlineto
            -8 -4 3 8 hvcurveto
            500 vlineto
            16 -7 5 -14 vhcurveto
            -85 hlineto
            -14 -7 -5 -16 hvcurveto
            -601 vlineto
            -16 7 -5 14 vhcurveto
            return
          </CharString>
          <CharString index="20">
            14 7 5 16 hvcurveto
            371 4 vlineto
            200 -372 rlineto
            1 -1 9 -19 22 0 rrcurveto
            73 hlineto
            14 7 5 16 hvcurveto
            601 vlineto
            16 -7 5 -14 vhcurveto
            -83 hlineto
            -14 -7 -5 -16 hvcurveto
            -372 -4 vlineto
            -202 379 rlineto
            -1 2 -7 12 -20 0 rrcurveto
            -75 hlineto
            -14 -7 -5 -16 hvcurveto
            -601 vlineto
            -16 7 -5 14 vhcurveto
            return
          </CharString>
          <CharString index="21">
            -43 -15 17 42 hvcurveto
            305 vlineto
            42 15 17 43 vhcurveto
            71 hlineto
            43 16 -17 -42 hvcurveto
            -305 vlineto
            -42 -16 -17 -43 vhcurveto
            return
          </CharString>
          <CharString index="22">
            105 60 58 105 hvcurveto
            317 vlineto
            105 -60 58 -105 vhcurveto
            -112 hlineto
            -105 -60 -58 -105 hvcurveto
            -317 vlineto
            -105 60 -58 105 vhcurveto
            return
          </CharString>
          <CharString index="23">
            14 7 5 16 hvcurveto
            205 vlineto
            8 4 3 8 vhcurveto
            67 0 100 -216 rlineto
            7 -17 9 -4 23 0 rrcurveto
            81 hlineto
            14 0 12 7 -9 17 rrcurveto
            -107 223 0 4 rlineto
            57 24 32 51 0 75 rrcurveto
            78 vlineto
            104 -62 60 -104 vhcurveto
            -238 hlineto
            -14 -7 -5 -16 hvcurveto
            -601 vlineto
            -16 7 -5 14 vhcurveto
            return
          </CharString>
          <CharString index="24">
            -7 -4 3 8 hvcurveto
            172 vlineto
            8 4 3 7 vhcurveto
            98 hlineto
            43 19 -17 -42 hvcurveto
            -78 vlineto
            -40 -19 -17 -43 vhcurveto
            return
          </CharString>
          <CharString index="25">
            -104 62 -60 104 vhcurveto
            109 hlineto
            104 62 60 104 hvcurveto
            34 vlineto
            0 255 -315 -124 0 109 rrcurveto
            19 vlineto
            60 16 16 54 vhcurveto
            39 hlineto
            return
          </CharString>
          <CharString index="26">
            53 17 -15 -52 hvcurveto
            -6 vlineto
            -16 7 -5 14 vhcurveto
            85 hlineto
            14 7 5 16 hvcurveto
            19 vlineto
            104 -62 60 -105 vhcurveto
            -100 hlineto
            -104 -62 -60 -104 hvcurveto
            -35 vlineto
            return
          </CharString>
          <CharString index="27">
            0 -264 315 140 0 -127 rrcurveto
            -12 vlineto
            -55 -18 -16 -52 vhcurveto
            -47 hlineto
            -53 -17 15 51 hvcurveto
            8 vlineto
            16 -7 5 -14 vhcurveto
            -85 hlineto
            -14 -7 -5 -16 hvcurveto
            return
          </CharString>
          <CharString index="28">
            14 7 5 16 hvcurveto
            501 vlineto
            8 4 3 8 vhcurveto
            114 hlineto
            15 6 7 14 hvcurveto
            68 vlineto
            14 -6 7 -15 vhcurveto
            -378 hlineto
            -16 -5 -7 -14 hvcurveto
            -68 vlineto
            -14 5 -7 16 vhcurveto
            114 hlineto
            8 3 -3 -8 hvcurveto
            -501 vlineto
            -16 7 -5 15 vhcurveto
            return
          </CharString>
          <CharString index="29">
            -14 -7 -5 -16 hvcurveto
            -453 vlineto
            -42 -16 -17 -43 vhcurveto
            -69 hlineto
            -42 -16 17 42 hvcurveto
            453 vlineto
            16 -7 5 -14 vhcurveto
            -85 hlineto
            -14 -7 -5 -16 hvcurveto
            -459 vlineto
            -105 60 -58 105 vhcurveto
            110 hlineto
            104 61 58 105 hvcurveto
            460 vlineto
            15 -7 5 -15 vhcurveto
            return
          </CharString>
          <CharString index="30">
            12 0 9 6 3 15 rrcurveto
            91 469 4 0 90 -469 rlineto
            2 -14 8 -7 14 0 rrcurveto
            141 hlineto
            14 0 7 7 2 14 rrcurveto
            108 600 rlineto
            2 14 -7 8 -16 0 rrcurveto
            -104 hlineto
            -14 0 -9 -7 -1 -15 rrcurveto
            -57 -492 -8 0 -98 497 rlineto
            -2 13 -9 4 -11 0 rrcurveto
            -112 hlineto
            -9 0 -10 -4 -2 -14 rrcurveto
            -96 -496 -7 0 -58 493 rlineto
            -1 17 -9 4 -14 0 rrcurveto
            -104 hlineto
            -15 0 -8 -7 2 -14 rrcurveto
            107 -601 rlineto
            2 -16 9 -5 14 0 rrcurveto
            return
          </CharString>
          <CharString index="31">
            14 7 5 16 hvcurveto
            0 214 183 386 rlineto
            7 13 -8 9 -13 0 rrcurveto
            -106 hlineto
            -13 0 -6 -6 -5 -15 rrcurveto
            -98 -243 -7 0 -100 243 rlineto
            -6 15 -5 6 -13 0 rrcurveto
            -106 hlineto
            -11 0 -9 -9 6 -13 rrcurveto
            183 -386 0 -214 rlineto
            -16 7 -5 14 vhcurveto
            return
          </CharString>
          <CharString index="32">
            -14 5 -7 16 vhcurveto
            383 hlineto
            15 5 9 14 hvcurveto
            76 vlineto
            14 -5 5 -15 vhcurveto
            -254 4 hlineto
            249 362 rlineto
            11 16 4 11 0 25 rrcurveto
            86 vlineto
            14 -5 7 -15 vhcurveto
            -355 hlineto
            -15 -6 -7 -14 hvcurveto
            -76 vlineto
            -14 6 -7 15 vhcurveto
            239 -4 hlineto
            -265 -391 rlineto
            -12 -15 -1 -16 0 -18 rrcurveto
            return
          </CharString>
          <CharString index="33">
            -8 14 -10 5 -12 0 rrcurveto
            -99 hlineto
            -14 0 -5 -9 9 -11 rrcurveto
            81 -96 rlineto
            7 -8 10 -5 10 0 rrcurveto
            65 hlineto
            13 0 5 6 -8 15 rrcurveto
            return
          </CharString>
          <CharString index="34">
            37 0 45 15 16 39 rrcurveto
            4 -33 hlineto
            -16 7 -5 14 vhcurveto
            84 hlineto
            15 7 5 16 hvcurveto
            468 vlineto
            16 -7 5 -15 vhcurveto
            -231 hlineto
            -105 -60 -58 -105 hvcurveto
            -184 vlineto
            -105 60 -58 105 vhcurveto
            return
          </CharString>
          <CharString index="35">
            -43 -14 -33 -55 vhcurveto
            -37 hlineto
            -43 -15 17 42 hvcurveto
            172 vlineto
            42 15 17 43 vhcurveto
            94 hlineto
            8 4 -3 -8 hvcurveto
            return
          </CharString>
          <CharString index="36">
            14 -6 7 -15 vhcurveto
            -129 hlineto
            -42 -16 17 42 hvcurveto
            172 vlineto
            42 16 17 42 vhcurveto
            129 hlineto
            16 5 5 15 hvcurveto
            69 vlineto
            14 -6 7 -15 vhcurveto
            -149 hlineto
            -105 -60 -58 -105 hvcurveto
            -184 vlineto
            -105 60 -58 105 vhcurveto
            149 hlineto
            16 5 5 15 hvcurveto
            return
          </CharString>
          <CharString index="37">
            37 0 45 15 16 39 rrcurveto
            4 -33 hlineto
            -16 7 -5 14 vhcurveto
            85 hlineto
            14 7 5 16 hvcurveto
            661 vlineto
            16 -7 5 -14 vhcurveto
            -85 hlineto
            -14 -7 -5 -16 hvcurveto
            -226 -4 vlineto
            -16 39 -45 15 -37 0 rrcurveto
            -41 hlineto
            -104 -52 -58 -105 hvcurveto
            -184 vlineto
            -105 52 -58 104 vhcurveto
            return
          </CharString>
          <CharString index="38">
            -43 -14 -33 -55 vhcurveto
            -45 hlineto
            -43 -15 17 42 hvcurveto
            172 vlineto
            42 15 17 43 vhcurveto
            45 hlineto
            55 14 -33 -43 hvcurveto
            return
          </CharString>
          <CharString index="39">
            16 5 5 15 hvcurveto
            66 vlineto
            15 -5 7 -16 vhcurveto
            -202 hlineto
            -43 -16 17 41 hvcurveto
            22 vlineto
            8 4 3 8 vhcurveto
            251 hlineto
            14 7 5 16 hvcurveto
            127 vlineto
            105 -60 58 -105 vhcurveto
            -79 hlineto
            -105 -60 -58 -105 hvcurveto
            -184 vlineto
            -105 60 -58 105 vhcurveto
            return
          </CharString>
          <CharString index="40">
            -7 -4 3 8 hvcurveto
            48 vlineto
            42 15 16 43 vhcurveto
            42 hlineto
            43 15 -16 -42 hvcurveto
            -48 vlineto
            -8 -3 -3 -8 vhcurveto
            return
          </CharString>
          <CharString index="41">
            37 0 45 16 16 39 rrcurveto
            4 -76 hlineto
            -41 -16 -17 -43 vhcurveto
            -171 hlineto
            -16 -5 -7 -14 hvcurveto
            -69 vlineto
            -15 5 -5 16 vhcurveto
            192 hlineto
            104 61 58 104 hvcurveto
            493 vlineto
            16 -7 5 -15 vhcurveto
            -231 hlineto
            -105 -60 -58 -105 hvcurveto
            -161 vlineto
            -105 52 -58 104 vhcurveto
            return
          </CharString>
          <CharString index="42">
            -43 -14 -32 -55 vhcurveto
            -37 hlineto
            -43 -15 16 42 hvcurveto
            149 vlineto
            42 15 17 43 vhcurveto
            94 hlineto
            8 4 -3 -8 hvcurveto
            return
          </CharString>
          <CharString index="43">
            14 7 5 16 hvcurveto
            303 vlineto
            43 14 33 55 vhcurveto
            36 hlineto
            43 16 -17 -42 hvcurveto
            -320 vlineto
            -16 7 -5 14 vhcurveto
            84 hlineto
            15 7 5 16 hvcurveto
            326 vlineto
            105 -52 58 -105 vhcurveto
            -32 hlineto
            -41 0 -41 -15 -16 -39 rrcurveto
            -4 226 hlineto
            16 -7 5 -14 vhcurveto
            -85 hlineto
            -14 -7 -5 -16 hvcurveto
            -661 vlineto
            -16 7 -5 14 vhcurveto
            return
          </CharString>
          <CharString index="44">
            -13 6 -7 14 vhcurveto
            87 hlineto
            14 6 7 13 hvcurveto
            88 vlineto
            13 -7 6 -13 vhcurveto
            -87 hlineto
            -14 -6 -6 -14 hvcurveto
            return
          </CharString>
          <CharString index="45">
            -16 7 -5 14 vhcurveto
            86 hlineto
            15 5 4 17 hvcurveto
            468 vlineto
            16 -7 5 -14 vhcurveto
            -86 hlineto
            -14 -6 -5 -16 hvcurveto
            return
          </CharString>
          <CharString index="46">
            104 62 59 105 hvcurveto
            491 vlineto
            16 -7 5 -14 vhcurveto
            -85 hlineto
            -14 -7 -5 -16 hvcurveto
            -468 vlineto
            -60 -18 -17 -60 vhcurveto
            -28 hlineto
            -15 -6 -7 -14 hvcurveto
            -68 vlineto
            -14 6 -7 15 vhcurveto
            return
          </CharString>
          <CharString index="47">
            -5 -10 0 -14 5 -9 rrcurveto
            127 -223 rlineto
            10 -17 7 -4 23 0 rrcurveto
            86 hlineto
            18 0 7 12 -8 13 rrcurveto
            -139 237 0 4 133 219 rlineto
            10 15 -8 10 -15 0 rrcurveto
            -97 hlineto
            -15 0 -11 -5 -8 -15 rrcurveto
            return
          </CharString>
          <CharString index="48">
            14 7 5 16 hvcurveto
            661 vlineto
            16 -7 5 -14 vhcurveto
            -85 hlineto
            -14 -7 -5 -16 hvcurveto
            -661 vlineto
            -16 7 -5 14 vhcurveto
            return
          </CharString>
          <CharString index="49">
            14 7 5 16 hvcurveto
            303 vlineto
            43 14 33 55 vhcurveto
            36 hlineto
            43 16 -17 -42 hvcurveto
            -320 vlineto
            -16 7 -5 14 vhcurveto
            84 hlineto
            15 7 5 16 hvcurveto
            326 vlineto
            105 -52 58 -105 vhcurveto
            -32 hlineto
            -41 0 -41 -15 -16 -39 rrcurveto
            -4 33 hlineto
            16 -7 5 -14 vhcurveto
            -85 hlineto
            -14 -7 -5 -16 hvcurveto
            -468 vlineto
            -16 7 -5 14 vhcurveto
            return
          </CharString>
          <CharString index="50">
            104 61 58 105 hvcurveto
            184 vlineto
            105 -61 58 -104 vhcurveto
            -89 hlineto
            -105 -60 -58 -105 hvcurveto
            -184 vlineto
            -105 60 -58 105 vhcurveto
            return
          </CharString>
          <CharString index="51">
            -43 -15 16 42 hvcurveto
            176 vlineto
            42 15 16 43 vhcurveto
            51 hlineto
            43 16 -16 -42 hvcurveto
            -176 vlineto
            -42 -16 -16 -43 vhcurveto
            return
          </CharString>
          <CharString index="52">
            -55 -14 33 43 hvcurveto
            138 vlineto
            43 14 33 55 vhcurveto
            44 hlineto
            43 16 -17 -42 hvcurveto
            -172 vlineto
            -42 -16 -17 -43 vhcurveto
            return
          </CharString>
          <CharString index="53">
            14 7 5 16 hvcurveto
            301 vlineto
            44 14 34 55 vhcurveto
            69 hlineto
            15 -2 5 7 0 15 rrcurveto
            69 vlineto
            14 -5 7 -15 vhcurveto
            -36 hlineto
            -37 0 -46 -17 -15 -38 rrcurveto
            -4 34 hlineto
            16 -7 5 -14 vhcurveto
            -85 hlineto
            -14 -7 -5 -16 hvcurveto
            -468 vlineto
            -16 7 -5 14 vhcurveto
            return
          </CharString>
          <CharString index="54">
            108 49 50 84 hvcurveto
            0 65 -25 33 -69 37 rrcurveto
            -101 60 rlineto
            -22 12 -21 13 0 20 rrcurveto
            5 vlineto
            16 18 9 31 vhcurveto
            139 hlineto
            16 4 5 15 hvcurveto
            65 vlineto
            14 -5 7 -15 vhcurveto
            -167 hlineto
            -105 -48 -42 -94 hvcurveto
            0 -66 35 -34 64 -33 rrcurveto
            99 -55 rlineto
            24 -13 17 -15 0 -18 rrcurveto
            -5 vlineto
            -21 -19 -9 -30 vhcurveto
            -167 hlineto
            -16 -4 -5 -15 hvcurveto
            -64 vlineto
            -14 5 -7 15 vhcurveto
            return
          </CharString>
          <CharString index="55">
            8 3 -3 -8 hvcurveto
            -227 vlineto
            -105 62 -57 104 vhcurveto
            61 hlineto
            16 5 5 15 hvcurveto
            69 vlineto
            14 -5 7 -16 vhcurveto
            -40 hlineto
            -43 -17 17 41 hvcurveto
            221 vlineto
            8 4 3 8 vhcurveto
            78 hlineto
            16 5 5 15 hvcurveto
            69 vlineto
            14 -5 7 -16 vhcurveto
            -78 hlineto
            -8 -4 3 8 hvcurveto
            95 vlineto
            15 -7 6 -14 vhcurveto
            -84 hlineto
            -14 -8 -6 -15 hvcurveto
            -95 vlineto
            -8 -3 -3 -8 vhcurveto
            -40 hlineto
            -16 -5 -7 -14 hvcurveto
            -69 vlineto
            -15 4 -5 17 vhcurveto
            return
          </CharString>
          <CharString index="56">
            37 0 45 15 16 39 rrcurveto
            4 -33 hlineto
            -16 7 -5 14 vhcurveto
            84 hlineto
            15 7 5 16 hvcurveto
            468 vlineto
            16 -7 5 -15 vhcurveto
            -84 hlineto
            -14 -7 -5 -16 hvcurveto
            -303 vlineto
            -43 -14 -33 -55 vhcurveto
            -37 hlineto
            -42 -16 17 42 hvcurveto
            320 vlineto
            16 -7 5 -14 vhcurveto
            -85 hlineto
            -14 -7 -5 -16 hvcurveto
            -326 vlineto
            -105 52 -58 104 vhcurveto
            return
          </CharString>
          <CharString index="57">
            16 0 6 6 2 15 rrcurveto
            60 338 8 0 61 -338 rlineto
            3 -16 6 -5 15 0 rrcurveto
            114 hlineto
            15 0 6 5 3 16 rrcurveto
            100 468 rlineto
            3 13 -5 8 -13 0 rrcurveto
            -96 hlineto
            -14 0 -8 -5 -2 -16 rrcurveto
            -46 -342 -8 0 -69 342 rlineto
            -3 16 -8 5 -14 0 rrcurveto
            -88 hlineto
            -13 0 -8 -6 -2 -15 rrcurveto
            -71 -342 -8 0 -45 342 rlineto
            -2 17 -8 4 -14 0 rrcurveto
            -96 hlineto
            -14 0 -4 -6 3 -15 rrcurveto
            100 -468 rlineto
            3 -14 7 -7 14 0 rrcurveto
            return
          </CharString>
          <CharString index="58">
            110 0 55 63 28 106 rrcurveto
            122 488 rlineto
            3 14 -8 8 -15 0 rrcurveto
            -84 hlineto
            -13 0 -9 -6 -3 -15 rrcurveto
            -85 -369 -4 0 -86 369 rlineto
            -4 16 -8 5 -13 0 rrcurveto
            -89 hlineto
            -14 0 -5 -7 4 -14 rrcurveto
            117 -441 rlineto
            4 -14 6 -7 15 0 rrcurveto
            53 hlineto
            -15 -63 -17 -22 -88 0 rrcurveto
            -21 hlineto
            -15 -5 -8 -14 hvcurveto
            -67 vlineto
            -14 5 -8 15 vhcurveto
            return
          </CharString>
          <CharString index="59">
            -14 5 -7 16 vhcurveto
            346 hlineto
            15 6 7 14 hvcurveto
            66 vlineto
            14 -6 8 -15 vhcurveto
            -202 4 hlineto
            196 264 rlineto
            9 11 7 8 0 33 rrcurveto
            60 vlineto
            14 -6 7 -15 vhcurveto
            -326 hlineto
            -15 -6 -7 -14 hvcurveto
            -66 vlineto
            -14 6 -8 15 vhcurveto
            201 -4 hlineto
            -212 -285 rlineto
            -11 -14 -8 -11 0 -33 rrcurveto
            return
          </CharString>
          <CharString index="60">
            16 -7 5 -14 vhcurveto
            -44 hlineto
            -14 -7 -5 -16 hvcurveto
            -230 vlineto
            -16 7 -5 14 vhcurveto
            44 hlineto
            14 7 5 16 hvcurveto
            return
          </CharString>
          <CharString index="61">
            -14 6 -7 14 vhcurveto
            79 hlineto
            13 7 7 14 hvcurveto
            89 vlineto
            14 -7 5 -13 vhcurveto
            -79 hlineto
            -14 -6 -6 -14 hvcurveto
            return
          </CharString>
          <CharString index="62">
            17 10 3 6 0 13 rrcurveto
            55 vlineto
            0 15 -9 5 -12 -10 rrcurveto
            -149 -115 rlineto
            -14 -10 -6 -5 0 -20 rrcurveto
            -41 vlineto
            0 -21 5 -5 15 -11 rrcurveto
            149 -115 rlineto
            12 -10 9 5 0 15 rrcurveto
            55 vlineto
            0 14 -3 5 -17 11 rrcurveto
            -102 77 rlineto
            return
          </CharString>
          <CharString index="63">
            15 6 8 14 hvcurveto
            44 vlineto
            14 -6 7 -15 vhcurveto
            -197 hlineto
            -16 -5 -7 -14 hvcurveto
            -44 vlineto
            -14 5 -8 16 vhcurveto
            return
          </CharString>
          <CharString index="64">
            -13 0 -10 -5 -7 -14 rrcurveto
            -45 -89 rlineto
            -7 -15 4 -6 14 0 rrcurveto
            63 hlineto
            12 0 9 5 7 8 rrcurveto
            82 96 rlineto
            9 11 -6 9 -13 0 rrcurveto
            return
          </CharString>
          <CharString index="65">
            -18 -21 13 -34 24 0 rrcurveto
            25 hlineto
            36 9 -4 -20 hvcurveto
            -2 vlineto
            -18 -8 -5 -37 vhcurveto
            -33 hlineto
            -15 -3 -4 -15 hvcurveto
            -20 vlineto
            -14 3 -4 15 vhcurveto
            45 hlineto
            55 39 21 49 hvcurveto
            18 vlineto
            55 -29 20 -45 vhcurveto
            0 4 53 53 -78 0 rlineto
            return
          </CharString>
          <CharString index="66">
            -103 -77 rlineto
            -16 -11 -3 -5 0 -14 rrcurveto
            -55 vlineto
            0 -15 8 -5 12 10 rrcurveto
            150 115 rlineto
            15 11 5 5 0 21 rrcurveto
            41 vlineto
            0 20 -6 5 -14 10 rrcurveto
            -150 115 rlineto
            -12 10 -8 -5 0 -15 rrcurveto
            -55 vlineto
            0 -13 3 -6 16 -10 rrcurveto
            return
          </CharString>
          <CharString index="67">
            -7 14 -10 5 -13 0 rrcurveto
            -98 hlineto
            -14 0 -5 -9 9 -11 rrcurveto
            81 -96 rlineto
            6 -8 10 -5 10 0 rrcurveto
            66 hlineto
            13 0 4 6 -7 15 rrcurveto
            return
          </CharString>
          <CharString index="68">
            -12 0 -10 -5 -7 -14 rrcurveto
            -45 -89 rlineto
            -7 -15 4 -6 13 0 rrcurveto
            66 hlineto
            10 0 9 5 7 8 rrcurveto
            81 96 rlineto
            9 11 -5 9 -14 0 rrcurveto
            return
          </CharString>
          <CharString index="69">
            -14 6 -7 13 vhcurveto
            80 hlineto
            13 6 7 14 hvcurveto
            89 vlineto
            14 -7 5 -12 vhcurveto
            -80 hlineto
            -13 -6 -6 -14 hvcurveto
            return
          </CharString>
          <CharString index="70">
            14 0 7 5 6 16 rrcurveto
            51 111 178 0 0 -111 rlineto
            -16 7 -5 14 vhcurveto
            327 hlineto
            15 5 7 14 hvcurveto
            68 vlineto
            14 -5 7 -15 vhcurveto
            -209 hlineto
            -8 -4 3 8 hvcurveto
            139 vlineto
            8 4 3 8 vhcurveto
            171 hlineto
            15 6 7 14 hvcurveto
            68 vlineto
            14 -6 7 -15 vhcurveto
            -171 hlineto
            -8 -4 3 8 hvcurveto
            130 vlineto
            8 4 3 8 vhcurveto
            209 hlineto
            15 5 7 14 hvcurveto
            68 vlineto
            14 -5 7 -15 vhcurveto
            -399 hlineto
            -17 0 -8 -5 -8 -16 rrcurveto
            -277 -600 rlineto
            -6 -14 4 -8 15 0 rrcurveto
            return
          </CharString>
          <CharString index="71">
            -12 0 -10 -5 -8 -14 rrcurveto
            -44 -89 rlineto
            -7 -15 4 -6 13 0 rrcurveto
            65 hlineto
            10 0 10 5 7 8 rrcurveto
            81 96 rlineto
            9 11 -5 9 -14 0 rrcurveto
            return
          </CharString>
          <CharString index="72">
            -5 7 -7 4 -10 0 rrcurveto
            -65 hlineto
            -11 0 -6 -4 -5 -7 rrcurveto
            -63 -105 rlineto
            -4 -7 3 -6 9 0 rrcurveto
            59 hlineto
            9 0 5 3 4 9 rrcurveto
            32 66 33 -66 rlineto
            3 -9 6 -3 8 0 rrcurveto
            60 hlineto
            10 0 1 6 -4 7 rrcurveto
            return
          </CharString>
          <CharString index="73">
            -14 6 -7 13 vhcurveto
            80 hlineto
            13 7 7 14 hvcurveto
            89 vlineto
            14 -8 5 -12 vhcurveto
            -80 hlineto
            -13 -6 -6 -14 hvcurveto
            return
          </CharString>
          <CharString index="74">
            15 5 7 14 hvcurveto
            68 vlineto
            14 -5 7 -15 vhcurveto
            -209 hlineto
            return
          </CharString>
          <CharString index="75">
            -8 -4 3 8 hvcurveto
            139 vlineto
            8 4 3 8 vhcurveto
            171 hlineto
            15 6 7 14 hvcurveto
            68 vlineto
            14 -6 7 -15 vhcurveto
            -171 hlineto
            -8 -4 3 8 hvcurveto
            130 vlineto
            8 4 3 8 vhcurveto
            209 hlineto
            15 5 7 14 hvcurveto
            68 vlineto
            14 -5 7 -15 vhcurveto
            -327 hlineto
            -14 -7 -5 -16 hvcurveto
            -601 vlineto
            -16 7 -5 14 vhcurveto
            return
          </CharString>
          <CharString index="76">
            -7 14 -10 5 -13 0 rrcurveto
            -99 hlineto
            -13 0 -5 -9 9 -11 rrcurveto
            81 -96 rlineto
            6 -8 10 -5 10 0 rrcurveto
            65 hlineto
            14 0 4 6 -7 15 rrcurveto
            return
          </CharString>
          <CharString index="77">
            -14 6 -7 13 vhcurveto
            80 hlineto
            13 7 7 14 hvcurveto
            89 vlineto
            14 -7 5 -13 vhcurveto
            -80 hlineto
            -13 -6 -6 -14 hvcurveto
            return
          </CharString>
          <CharString index="78">
            -7 14 -10 5 -13 0 rrcurveto
            -99 hlineto
            -13 0 -5 -9 9 -11 rrcurveto
            81 -96 rlineto
            6 -8 10 -5 10 0 rrcurveto
            66 hlineto
            13 0 4 6 -7 15 rrcurveto
            return
          </CharString>
          <CharString index="79">
            -13 0 -10 -5 -7 -14 rrcurveto
            -45 -89 rlineto
            -7 -15 4 -6 13 0 rrcurveto
            66 hlineto
            10 0 10 5 6 8 rrcurveto
            81 96 rlineto
            9 11 -5 9 -13 0 rrcurveto
            return
          </CharString>
          <CharString index="80">
            -12 8 -10 -1 -9 -12 rrcurveto
            -17 -24 rlineto
            -27 19 -35 10 -43 0 rrcurveto
            -121 hlineto
            -105 -60 -58 -105 hvcurveto
            -317 vlineto
            0 -30 5 -26 9 -22 rrcurveto
            -28 -40 rlineto
            -9 -13 3 -9 11 -8 rrcurveto
            21 -16 rlineto
            12 -7 10 0 9 12 rrcurveto
            17 24 rlineto
            27 -18 35 -10 43 0 rrcurveto
            121 hlineto
            104 60 58 105 hvcurveto
            317 vlineto
            0 29 -5 26 -9 21 rrcurveto
            30 42 rlineto
            8 13 -2 9 -12 8 rrcurveto
            return
          </CharString>
          <CharString index="81">
            42 15 17 43 vhcurveto
            80 hlineto
            28 0 16 -7 8 -16 rrcurveto
            -190 -267 rlineto
            return
          </CharString>
          <CharString index="82">
            -42 -15 -17 -43 vhcurveto
            -80 hlineto
            -27 0 -16 7 -8 15 rrcurveto
            189 265 rlineto
            return
          </CharString>
          <CharString index="83">
            -13 0 -10 -5 -7 -14 rrcurveto
            -45 -89 rlineto
            -7 -15 4 -6 14 0 rrcurveto
            65 hlineto
            10 0 10 5 6 8 rrcurveto
            82 96 rlineto
            9 11 -6 9 -13 0 rrcurveto
            return
          </CharString>
          <CharString index="84">
            -13 0 -10 -5 -7 -14 rrcurveto
            -45 -89 rlineto
            -7 -15 4 -6 13 0 rrcurveto
            64 hlineto
            12 0 9 5 7 8 rrcurveto
            81 96 rlineto
            9 11 -5 9 -13 0 rrcurveto
            return
          </CharString>
          <CharString index="85">
            -40 16 -36 56 vhcurveto
            23 0 18 5 22 30 rrcurveto
            return
          </CharString>
          <CharString index="86">
            18 23 3 5 8 0 rrcurveto
            11 5 -5 -32 hvcurveto
            -9 vlineto
            -10 2 -3 8 vhcurveto
            40 hlineto
            8 2 3 10 hvcurveto
            37 vlineto
            40 -16 36 -56 vhcurveto
            -23 0 -17 -6 -20 -25 rrcurveto
            return
          </CharString>
          <CharString index="87">
            37 0 45 15 16 39 rrcurveto
            return
          </CharString>
          <CharString index="88">
            4 -33 hlineto
            -16 7 -5 14 vhcurveto
            84 hlineto
            15 7 5 16 hvcurveto
            468 vlineto
            16 -7 5 -15 vhcurveto
            -231 hlineto
            -105 -60 -58 -105 hvcurveto
            -184 vlineto
            -105 60 -58 105 vhcurveto
            return
          </CharString>
          <CharString index="89">
            -32 17 -16 32 vhcurveto
            58 hlineto
            31 19 16 32 hvcurveto
            68 vlineto
            31 -19 15 -31 vhcurveto
            -58 hlineto
            -32 -17 -15 -31 hvcurveto
            return
          </CharString>
          <CharString index="90">
            7 4 4 8 vhcurveto
            231 hlineto
            14 7 6 15 hvcurveto
            132 vlineto
            105 -60 58 -104 vhcurveto
            -44 hlineto
            -42 0 -51 -9 -26 -46 -26 46 -58 9 -42 0 rrcurveto
            -159 hlineto
            -15 -5 -7 -14 hvcurveto
            -68 vlineto
            -14 5 -7 15 vhcurveto
            163 hlineto
            39 19 -14 -43 hvcurveto
            -13 vlineto
            return
          </CharString>
          <CharString index="91">
            -5 -2 -3 -5 vhcurveto
            -110 hlineto
            -105 -60 -50 -105 hvcurveto
            -11 vlineto
            -101 63 -55 102 vhcurveto
            16 hlineto
            60 0 56 14 25 43 rrcurveto
            return
          </CharString>
          <CharString index="92">
            28 -39 37 -18 60 0 rrcurveto
            205 hlineto
            16 5 5 15 hvcurveto
            69 vlineto
            14 -6 7 -15 vhcurveto
            -184 hlineto
            -43 -16 17 42 hvcurveto
            return
          </CharString>
          <CharString index="93">
            -8 -4 -3 -8 vhcurveto
            -131 hlineto
            -7 -4 3 8 hvcurveto
            51 vlineto
            42 17 16 43 vhcurveto
            35 hlineto
            43 16 -17 -42 hvcurveto
            return
          </CharString>
          <CharString index="94">
            -52 -18 -24 -51 vhcurveto
            -28 hlineto
            -50 -17 17 45 hvcurveto
            9 vlineto
            42 15 17 52 vhcurveto
            85 hlineto
            8 4 -3 -8 hvcurveto
            return
          </CharString>
          <CharString index="95">
            -13 0 -10 -5 -7 -14 rrcurveto
            -45 -89 rlineto
            -7 -15 4 -6 13 0 rrcurveto
            64 hlineto
            12 0 9 5 7 8 rrcurveto
            81 96 rlineto
            9 11 -5 9 -14 0 rrcurveto
            return
          </CharString>
          <CharString index="96">
            -5 7 -6 4 -11 0 rrcurveto
            -65 hlineto
            -10 0 -7 -4 -5 -7 rrcurveto
            -62 -105 rlineto
            -4 -7 2 -6 10 0 rrcurveto
            59 hlineto
            8 0 6 3 3 9 rrcurveto
            33 66 32 -66 rlineto
            4 -9 5 -3 9 0 rrcurveto
            59 hlineto
            10 0 2 6 -4 7 rrcurveto
            return
          </CharString>
          <CharString index="97">
            -14 7 -7 13 vhcurveto
            79 hlineto
            14 6 7 14 hvcurveto
            89 vlineto
            14 -7 5 -13 vhcurveto
            -79 hlineto
            -13 -7 -6 -14 hvcurveto
            return
          </CharString>
          <CharString index="98">
            -40 16 -36 56 vhcurveto
            23 0 19 5 21 30 rrcurveto
            return
          </CharString>
          <CharString index="99">
            18 23 4 5 8 0 rrcurveto
            11 4 -5 -32 hvcurveto
            -9 vlineto
            -10 2 -3 9 vhcurveto
            39 hlineto
            8 2 3 10 hvcurveto
            37 vlineto
            40 -16 36 -55 vhcurveto
            -24 0 -17 -6 -19 -25 rrcurveto
            return
          </CharString>
          <CharString index="100">
            -21 -26 -5 -6 -7 0 rrcurveto
            -11 -4 6 30 hvcurveto
            11 vlineto
            10 -2 2 -9 vhcurveto
            -39 hlineto
            -8 -3 -2 -10 hvcurveto
            return
          </CharString>
          <CharString index="101">
            -10 10 -11 -1 -9 -10 rrcurveto
            -27 -27 rlineto
            -28 28 -42 15 -52 0 rrcurveto
            -89 hlineto
            -105 -60 -58 -105 hvcurveto
            -184 vlineto
            0 -23 3 -22 6 -18 rrcurveto
            -39 -39 rlineto
            -9 -10 -1 -11 11 -10 rrcurveto
            15 -15 rlineto
            9 -11 8 0 13 11 rrcurveto
            27 27 rlineto
            28 -27 41 -15 53 0 rrcurveto
            89 hlineto
            104 61 58 105 hvcurveto
            184 vlineto
            0 23 -3 21 -6 19 rrcurveto
            39 39 rlineto
            11 10 -1 11 -10 10 rrcurveto
            return
          </CharString>
          <CharString index="102">
            42 15 17 43 vhcurveto
            48 hlineto
            28 0 16 -7 8 -17 rrcurveto
            -158 -158 rlineto
            return
          </CharString>
          <CharString index="103">
            -42 -15 -17 -43 vhcurveto
            -48 hlineto
            -27 0 -16 7 -8 16 rrcurveto
            157 158 rlineto
            return
          </CharString>
          <CharString index="104">
            -5 7 -7 4 -11 0 rrcurveto
            -64 hlineto
            -11 0 -7 -4 -5 -7 rrcurveto
            -62 -105 rlineto
            -4 -7 3 -6 9 0 rrcurveto
            59 hlineto
            8 0 6 3 4 9 rrcurveto
            32 66 32 -66 rlineto
            4 -9 6 -3 8 0 rrcurveto
            60 hlineto
            9 0 2 6 -4 7 rrcurveto
            return
          </CharString>
          <CharString index="105">
            4 -33 hlineto
            -16 7 -5 14 vhcurveto
            84 hlineto
            15 7 5 16 hvcurveto
            468 vlineto
            16 -7 5 -15 vhcurveto
            -84 hlineto
            -14 -7 -5 -16 hvcurveto
            -303 vlineto
            -43 -14 -33 -55 vhcurveto
            -37 hlineto
            -42 -16 17 42 hvcurveto
            320 vlineto
            16 -7 5 -14 vhcurveto
            -85 hlineto
            -14 -7 -5 -16 hvcurveto
            -326 vlineto
            -105 52 -58 104 vhcurveto
            return
          </CharString>
          <CharString index="106">
            15 5 7 14 hvcurveto
            45 vlineto
            14 -5 7 -15 vhcurveto
            -198 hlineto
            -15 -5 -7 -14 hvcurveto
            -45 vlineto
            -14 5 -7 15 vhcurveto
            return
          </CharString>
          <CharString index="107">
            15 7 5 16 hvcurveto
            468 vlineto
            16 -7 5 -15 vhcurveto
            return
          </CharString>
          <CharString index="108">
            -13 0 -10 -5 -7 -14 rrcurveto
            -45 -89 rlineto
            -7 -15 5 -6 13 0 rrcurveto
            65 hlineto
            10 0 10 5 7 8 rrcurveto
            81 96 rlineto
            9 11 -6 9 -13 0 rrcurveto
            return
          </CharString>
          <CharString index="109">
            -14 6 -7 14 vhcurveto
            87 hlineto
            14 6 7 14 hvcurveto
            95 vlineto
            14 -7 5 -13 vhcurveto
            -87 hlineto
            -14 -6 -6 -14 hvcurveto
            return
          </CharString>
          <CharString index="110">
            65 hlineto
            11 0 6 4 5 7 rrcurveto
            63 105 rlineto
            4 7 -2 6 -10 0 rrcurveto
            -59 hlineto
            -9 0 -5 -3 -4 -9 rrcurveto
            -32 -66 -33 66 rlineto
            -3 9 -6 3 -8 0 rrcurveto
            -59 hlineto
            -10 0 -2 -6 4 -7 rrcurveto
            62 -105 rlineto
            5 -7 7 -4 10 0 rrcurveto
            return
          </CharString>
          <CharString index="111">
            -11 vlineto
            -69 38 -36 60 vhcurveto
            35 hlineto
            60 38 36 69 hvcurveto
            11 vlineto
            9 -5 4 -9 vhcurveto
            -49 hlineto
            -10 -4 -4 -9 hvcurveto
            -9 vlineto
            -31 -11 -12 -24 vhcurveto
            -7 hlineto
            -24 -10 11 32 hvcurveto
            9 vlineto
            9 -5 4 -9 vhcurveto
            -50 hlineto
            -9 -5 -4 -9 hvcurveto
            return
          </CharString>
          <CharString index="112">
            -14 6 -7 14 vhcurveto
            88 hlineto
            13 6 7 14 hvcurveto
            95 vlineto
            14 -7 5 -12 vhcurveto
            -88 hlineto
            -14 -6 -6 -14 hvcurveto
            return
          </CharString>
          <CharString index="113">
            -5 7 -7 4 -11 0 rrcurveto
            -65 hlineto
            -10 0 -7 -4 -5 -7 rrcurveto
            -62 -105 rlineto
            -4 -7 2 -6 10 0 rrcurveto
            59 hlineto
            8 0 6 3 3 9 rrcurveto
            33 66 32 -66 rlineto
            4 -9 5 -3 9 0 rrcurveto
            60 hlineto
            9 0 2 6 -4 7 rrcurveto
            return
          </CharString>
          <CharString index="114">
            14 -7 5 -13 vhcurveto
            -72 hlineto
            -13 -7 -6 -14 hvcurveto
            -166 vlineto
            -15 8 -5 10 vhcurveto
            7 0 6 4 5 6 rrcurveto
            53 68 rlineto
            17 20 6 20 0 22 rrcurveto
            return
          </CharString>
          <CharString index="115">
            15 6 7 14 hvcurveto
            45 vlineto
            14 -6 7 -15 vhcurveto
            -197 hlineto
            -16 -5 -7 -14 hvcurveto
            -45 vlineto
            -14 5 -7 16 vhcurveto
            return
          </CharString>
          <CharString index="116">
            15 5 8 14 hvcurveto
            44 vlineto
            14 -5 7 -15 vhcurveto
            -198 hlineto
            -15 -5 -7 -14 hvcurveto
            -44 vlineto
            -14 5 -8 15 vhcurveto
            return
          </CharString>
          <CharString index="117">
            14 -7 5 -12 vhcurveto
            -73 hlineto
            -13 -6 -6 -14 hvcurveto
            -166 vlineto
            -15 8 -5 9 vhcurveto
            7 0 7 4 5 6 rrcurveto
            53 68 rlineto
            16 20 6 20 0 22 rrcurveto
            return
          </CharString>
          <CharString index="118">
            -13 0 -10 -5 -7 -14 rrcurveto
            -45 -89 rlineto
            -7 -15 5 -6 13 0 rrcurveto
            63 hlineto
            12 0 9 5 8 8 rrcurveto
            81 96 rlineto
            9 11 -6 9 -13 0 rrcurveto
            return
          </CharString>
          <CharString index="119">
            14 -7 5 -12 vhcurveto
            -73 hlineto
            -13 -6 -6 -14 hvcurveto
            -166 vlineto
            -15 8 -5 9 vhcurveto
            7 0 6 4 6 6 rrcurveto
            52 68 rlineto
            17 20 6 20 0 22 rrcurveto
            return
          </CharString>
          <CharString index="120">
            14 -7 5 -12 vhcurveto
            -89 hlineto
            -14 -6 -6 -14 hvcurveto
            -95 vlineto
            -13 6 -9 14 vhcurveto
            89 hlineto
            13 6 7 14 hvcurveto
            return
          </CharString>
          <CharString index="121">
            64 hlineto
            11 0 7 4 5 7 rrcurveto
            62 105 rlineto
            4 7 -2 6 -9 0 rrcurveto
            -60 hlineto
            -8 0 -6 -3 -4 -9 rrcurveto
            -32 -66 -32 66 rlineto
            -4 9 -6 3 -8 0 rrcurveto
            -59 hlineto
            -9 0 -3 -6 4 -7 rrcurveto
            62 -105 rlineto
            5 -7 7 -4 11 0 rrcurveto
            return
          </CharString>
          <CharString index="122">
            14 -7 5 -12 vhcurveto
            -73 hlineto
            -13 -6 -6 -14 hvcurveto
            -166 vlineto
            -15 7 -5 10 vhcurveto
            7 0 6 4 5 6 rrcurveto
            53 68 rlineto
            17 20 6 20 0 22 rrcurveto
            return
          </CharString>
          <CharString index="123">
            33 22 19 35 hvcurveto
            64 vlineto
            33 -22 19 -33 vhcurveto
            -57 hlineto
            -34 -20 -19 -33 hvcurveto
            -64 vlineto
            -35 20 -19 34 vhcurveto
            return
          </CharString>
          <CharString index="124">
            -13 0 -9 -4 -8 -15 rrcurveto
            -44 -89 rlineto
            -7 -15 4 -6 13 0 rrcurveto
            42 hlineto
            10 0 9 5 6 8 rrcurveto
            71 96 rlineto
            10 14 -6 6 -13 0 rrcurveto
            return
          </CharString>
          <CharString index="125">
            -13 0 -10 -4 -7 -15 rrcurveto
            -45 -89 rlineto
            -7 -15 5 -6 13 0 rrcurveto
            41 hlineto
            10 0 9 5 7 8 rrcurveto
            71 96 rlineto
            10 14 -7 6 -13 0 rrcurveto
            return
          </CharString>
          <CharString index="126">
            -13 0 -10 -4 -7 -15 rrcurveto
            -45 -89 rlineto
            -7 -15 4 -6 14 0 rrcurveto
            41 hlineto
            10 0 9 5 6 8 rrcurveto
            72 96 rlineto
            9 14 -6 6 -13 0 rrcurveto
            return
          </CharString>
          <CharString index="127">
            78 39 45 84 hvcurveto
            7 vlineto
            22 -10 12 -19 vhcurveto
            -46 hlineto
            -16 -13 -9 -22 hvcurveto
            -10 vlineto
            -23 -9 -11 -26 vhcurveto
            -93 hlineto
            -26 -10 11 23 hvcurveto
            10 vlineto
            22 -10 9 -16 vhcurveto
            -49 hlineto
            -20 -9 -12 -22 hvcurveto
            -8 vlineto
            -80 41 -48 77 vhcurveto
            return
          </CharString>
          <CharString index="128">
            15 -8 7 -14 vhcurveto
            -50 hlineto
            -15 -7 -7 -15 hvcurveto
            -50 vlineto
            -15 7 -8 15 vhcurveto
            50 hlineto
            15 7 8 15 hvcurveto
            return
          </CharString>
          <CharString index="129">
            15 -8 7 -14 vhcurveto
            -81 hlineto
            -15 -7 -7 -15 hvcurveto
            -72 vlineto
            -15 7 -8 15 vhcurveto
            81 hlineto
            15 7 8 15 hvcurveto
            return
          </CharString>
          <CharString index="130">
            -29 -16 -20 -26 hvcurveto
            -264 vlineto
            -9 -4 -5 -8 vhcurveto
            -91 hlineto
            -10 18 -15 11 -18 6 rrcurveto
            4 vlineto
            32 16 24 32 0 58 rrcurveto
            9 vlineto
            111 -50 59 -117 vhcurveto
            -85 hlineto
            -17 -7 -7 -16 hvcurveto
            -57 vlineto
            -17 7 -7 17 vhcurveto
            69 hlineto
            50 19 -17 -44 hvcurveto
            -8 vlineto
            return
          </CharString>
          <CharString index="131">
            -44 -21 -18 -48 vhcurveto
            -46 hlineto
            -14 -9 -8 -17 hvcurveto
            -55 vlineto
            -16 8 -8 16 vhcurveto
            45 hlineto
            50 19 -17 -44 hvcurveto
            -22 vlineto
            -44 -21 -18 -48 vhcurveto
            -99 hlineto
            -17 -7 -7 -16 hvcurveto
            -57 vlineto
            -17 7 -7 17 vhcurveto
            108 hlineto
            return
          </CharString>
          <CharString index="132">
            110 0 62 57 2 106 rrcurveto
            78 hlineto
            8 4 -5 -9 hvcurveto
            -161 vlineto
            -17 8 -6 16 vhcurveto
            69 hlineto
            16 8 6 17 hvcurveto
            482 vlineto
            9 4 5 8 vhcurveto
            54 hlineto
            18 6 7 17 hvcurveto
            57 vlineto
            16 -6 7 -18 vhcurveto
            return
          </CharString>
          <CharString index="133">
            110 0 62 57 2 106 rrcurveto
            78 hlineto
            8 4 -5 -9 hvcurveto
            -161 vlineto
            -17 8 -6 16 vhcurveto
            69 hlineto
            16 8 6 17 hvcurveto
            482 vlineto
            9 4 5 8 vhcurveto
            96 hlineto
            8 4 -5 -9 hvcurveto
            -482 vlineto
            -17 8 -6 16 vhcurveto
            69 hlineto
            16 8 6 17 hvcurveto
            482 vlineto
            9 4 5 8 vhcurveto
            54 hlineto
            18 6 7 17 hvcurveto
            57 vlineto
            16 -6 7 -18 vhcurveto
            return
          </CharString>
          <CharString index="134">
            20 10 -7 -20 hvcurveto
            -38 vlineto
            -21 -6 -11 -24 vhcurveto
            -73 hlineto
            -27 -18 10 32 hvcurveto
            4 vlineto
            17 -8 6 -16 vhcurveto
            -67 hlineto
            -16 -8 -6 -17 hvcurveto
            -188 vlineto
            -17 8 -6 16 vhcurveto
            67 hlineto
            16 8 6 17 hvcurveto
            return
          </CharString>
          <CharString index="135">
            9 -18 20 -10 33 0 rrcurveto
            69 hlineto
            80 50 51 80 hvcurveto
            48 vlineto
            78 -50 40 -80 vhcurveto
            -101 hlineto
            -20 -10 7 20 hvcurveto
            4 vlineto
            21 6 11 24 vhcurveto
            145 hlineto
            return
          </CharString>
          <CharString index="136">
            0 -25 7 -12 14 -6 rrcurveto
            -4 -230 vlineto
            -16 -8 -7 -16 hvcurveto
            -58 vlineto
            -17 8 -6 16 vhcurveto
            275 hlineto
            return
          </CharString>
          <CharString index="137">
            8 4 -3 -9 hvcurveto
            -30 vlineto
            -9 -4 -5 -8 vhcurveto
            -85 hlineto
            -80 -55 -40 -82 hvcurveto
            -15 vlineto
            -85 42 -43 93 vhcurveto
            93 hlineto
            return
          </CharString>
          <CharString index="138">
            22 12 5 22 hvcurveto
            186 vlineto
            17 -8 6 -16 vhcurveto
            -144 hlineto
            -14 0 -11 -6 -9 -7 rrcurveto
            -78 -62 0 150 rlineto
            9 4 5 8 vhcurveto
            334 hlineto
            18 6 7 17 hvcurveto
            57 vlineto
            16 -6 7 -18 vhcurveto
            return
          </CharString>
          <CharString index="139">
            -16 -8 -8 -16 hvcurveto
            -57 vlineto
            -15 8 -8 16 vhcurveto
            53 hlineto
            8 5 -5 -8 hvcurveto
            -283 vlineto
            -110 71 -85 129 vhcurveto
            153 hlineto
            16 1 8 7 0 17 rrcurveto
            57 vlineto
            16 -7 8 -17 vhcurveto
            -128 hlineto
            -73 -37 33 61 hvcurveto
            278 vlineto
            8 4 5 9 vhcurveto
            156 hlineto
            8 5 -5 -8 hvcurveto
            -85 vlineto
            -49 -25 -13 -48 vhcurveto
            -16 hlineto
            -16 -8 -7 -16 hvcurveto
            -55 vlineto
            -17 8 -7 16 vhcurveto
            33 hlineto
            109 62 56 108 hvcurveto
            85 vlineto
            8 4 5 9 vhcurveto
            41 hlineto
            16 8 8 15 hvcurveto
            57 vlineto
            16 -8 8 -16 vhcurveto
            return
          </CharString>
          <CharString index="140">
            78 39 49 84 hvcurveto
            3 vlineto
            22 -10 12 -19 vhcurveto
            -46 hlineto
            -16 -13 -9 -22 hvcurveto
            -10 vlineto
            -23 -9 -11 -26 vhcurveto
            -63 hlineto
            -26 -10 11 23 hvcurveto
            10 vlineto
            22 -10 9 -16 vhcurveto
            -49 hlineto
            -20 -9 -12 -22 hvcurveto
            -8 vlineto
            -80 41 -48 77 vhcurveto
            return
          </CharString>
          <CharString index="141">
            9 4 5 8 vhcurveto
            303 hlineto
            16 8 8 16 hvcurveto
            57 vlineto
            15 -8 8 -16 vhcurveto
            -743 hlineto
            -16 -8 -8 -15 hvcurveto
            -57 vlineto
            -16 8 -8 16 vhcurveto
            302 hlineto
            8 4 -5 -9 hvcurveto
            -258 vlineto
            -40 -21 -23 -43 vhcurveto
            -23 hlineto
            -49 -28 24 48 hvcurveto
            30 vlineto
            48 24 24 49 vhcurveto
            19 hlineto
            16 8 8 15 hvcurveto
            57 vlineto
            16 -8 8 -16 vhcurveto
            -37 hlineto
            -110 0 -59 -64 -1 -106 rrcurveto
            -42 vlineto
            -108 62 -62 108 vhcurveto
            19 hlineto
            43 0 30 17 13 22 rrcurveto
            4 -95 hlineto
            -16 8 -8 15 vhcurveto
            67 hlineto
            16 8 8 16 hvcurveto
            271 vlineto
            40 21 23 43 vhcurveto
            23 hlineto
            49 28 -24 -48 hvcurveto
            -30 vlineto
            -48 -24 -24 -49 vhcurveto
            -19 hlineto
            -16 -8 -8 -15 hvcurveto
            -57 vlineto
            -16 8 -8 16 vhcurveto
            37 hlineto
            110 0 59 64 1 106 rrcurveto
            42 vlineto
            108 -62 62 -108 vhcurveto
            -19 hlineto
            -43 0 -30 -17 -13 -22 rrcurveto
            -4 hlineto
            return
          </CharString>
          <CharString index="142">
            -115 vlineto
            -17 8 -6 16 vhcurveto
            67 hlineto
            16 8 6 17 hvcurveto
            482 vlineto
            9 4 5 8 vhcurveto
            54 hlineto
            18 6 7 17 hvcurveto
            57 vlineto
            16 -6 7 -18 vhcurveto
            -738 hlineto
            -16 -8 -7 -16 hvcurveto
            -57 vlineto
            -17 8 -7 16 vhcurveto
            165 hlineto
            7 -1 3 -5 0 -8 rrcurveto
            -132 vlineto
            -23 -12 -13 -23 vhcurveto
            -74 hlineto
            -18 -12 -12 -17 hvcurveto
            0 -72 29 -38 114 -185 rlineto
            3 -5 7 -8 11 0 rrcurveto
            77 hlineto
            13 8 10 12 hvcurveto
            0 5 -2 7 -4 5 rrcurveto
            -124 196 4 0 rlineto
            71 47 53 78 hvcurveto
            139 vlineto
            9 4 5 8 vhcurveto
            243 hlineto
            8 4 -5 -9 hvcurveto
            -233 vlineto
            return
          </CharString>
          <CharString index="143">
            -38 -7 -32 -53 vhcurveto
            -7 hlineto
            -46 -16 16 49 hvcurveto
            23 vlineto
            47 12 16 46 vhcurveto
            7 hlineto
            17 8 6 16 hvcurveto
            56 vlineto
            16 -8 8 -17 vhcurveto
            -19 hlineto
            -108 -51 -62 -87 hvcurveto
            -47 vlineto
            -91 44 -65 100 vhcurveto
            20 hlineto
            return
          </CharString>
          <CharString index="144">
            -16 -8 -8 -15 hvcurveto
            -57 vlineto
            -16 8 -8 16 vhcurveto
            120 hlineto
            7 -1 3 -5 0 -8 rrcurveto
            -144 vlineto
            -48 -21 -21 -49 vhcurveto
            -5 hlineto
            -16 -8 -8 -16 hvcurveto
            -59 vlineto
            -16 8 -8 16 vhcurveto
            25 hlineto
            109 58 61 110 hvcurveto
            149 vlineto
            9 4 5 8 vhcurveto
            83 hlineto
            7 -1 3 -5 0 -8 rrcurveto
            -482 vlineto
            -17 8 -6 16 vhcurveto
            69 hlineto
            16 8 6 17 hvcurveto
            482 vlineto
            9 4 5 8 vhcurveto
            54 hlineto
            18 6 7 17 hvcurveto
            57 vlineto
            16 -6 7 -18 vhcurveto
            return
          </CharString>
          <CharString index="145">
            8 4 -5 -9 hvcurveto
            -238 vlineto
            0 -50 -21 -38 -78 -1 rrcurveto
            -55 hlineto
            -42 -13 13 45 hvcurveto
            20 vlineto
            25 16 13 20 vhcurveto
            62 hlineto
            16 8 7 16 hvcurveto
            57 vlineto
            16 -8 8 -16 vhcurveto
            -62 hlineto
            -24 -12 12 23 hvcurveto
            50 vlineto
            26 13 10 18 vhcurveto
            return
          </CharString>
          <CharString index="146">
            15 -8 7 -14 vhcurveto
            -70 hlineto
            -15 -7 -7 -15 hvcurveto
            -65 vlineto
            -15 7 -8 15 vhcurveto
            70 hlineto
            15 7 8 15 hvcurveto
            return
          </CharString>
          <CharString index="147">
            -16 -8 -7 -16 hvcurveto
            -58 vlineto
            -17 8 -6 16 vhcurveto
            267 hlineto
            return
          </CharString>
          <CharString index="148">
            7 4 -6 -8 hvcurveto
            -28 vlineto
            -9 -5 -5 -7 vhcurveto
            -80 hlineto
            -80 -55 -40 -82 hvcurveto
            -26 vlineto
            -85 42 -33 93 vhcurveto
            86 hlineto
            return
          </CharString>
          <CharString index="149">
            20 11 -8 -30 hvcurveto
            -21 vlineto
            -28 -11 -9 -20 vhcurveto
            -54 hlineto
            -42 -21 1 41 hvcurveto
            4 vlineto
            19 -8 10 -14 vhcurveto
            -62 hlineto
            -17 -8 -10 -19 hvcurveto
            -4 vlineto
            -112 65 -31 95 vhcurveto
            85 hlineto
            80 50 49 80 hvcurveto
            44 vlineto
            78 -50 40 -80 vhcurveto
            -95 hlineto
            return
          </CharString>
          <CharString index="150">
            -20 -11 3 30 hvcurveto
            4 vlineto
            28 11 4 20 vhcurveto
            139 hlineto
            33 26 15 40 hvcurveto
            90 vlineto
            9 4 5 8 vhcurveto
            150 hlineto
            16 8 6 17 hvcurveto
            58 vlineto
            16 -8 7 -16 vhcurveto
            return
          </CharString>
          <CharString index="151">
            20 15 17 26 0 38 rrcurveto
            43 vlineto
            9 5 3 9 vhcurveto
            43 hlineto
            16 1 8 7 0 17 rrcurveto
            56 vlineto
            16 -8 7 -16 vhcurveto
            return
          </CharString>
          <CharString index="152">
            -49 -18 -16 -50 vhcurveto
            -94 hlineto
            -46 -20 12 43 hvcurveto
            16 vlineto
            31 14 16 33 vhcurveto
            22 hlineto
            16 8 8 14 hvcurveto
            56 vlineto
            16 -8 8 -16 vhcurveto
            -32 hlineto
            -23 -14 13 23 hvcurveto
            71 vlineto
            31 16 18 32 vhcurveto
            153 hlineto
            return
          </CharString>
          <CharString index="153">
            9 -1 4 -3 0 -9 rrcurveto
            -65 vlineto
            0 -12 -2 -11 -3 -10 rrcurveto
            -39 hlineto
            -16 -8 -8 -14 hvcurveto
            -58 vlineto
            -16 8 -8 16 vhcurveto
            32 hlineto
            return
          </CharString>
          <CharString index="154">
            107 hlineto
            8 4 -5 -9 hvcurveto
            -294 vlineto
            -17 8 -6 16 vhcurveto
            69 hlineto
            16 8 6 17 hvcurveto
            482 vlineto
            9 4 5 8 vhcurveto
            54 hlineto
            18 6 7 17 hvcurveto
            57 vlineto
            16 -6 7 -18 vhcurveto
            -573 hlineto
            -16 -8 -7 -16 hvcurveto
            -57 vlineto
            -17 8 -7 16 vhcurveto
            380 hlineto
            7 -1 3 -5 0 -8 rrcurveto
            -52 vlineto
            -9 -4 -5 -8 vhcurveto
            -286 hlineto
            -15 -8 -7 -14 hvcurveto
            -64 vlineto
            -15 7 -8 17 vhcurveto
            26 hlineto
            42 28 -19 -47 hvcurveto
            -47 vlineto
            -36 -3 -32 -66 vhcurveto
            -66 hlineto
            -16 -8 -8 -16 hvcurveto
            -57 vlineto
            -15 8 -8 16 vhcurveto
            105 hlineto
            95 50 64 97 hvcurveto
            66 vlineto
            0 28 -12 18 -21 8 rrcurveto
            return
          </CharString>
          <CharString index="155">
            25 9 -12 -24 hvcurveto
            -19 vlineto
            -27 -10 -11 -24 vhcurveto
            -36 hlineto
            -27 -18 10 32 hvcurveto
            4 vlineto
            17 -8 6 -16 vhcurveto
            -67 hlineto
            -16 -8 -6 -17 hvcurveto
            -188 vlineto
            -17 8 -6 16 vhcurveto
            67 hlineto
            16 8 6 17 hvcurveto
            return
          </CharString>
          <CharString index="156">
            -116 -55 -65 -103 hvcurveto
            -67 vlineto
            -103 55 -69 116 vhcurveto
            63 hlineto
            110 60 54 112 hvcurveto
            4 vlineto
            19 -8 10 -17 vhcurveto
            -62 hlineto
            -14 -8 -10 -19 hvcurveto
            -4 vlineto
            -51 -25 -11 -48 vhcurveto
            -37 hlineto
            -49 -23 17 48 hvcurveto
            70 vlineto
            48 23 17 49 vhcurveto
            113 hlineto
            return
          </CharString>
          <CharString index="157">
            33 26 15 40 hvcurveto
            115 vlineto
            9 4 5 8 vhcurveto
            64 hlineto
            16 8 8 16 hvcurveto
            57 vlineto
            15 -8 8 -16 vhcurveto
            -477 hlineto
            -17 -7 -8 -15 hvcurveto
            -57 vlineto
            -16 7 -8 17 vhcurveto
            274 hlineto
            7 4 -6 -8 hvcurveto
            -53 vlineto
            -9 -5 -5 -7 vhcurveto
            return
          </CharString>
          <CharString index="158">
            47 20 -25 -43 hvcurveto
            -61 vlineto
            -48 -24 -24 -49 vhcurveto
            -40 hlineto
            -49 -24 24 48 hvcurveto
            61 vlineto
            48 20 20 49 vhcurveto
            return
          </CharString>
          <CharString index="159">
            16 8 8 16 hvcurveto
            56 vlineto
            16 -8 8 -16 vhcurveto
            -511 hlineto
            -17 -7 -8 -16 hvcurveto
            -56 vlineto
            -16 7 -8 17 vhcurveto
            283 hlineto
            return
          </CharString>
          <CharString index="160">
            7 -1 3 -5 0 -8 rrcurveto
            -21 vlineto
            -32 -18 -13 -31 vhcurveto
            -29 hlineto
            -109 -62 -62 -108 hvcurveto
            -68 vlineto
            -110 61 -61 109 vhcurveto
            75 hlineto
            return
          </CharString>
          <CharString index="161">
            106 65 58 104 hvcurveto
            104 vlineto
            0 63 -36 36 -49 7 rrcurveto
            4 vlineto
            return
          </CharString>
          <CharString index="162">
            27 8 8 23 0 21 rrcurveto
            47 vlineto
            9 4 5 8 vhcurveto
            return
          </CharString>
          <CharString index="163">
            -16 -8 -7 -16 hvcurveto
            -58 vlineto
            -17 8 -6 16 vhcurveto
            267 hlineto
            7 4 -6 -8 hvcurveto
            -28 vlineto
            -9 -5 -5 -7 vhcurveto
            -80 hlineto
            -80 -55 -40 -82 hvcurveto
            -26 vlineto
            -85 42 -33 93 vhcurveto
            86 hlineto
            return
          </CharString>
          <CharString index="164">
            -20 -11 3 30 hvcurveto
            4 vlineto
            28 11 4 20 vhcurveto
            139 hlineto
            33 26 15 40 hvcurveto
            90 vlineto
            9 4 5 8 vhcurveto
            64 hlineto
            16 8 6 17 hvcurveto
            58 vlineto
            16 -8 7 -16 vhcurveto
            return
          </CharString>
          <CharString index="165">
            106 49 53 92 hvcurveto
            22 vlineto
            68 -37 42 -92 -85 -26 -46 -57 vhcurveto
            -18 vlineto
            -20 7 -7 27 vhcurveto
            38 hlineto
            15 8 8 16 hvcurveto
            16 vlineto
            10 3 11 17 20 3 -11 -10 vhcurveto
            -19 vlineto
            -35 -14 -15 -40 vhcurveto
            -72 hlineto
            -50 -18 15 47 hvcurveto
            101 vlineto
            47 18 21 45 vhcurveto
            153 hlineto
            return
          </CharString>
          <CharString index="166">
            29 21 16 34 hvcurveto
            93 vlineto
            9 4 5 8 vhcurveto
            57 hlineto
            16 8 8 16 hvcurveto
            57 vlineto
            15 -8 8 -16 vhcurveto
            -499 hlineto
            -17 -7 -8 -15 hvcurveto
            -57 vlineto
            -16 7 -8 17 vhcurveto
            303 hlineto
            7 4 -5 -8 hvcurveto
            -31 vlineto
            -8 -4 -5 -7 vhcurveto
            -89 hlineto
            -109 -54 -57 -109 hvcurveto
            -96 vlineto
            -103 51 -66 116 vhcurveto
            return
          </CharString>
          <CharString index="167">
            8 4 -5 -9 hvcurveto
            -203 vlineto
            -37 -18 -18 -35 vhcurveto
            -4 hlineto
            -38 -16 19 36 hvcurveto
            203 vlineto
            9 4 5 8 vhcurveto
            return
          </CharString>
          <CharString index="168">
            91 -70 37 -82 -80 -60 -48 -68 vhcurveto
            -55 vlineto
            -18 8 -6 14 vhcurveto
            64 hlineto
            14 8 6 18 hvcurveto
            41 vlineto
            16 11 14 25 22 15 -12 -18 vhcurveto
            -58 vlineto
            -23 -8 -26 -61 vhcurveto
            -118 hlineto
            return
          </CharString>
          <CharString index="169">
            -109 -54 -57 -109 hvcurveto
            -66 vlineto
            -103 51 -66 116 vhcurveto
            43 hlineto
            33 0 21 13 9 18 rrcurveto
            4 -69 hlineto
            -17 8 -6 16 vhcurveto
            67 hlineto
            16 8 6 17 hvcurveto
            237 vlineto
            17 -8 6 -16 vhcurveto
            -67 hlineto
            -16 -8 -6 -17 hvcurveto
            -47 vlineto
            -32 -18 -16 -27 vhcurveto
            -46 hlineto
            -49 -19 14 48 hvcurveto
            63 vlineto
            47 18 21 45 vhcurveto
            156 hlineto
            29 21 16 34 hvcurveto
            97 vlineto
            9 4 5 8 vhcurveto
            50 hlineto
            16 8 8 16 hvcurveto
            57 vlineto
            15 -8 8 -16 vhcurveto
            -495 hlineto
            -17 -7 -8 -15 hvcurveto
            -57 vlineto
            -16 7 -8 17 vhcurveto
            306 hlineto
            7 4 -5 -8 hvcurveto
            -31 vlineto
            -8 -4 -5 -7 vhcurveto
            return
          </CharString>
          <CharString index="170">
            18 6 7 17 hvcurveto
            57 vlineto
            16 -6 7 -18 vhcurveto
            -231 hlineto
            -17 -7 -7 -16 hvcurveto
            -57 vlineto
            -17 7 -7 17 vhcurveto
            36 hlineto
            return
          </CharString>
          <CharString index="171">
            -47 -17 21 45 hvcurveto
            181 vlineto
            9 4 5 8 vhcurveto
            133 hlineto
            8 4 -5 -9 hvcurveto
            -178 vlineto
            -37 -19 -32 -55 vhcurveto
            return
          </CharString>
          <CharString index="172">
            -98 63 -61 97 vhcurveto
            16 hlineto
            48 0 28 18 13 22 rrcurveto
            4 -169 hlineto
            -17 8 -6 16 vhcurveto
            69 hlineto
            16 8 8 16 hvcurveto
            return
          </CharString>
          <CharString index="173">
            -47 -17 21 45 hvcurveto
            181 vlineto
            9 4 5 8 vhcurveto
            128 hlineto
            8 4 -5 -9 hvcurveto
            -178 vlineto
            -37 -19 -32 -55 vhcurveto
            return
          </CharString>
          <CharString index="174">
            -52 -19 25 47 hvcurveto
            49 vlineto
            0 8 1 8 1 7 rrcurveto
            154 -137 rlineto
            -11 -4 -12 -3 -15 0 rrcurveto
            return
          </CharString>
          <CharString index="175">
            -9 -4 -5 -8 vhcurveto
            -132 hlineto
            -8 -4 5 9 hvcurveto
            161 vlineto
            9 4 5 8 vhcurveto
            134 hlineto
            7 -1 3 -5 0 -8 rrcurveto
            return
          </CharString>
          <CharString index="176">
            8 4 -5 -9 hvcurveto
            -215 vlineto
            -67 -30 -48 -87 vhcurveto
            -22 hlineto
            -79 -32 38 64 hvcurveto
            17 6 vlineto
            96 47 42 86 hvcurveto
            25 vlineto
            0 37 -18 22 -17 8 rrcurveto
            5 vlineto
            return
          </CharString>
          <CharString index="177">
            -39 -15 -14 -44 vhcurveto
            -70 hlineto
            -17 -7 -8 -16 hvcurveto
            -93 vlineto
            -101 66 -105 146 vhcurveto
            33 hlineto
            59 0 38 20 19 33 rrcurveto
            4 -102 hlineto
            -17 8 -6 16 vhcurveto
            69 hlineto
            16 8 6 17 hvcurveto
            482 vlineto
            9 4 5 8 vhcurveto
            54 hlineto
            18 6 7 17 hvcurveto
            57 vlineto
            16 -6 7 -18 vhcurveto
            -594 hlineto
            -16 -8 -6 -16 hvcurveto
            -58 vlineto
            -17 8 -7 16 vhcurveto
            140 hlineto
            41 18 -18 -38 hvcurveto
            return
          </CharString>
          <CharString index="178">
            -23 -12 -13 -23 vhcurveto
            -74 hlineto
            -18 -12 -12 -17 hvcurveto
            0 -72 29 -38 114 -185 rlineto
            3 -5 7 -8 11 0 rrcurveto
            79 hlineto
            13 8 10 12 hvcurveto
            0 5 -2 7 -4 5 rrcurveto
            -124 196 5 0 rlineto
            73 44 54 77 hvcurveto
            139 vlineto
            9 4 5 8 vhcurveto
            47 hlineto
            18 6 7 17 hvcurveto
            57 vlineto
            16 -6 7 -18 vhcurveto
            -351 hlineto
            -16 -8 -7 -16 hvcurveto
            -57 vlineto
            -17 8 -7 16 vhcurveto
            165 hlineto
            7 -1 3 -5 0 -8 rrcurveto
            return
          </CharString>
          <CharString index="179">
            -9 14 -20 10 -31 0 -58 0 -22 -28 -10 -27 rrcurveto
            return
          </CharString>
          <CharString index="180">
            -16 -8 -8 -15 hvcurveto
            -57 vlineto
            -16 8 -8 16 vhcurveto
            399 hlineto
            7 5 -5 -9 hvcurveto
            -53 vlineto
            0 -9 -5 -3 -7 -2 -26 -7 -21 -12 -15 -16 -26 26 -38 14 -52 0 rrcurveto
            -9 hlineto
            -111 -57 -62 -114 hvcurveto
            -53 vlineto
            -114 57 -62 111 vhcurveto
            9 hlineto
            51 0 38 13 26 26 25 -26 37 -13 51 0 rrcurveto
            12 hlineto
            111 57 62 114 hvcurveto
            53 vlineto
            0 89 -31 54 -71 24 -9 3 -3 3 0 8 rrcurveto
            57 vlineto
            10 4 4 8 vhcurveto
            151 hlineto
            16 8 8 16 hvcurveto
            57 vlineto
            15 -8 8 -16 vhcurveto
            return
          </CharString>
          <CharString index="181">
            -47 -14 -27 -45 vhcurveto
            -6 hlineto
            -45 -14 27 47 hvcurveto
            53 vlineto
            47 14 27 45 vhcurveto
            6 hlineto
            45 14 -27 -47 hvcurveto
            return
          </CharString>
          <CharString index="182">
            -15 -7 -7 -15 hvcurveto
            -65 vlineto
            -15 7 -8 15 vhcurveto
            70 hlineto
            15 7 8 15 hvcurveto
            65 vlineto
            15 -8 7 -14 vhcurveto
            return
          </CharString>
          <CharString index="183">
            7 hlineto
            127 56 65 100 hvcurveto
            83 vlineto
            return
          </CharString>
          <CharString index="184">
            99 -61 49 -94 -100 -55 -49 -99 vhcurveto
            -46 vlineto
            -16 8 -8 17 vhcurveto
            67 hlineto
            15 8 8 16 hvcurveto
            52 vlineto
            28 9 15 31 31 9 -16 -28 vhcurveto
            -90 vlineto
            -40 -28 -21 -49 vhcurveto
            -102 hlineto
            -18 -12 -12 -17 hvcurveto
            0 -72 31 -38 131 -179 rlineto
            3 -5 7 -8 11 0 rrcurveto
            82 hlineto
            13 8 10 12 hvcurveto
            0 5 -2 7 -4 5 rrcurveto
            return
          </CharString>
          <CharString index="185">
            -169 177 157 0 rlineto
            8 4 -5 -9 hvcurveto
            return
          </CharString>
          <CharString index="186">
            -47 -17 21 45 hvcurveto
            0 121 153 -163 rlineto
            -11 -15 -19 -9 -30 0 rrcurveto
            return
          </CharString>
          <CharString index="187">
            7 -1 3 -5 0 -8 rrcurveto
            -28 vlineto
            -10 -5 -4 -8 vhcurveto
            -90 hlineto
            -87 -54 -31 -94 hvcurveto
            0 -58 20 -26 31 -14 rrcurveto
            -4 vlineto
            return
          </CharString>
          <CharString index="188">
            -28 -12 -29 -23 0 -77 rrcurveto
            -11 vlineto
            -106 56 -54 146 vhcurveto
            141 hlineto
            16 8 6 17 hvcurveto
            51 vlineto
            16 -8 7 -16 vhcurveto
            -128 hlineto
            -77 -21 13 51 hvcurveto
            7 vlineto
            1 43 10 25 45 0 rrcurveto
            64 hlineto
            24 9 -8 -24 hvcurveto
            -14 vlineto
            -17 8 -6 16 vhcurveto
            63 hlineto
            16 8 6 17 hvcurveto
            35 vlineto
            65 -44 38 -75 vhcurveto
            -96 hlineto
            return
          </CharString>
          <CharString index="189">
            16 8 6 17 hvcurveto
            482 vlineto
            9 4 5 8 vhcurveto
            54 hlineto
            18 6 7 17 hvcurveto
            57 vlineto
            16 -6 7 -18 vhcurveto
            -249 hlineto
            -17 -7 -7 -16 hvcurveto
            -57 vlineto
            -17 7 -7 17 vhcurveto
            54 hlineto
            8 4 -5 -9 hvcurveto
            -482 vlineto
            -17 8 -6 16 vhcurveto
            return
          </CharString>
          <CharString index="190">
            -15 0 -4 6 -8 13 rrcurveto
            -140 233 rlineto
            -8 13 -10 5 -14 0 rrcurveto
            -81 hlineto
            -12 -7 -9 -10 hvcurveto
            0 -6 2 -6 4 -6 rrcurveto
            52 -79 rlineto
            53 -80 39 -42 84 -79 rrcurveto
            70 47 hlineto
            return
          </CharString>
          <CharString index="191">
            -8 -4 5 9 hvcurveto
            0 70 -42 21 -68 31 rrcurveto
            -50 23 rlineto
            -34 16 -19 13 0 33 rrcurveto
            26 vlineto
            16 -6 7 -18 vhcurveto
            -66 hlineto
            -17 -7 -7 -16 hvcurveto
            -36 vlineto
            0 -58 29 -40 64 -32 rrcurveto
            47 -23 rlineto
            62 -30 8 0 0 -17 rrcurveto
            -8 -4 -3 -8 vhcurveto
            -54 hlineto
            -17 -7 -7 -16 hvcurveto
            -57 vlineto
            -17 7 -7 17 vhcurveto
            54 hlineto
            8 4 -5 -9 hvcurveto
            -482 vlineto
            -17 8 -6 16 vhcurveto
            69 hlineto
            16 8 6 17 hvcurveto
            482 vlineto
            9 4 5 8 vhcurveto
            54 hlineto
            18 6 7 17 hvcurveto
            57 vlineto
            16 -6 7 -18 vhcurveto
            return
          </CharString>
          <CharString index="192">
            -8 -4 5 9 hvcurveto
            233 vlineto
            17 -8 6 -16 vhcurveto
            -64 hlineto
            -16 -8 -7 -16 hvcurveto
            -12 vlineto
            0 -63 16 -79 36 -79 rrcurveto
            -4 -2 -133 238 rlineto
            -7 13 -11 7 -25 0 rrcurveto
            -65 hlineto
            -13 -7 -9 -10 hvcurveto
            0 -6 2 -6 4 -6 rrcurveto
            55 -79 rlineto
            29 -41 56 -68 53 -41 rrcurveto
            -4 -57 vlineto
            -17 -7 -7 -16 hvcurveto
            -57 vlineto
            -17 7 -7 17 vhcurveto
            54 hlineto
            8 4 -5 -9 hvcurveto
            -482 vlineto
            -17 8 -6 16 vhcurveto
            69 hlineto
            16 8 6 17 hvcurveto
            482 vlineto
            9 4 5 8 vhcurveto
            54 hlineto
            18 6 7 17 hvcurveto
            57 vlineto
            16 -6 7 -18 vhcurveto
            return
          </CharString>
          <CharString index="193">
            -12 -6 -8 -10 hvcurveto
            0 -3 1 -4 2 -3 rrcurveto
            89 -150 rlineto
            5 -8 9 -8 12 0 rrcurveto
            76 hlineto
            13 8 10 12 hvcurveto
            0 5 -2 7 -4 5 rrcurveto
            -92 135 rlineto
            -9 13 -10 7 -14 0 rrcurveto
            return
          </CharString>
          <CharString index="194">
            -27 -6 -31 -60 vhcurveto
            -37 hlineto
            -14 -9 -8 -17 hvcurveto
            -55 vlineto
            -16 8 -8 16 vhcurveto
            32 hlineto
            54 16 -27 -54 hvcurveto
            -9 vlineto
            -54 -23 -25 -47 vhcurveto
            -14 hlineto
            -49 -27 20 51 hvcurveto
            26 vlineto
            19 -8 10 -14 vhcurveto
            -68 hlineto
            -17 -8 -10 -19 hvcurveto
            -25 vlineto
            -112 64 -64 112 vhcurveto
            41 hlineto
            117 56 67 109 hvcurveto
            return
          </CharString>
          <CharString index="195">
            -24 -15 -16 -22 0 -31 rrcurveto
            -27 vlineto
            -82 52 -36 87 vhcurveto
            71 hlineto
            22 12 5 22 hvcurveto
            43 vlineto
            16 -9 12 -22 vhcurveto
            -60 hlineto
            -24 -15 10 22 hvcurveto
            9 vlineto
            20 13 15 22 vhcurveto
            45 hlineto
            22 12 5 22 hvcurveto
            43 vlineto
            16 -9 12 -22 vhcurveto
            -40 hlineto
            -24 -15 10 22 hvcurveto
            9 vlineto
            20 13 15 22 vhcurveto
            25 hlineto
            return
          </CharString>
          <CharString index="196">
            -16 -8 -8 -15 hvcurveto
            -57 vlineto
            -16 8 -8 16 vhcurveto
            458 hlineto
            7 -1 3 -5 0 -8 rrcurveto
            -88 -4 vlineto
            return
          </CharString>
          <CharString index="197">
            -17 8 -6 16 vhcurveto
            69 hlineto
            16 8 6 17 hvcurveto
            577 vlineto
            17 -8 6 -16 vhcurveto
            -69 hlineto
            -16 -8 -6 -17 hvcurveto
            return
          </CharString>
          <CharString index="198">
            -7 14 -10 5 -13 0 rrcurveto
            -99 hlineto
            -13 0 -6 -9 9 -11 rrcurveto
            81 -96 rlineto
            7 -8 10 -5 10 0 rrcurveto
            65 hlineto
            13 0 5 6 -7 15 rrcurveto
            return
          </CharString>
          <CharString index="199">
            -14 7 -5 13 vhcurveto
            72 hlineto
            13 7 6 14 hvcurveto
            199 vlineto
            15 -8 5 -10 vhcurveto
            -7 0 -7 -4 -4 -6 rrcurveto
            -53 -101 rlineto
            -13 -25 -10 -20 0 -34 rrcurveto
            return
          </CharString>
          <CharString index="200">
            14 -7 5 -13 vhcurveto
            -72 hlineto
            -14 -6 -6 -14 hvcurveto
            -199 vlineto
            -15 8 -5 9 vhcurveto
            8 0 7 4 4 6 rrcurveto
            53 101 rlineto
            12 25 11 20 0 34 rrcurveto
            return
          </CharString>
          <CharString index="201">
            -18 -5 -7 -17 hvcurveto
            -50 vlineto
            -16 5 -8 18 vhcurveto
            379 hlineto
            18 5 8 16 hvcurveto
            50 vlineto
            17 -5 7 -18 vhcurveto
            return
          </CharString>
          <CharString index="202">
            207 196 -207 hlineto
            return
          </CharString>
          <CharString index="203">
            41 0 15 -17 10 -12 6 -7 5 -6 8 0 5 0 4 1 10 8 rrcurveto
            36 27 rlineto
            11 8 5 7 0 10 0 5 -2 5 -1 2 -24 49 -41 24 -66 0 rrcurveto
            -19 hlineto
            -43 0 -30 -17 -13 -22 rrcurveto
            -4 82 hlineto
            9 4 5 8 vhcurveto
            209 hlineto
            16 8 8 16 hvcurveto
            57 vlineto
            15 -8 8 -16 vhcurveto
            -649 hlineto
            -16 -8 -8 -15 hvcurveto
            -57 vlineto
            -16 8 -8 16 vhcurveto
            302 hlineto
            8 4 -5 -9 hvcurveto
            -258 vlineto
            -40 -21 -23 -43 vhcurveto
            -23 hlineto
            -49 -28 24 48 hvcurveto
            30 vlineto
            48 24 24 49 vhcurveto
            19 hlineto
            16 8 8 15 hvcurveto
            57 vlineto
            16 -8 8 -16 vhcurveto
            -37 hlineto
            -110 0 -59 -64 -1 -106 rrcurveto
            -42 vlineto
            -108 62 -62 108 vhcurveto
            19 hlineto
            43 0 30 17 13 22 rrcurveto
            4 -95 hlineto
            -16 8 -8 15 vhcurveto
            67 hlineto
            16 8 8 16 hvcurveto
            271 vlineto
            40 21 23 43 vhcurveto
            return
          </CharString>
          <CharString index="204">
            59 0 48 31 25 46 1 2 2 5 0 5 0 10 -5 7 -11 8 rrcurveto
            -23 18 rlineto
            -10 8 -4 1 -5 0 -7 0 -4 -4 -5 -6 -11 -12 -12 -20 -46 0 rrcurveto
            -7 hlineto
            -46 -16 16 49 hvcurveto
            23 vlineto
            47 12 16 46 vhcurveto
            7 hlineto
            17 8 6 16 hvcurveto
            56 vlineto
            16 -8 8 -17 vhcurveto
            -19 hlineto
            -108 -51 -62 -87 hvcurveto
            -47 vlineto
            -91 44 -65 100 vhcurveto
            return
          </CharString>
          <CharString index="205">
            -16 -8 -7 -16 hvcurveto
            -57 vlineto
            -17 8 -7 16 vhcurveto
            165 hlineto
            7 -1 3 -5 0 -8 rrcurveto
            -132 vlineto
            -23 -12 -13 -23 vhcurveto
            -74 hlineto
            -18 -12 -12 -17 hvcurveto
            0 -72 29 -38 114 -185 rlineto
            3 -5 7 -8 11 0 rrcurveto
            77 hlineto
            13 8 10 12 hvcurveto
            0 5 -2 7 -4 5 rrcurveto
            -124 196 8 0 rlineto
            71 3 43 52 0 76 rrcurveto
            139 vlineto
            9 4 5 8 vhcurveto
            293 hlineto
            18 6 7 17 hvcurveto
            57 vlineto
            16 -6 7 -18 vhcurveto
            return
          </CharString>
          <CharString index="206">
            18 6 7 17 hvcurveto
            57 vlineto
            16 -6 7 -18 vhcurveto
            -297 hlineto
            -16 -8 -8 -15 hvcurveto
            -57 vlineto
            -16 8 -8 16 vhcurveto
            120 hlineto
            7 -1 3 -5 0 -8 rrcurveto
            -144 vlineto
            -48 -21 -21 -49 vhcurveto
            -5 hlineto
            -16 -8 -8 -16 hvcurveto
            -59 vlineto
            -16 8 -8 16 vhcurveto
            25 hlineto
            109 58 61 110 hvcurveto
            149 vlineto
            9 4 5 8 vhcurveto
            return
          </CharString>
          <CharString index="207">
            -16 -8 -7 -16 hvcurveto
            -56 vlineto
            0 -17 8 -7 16 -1 rrcurveto
            86 -4 hlineto
            -17 -7 -11 -16 0 -25 rrcurveto
            -86 vlineto
            0 -35 20 -29 35 -6 rrcurveto
            -4 vlineto
            -40 -13 -15 -36 0 -43 rrcurveto
            -30 vlineto
            -97 67 -51 102 vhcurveto
            133 hlineto
            110 45 79 75 hvcurveto
            126 vlineto
            85 -41 46 -89 vhcurveto
            -41 hlineto
            -16 -8 -8 -14 hvcurveto
            -58 vlineto
            -16 8 -8 16 vhcurveto
            32 hlineto
            16 10 -11 -14 hvcurveto
            -111 vlineto
            -49 -18 -16 -50 vhcurveto
            -94 hlineto
            -46 -20 12 43 hvcurveto
            16 vlineto
            return
          </CharString>
          <CharString index="208">
            16 1 8 7 0 17 rrcurveto
            60 vlineto
            16 -8 7 -16 vhcurveto
            -285 hlineto
            -15 -8 -7 -14 hvcurveto
            -64 vlineto
            -15 7 -8 17 vhcurveto
            26 hlineto
            42 28 -19 -47 hvcurveto
            -47 vlineto
            -36 -3 -32 -66 vhcurveto
            -66 hlineto
            -16 -8 -8 -16 hvcurveto
            -57 vlineto
            -15 8 -8 16 vhcurveto
            105 hlineto
            95 50 64 97 hvcurveto
            66 vlineto
            0 28 -12 18 -21 8 rrcurveto
            4 vlineto
            return
          </CharString>
          <CharString index="209">
            16 1 8 7 0 17 rrcurveto
            56 vlineto
            16 -8 7 -16 vhcurveto
            -377 hlineto
            -16 -8 -7 -16 hvcurveto
            -57 vlineto
            -17 8 -7 16 vhcurveto
            return
          </CharString>
          <CharString index="210">
            18 6 7 17 hvcurveto
            57 vlineto
            16 -6 7 -18 vhcurveto
            -443 hlineto
            -16 -8 -8 -15 hvcurveto
            -57 vlineto
            -16 8 -8 16 vhcurveto
            44 hlineto
            8 4 -5 -9 hvcurveto
            -199 vlineto
            -103 59 -58 102 vhcurveto
            18 hlineto
            104 58 56 105 hvcurveto
            199 vlineto
            9 4 5 8 vhcurveto
            return
          </CharString>
          <CharString index="211">
            -77 -19 36 57 hvcurveto
            13 32 vlineto
            116 55 51 95 hvcurveto
            67 vlineto
            91 -70 37 -82 vhcurveto
            return
          </CharString>
          <CharString index="212">
            -80 -60 -48 -68 hvcurveto
            -55 vlineto
            -18 8 -6 14 vhcurveto
            64 hlineto
            14 8 6 18 hvcurveto
            41 vlineto
            16 11 14 25 22 15 -12 -18 vhcurveto
            -58 vlineto
            -23 -8 -26 -61 vhcurveto
            -118 hlineto
            return
          </CharString>
          <CharString index="213">
            18 6 7 17 hvcurveto
            57 vlineto
            16 -6 7 -18 vhcurveto
            -198 hlineto
            -16 -8 -8 -15 hvcurveto
            -56 vlineto
            -17 8 -8 16 vhcurveto
            70 -4 hlineto
            return
          </CharString>
          <CharString index="214">
            -16 -8 -7 -16 hvcurveto
            -57 vlineto
            -17 8 -7 16 vhcurveto
            318 hlineto
            18 6 7 17 hvcurveto
            57 vlineto
            16 -6 7 -18 vhcurveto
            return
          </CharString>
          <CharString index="215">
            18 6 7 17 hvcurveto
            58 vlineto
            16 -6 7 -18 vhcurveto
            -164 hlineto
            -73 -51 -46 -71 hvcurveto
            0 -27 2 -23 7 -18 8 -19 13 -15 24 0 rrcurveto
            49 hlineto
            15 7 10 13 hvcurveto
            0 5 -1 5 -1 5 -3 11 -4 12 0 16 rrcurveto
            34 21 3 33 vhcurveto
            return
          </CharString>
          <CharString index="216">
            -52 -19 25 47 hvcurveto
            49 vlineto
            0 6 0 5 1 5 rrcurveto
            149 -133 rlineto
            -9 -3 -11 -1 -12 0 rrcurveto
            return
          </CharString>
          <CharString index="217">
            -79 -32 38 64 hvcurveto
            17 6 vlineto
            96 3 47 39 0 86 rrcurveto
            25 vlineto
            0 37 -18 22 -17 8 rrcurveto
            5 152 vlineto
            18 6 7 17 hvcurveto
            57 vlineto
            16 -6 7 -18 vhcurveto
            -427 hlineto
            -16 -8 -6 -16 hvcurveto
            -58 vlineto
            -17 8 -7 16 vhcurveto
            140 hlineto
            41 18 -18 -38 hvcurveto
            -15 vlineto
            -39 -15 -14 -44 vhcurveto
            -70 hlineto
            -17 -7 -8 -16 hvcurveto
            -93 vlineto
            -101 66 -105 146 vhcurveto
            33 hlineto
            97 0 76 69 25 46 1 2 2 5 0 5 0 10 -5 7 -11 8 rrcurveto
            -28 22 rlineto
            -10 8 -4 1 -5 0 -7 0 -7 -4 -7 -7 -23 -22 -28 -47 -63 0 rrcurveto
            return
          </CharString>
          <CharString index="218">
            7 hlineto
            127 56 65 100 hvcurveto
            83 vlineto
            99 -61 49 -94 -100 -55 -49 -99 vhcurveto
            -46 vlineto
            -16 8 -8 17 vhcurveto
            67 hlineto
            15 8 8 16 hvcurveto
            52 vlineto
            28 9 15 31 31 9 -16 -28 vhcurveto
            -90 vlineto
            -40 -28 -21 -49 vhcurveto
            -102 hlineto
            -18 -12 -12 -17 hvcurveto
            0 -72 31 -38 131 -179 rlineto
            3 -5 7 -8 11 0 rrcurveto
            82 hlineto
            13 8 10 12 hvcurveto
            0 5 -2 7 -4 5 rrcurveto
            return
          </CharString>
          <CharString index="219">
            -47 -17 21 45 hvcurveto
            0 121 155 -164 rlineto
            -16 -13 -19 -10 -27 0 rrcurveto
            return
          </CharString>
          <CharString index="220">
            24 9 -8 -24 hvcurveto
            -14 vlineto
            -17 8 -6 16 vhcurveto
            63 hlineto
            16 8 6 17 hvcurveto
            35 vlineto
            65 -44 38 -75 vhcurveto
            -96 hlineto
            -29 -13 10 33 29 13 11 32 hvcurveto
            138 hlineto
            return
          </CharString>
          <CharString index="221">
            -16 -8 -7 -16 hvcurveto
            -58 vlineto
            -17 8 -6 16 vhcurveto
            288 hlineto
            7 -1 3 -5 0 -8 rrcurveto
            -28 vlineto
            -10 -5 -4 -8 vhcurveto
            -90 hlineto
            -87 -54 -31 -94 hvcurveto
            0 -58 20 -26 31 -14 rrcurveto
            -4 vlineto
            return
          </CharString>
          <CharString index="222">
            -29 -13 10 33 29 13 11 32 hvcurveto
            138 hlineto
            33 26 15 40 hvcurveto
            86 vlineto
            9 4 5 8 vhcurveto
            49 hlineto
            16 8 6 17 hvcurveto
            58 vlineto
            16 -8 7 -16 vhcurveto
            return
          </CharString>
          <CharString index="223">
            -15 -7 -7 -15 hvcurveto
            -50 vlineto
            -15 7 -8 15 vhcurveto
            50 hlineto
            15 7 8 15 hvcurveto
            50 vlineto
            15 -8 7 -14 vhcurveto
            return
          </CharString>
          <CharString index="224">
            50 vlineto
            48 24 23 49 vhcurveto
            11 hlineto
            16 8 8 16 hvcurveto
            56 vlineto
            16 -8 8 -16 vhcurveto
            -31 hlineto
            -109 -61 -61 -110 hvcurveto
            -54 vlineto
            return
          </CharString>
          <CharString index="225">
            52 20 30 51 vhcurveto
            31 hlineto
            16 8 8 16 hvcurveto
            56 vlineto
            16 -8 8 -16 vhcurveto
            -38 hlineto
            -58 0 -30 -28 -19 -39 -13 35 -30 32 -97 0 rrcurveto
            -125 -56 -67 -111 hvcurveto
            -7 vlineto
            -17 8 -7 17 vhcurveto
            70 hlineto
            14 7 7 17 hvcurveto
            5 vlineto
            55 18 19 52 47 14 -18 -56 vhcurveto
            -76 vlineto
            -8 -2 -6 -8 vhcurveto
            -56 hlineto
            -17 -7 -7 -16 hvcurveto
            -57 vlineto
            -17 7 -7 17 vhcurveto
            54 hlineto
            8 4 -5 -9 hvcurveto
            -482 vlineto
            -17 8 -6 16 vhcurveto
            69 hlineto
            16 8 6 17 hvcurveto
            482 vlineto
            9 4 5 8 vhcurveto
            54 hlineto
            18 6 7 17 hvcurveto
            57 vlineto
            16 -6 7 -18 vhcurveto
            -55 hlineto
            -8 -3 6 8 hvcurveto
            return
          </CharString>
          <CharString index="226">
            -15 -7 -7 -15 hvcurveto
            -72 vlineto
            -15 7 -8 15 vhcurveto
            81 hlineto
            15 7 8 15 hvcurveto
            72 vlineto
            15 -8 7 -14 vhcurveto
            return
          </CharString>
          <CharString index="227">
            -68 123 rlineto
            -8 13 -10 5 -14 0 rrcurveto
            -81 hlineto
            -12 -7 -9 -10 hvcurveto
            0 -6 2 -6 4 -6 rrcurveto
            52 -79 rlineto
            36 -55 48 -58 88 -88 rrcurveto
            74 47 hlineto
            -8 -3 5 6 hvcurveto
            80 vlineto
            52 21 23 46 vhcurveto
            17 hlineto
            16 8 8 16 hvcurveto
            56 vlineto
            16 -8 8 -16 vhcurveto
            -34 hlineto
            -82 -57 -41 -90 hvcurveto
            -10 vlineto
            return
          </CharString>
          <CharString index="228">
            -8 -3 5 6 hvcurveto
            39 vlineto
            69 27 48 73 vhcurveto
            7 hlineto
            16 8 8 16 hvcurveto
            55 vlineto
            16 -8 8 -16 vhcurveto
            -11 hlineto
            -67 0 -61 -38 -9 -99 rrcurveto
            -4 114 hlineto
            17 -8 6 -16 vhcurveto
            -59 hlineto
            -16 -8 -7 -16 hvcurveto
            0 -5 0 -5 1 -5 6 -63 43 -78 35 -77 rrcurveto
            -4 -2 -137 238 rlineto
            -7 13 -11 7 -25 0 rrcurveto
            -50 hlineto
            -13 -7 -9 -10 hvcurveto
            0 -6 2 -6 4 -6 rrcurveto
            54 -79 rlineto
            29 -41 50 -68 82 -73 rrcurveto
            111 hlineto
            return
          </CharString>
          <CharString index="229">
            14 11 5 27 0 25 rrcurveto
            98 -53 48 -105 -104 -54 -52 -93 vhcurveto
            0 -34 12 -26 18 -14 rrcurveto
            -4 vlineto
            return
          </CharString>
          <CharString index="230">
            -39 -9 -23 -39 -39 -9 23 39 39 9 23 39 vhcurveto
            39 9 -23 -39 hvcurveto
            return
          </CharString>
          <CharString index="231">
            -16 -8 -8 -14 hvcurveto
            -58 vlineto
            -16 8 -8 16 vhcurveto
            11 hlineto
            7 -1 3 -5 0 -8 rrcurveto
            -90 -116 4 vlineto
            return
          </CharString>
          <CharString index="232">
            -61 -19 -23 -47 0 -84 rrcurveto
            -25 vlineto
            -103 51 -66 116 vhcurveto
            13 hlineto
            33 0 21 13 9 18 rrcurveto
            4 -69 hlineto
            -17 8 -6 16 vhcurveto
            67 hlineto
            16 8 6 17 hvcurveto
            217 vlineto
            17 -8 6 -16 vhcurveto
            -67 hlineto
            -16 -8 -6 -17 hvcurveto
            -27 vlineto
            -32 -18 -16 -27 vhcurveto
            -16 hlineto
            -49 -19 14 48 hvcurveto
            24 vlineto
            46 15 16 47 vhcurveto
            287 -155 hlineto
            -17 8 -6 16 vhcurveto
            69 hlineto
            16 8 6 17 hvcurveto
            56 vlineto
            return
          </CharString>
          <CharString index="233">
            9 4 5 8 vhcurveto
            132 hlineto
            8 4 -5 -9 hvcurveto
            -191 vlineto
            -17 8 -6 16 vhcurveto
            69 hlineto
            16 8 6 17 hvcurveto
            482 vlineto
            9 4 5 8 vhcurveto
            54 hlineto
            18 6 7 17 hvcurveto
            57 vlineto
            16 -6 7 -18 vhcurveto
            return
          </CharString>
          <CharString index="234">
            -39 -9 23 39 39 9 23 39 39 9 -23 -39 -39 -9 -23 -39 hvcurveto
            return
          </CharString>
          <CharString index="235">
            -67 -30 -48 -87 vhcurveto
            -22 hlineto
            -79 -32 38 64 hvcurveto
            17 6 vlineto
            96 47 42 86 hvcurveto
            25 vlineto
            0 37 -18 22 -17 8 rrcurveto
            5 124 vlineto
            8 4 -5 -9 hvcurveto
            return
          </CharString>
          <CharString index="236">
            -101 66 -105 146 vhcurveto
            33 hlineto
            59 0 38 20 19 33 rrcurveto
            4 -102 hlineto
            -17 8 -6 16 vhcurveto
            69 hlineto
            16 8 6 17 hvcurveto
            482 vlineto
            9 4 5 8 vhcurveto
            54 hlineto
            18 6 7 17 hvcurveto
            57 vlineto
            16 -6 7 -18 vhcurveto
            return
          </CharString>
          <CharString index="237">
            -108 64 -62 107 vhcurveto
            30 hlineto
            43 0 36 17 13 22 rrcurveto
            4 -86 hlineto
            -16 8 -8 15 vhcurveto
            70 hlineto
            16 8 8 16 hvcurveto
            481 vlineto
            9 4 5 8 vhcurveto
            54 hlineto
            16 8 8 16 hvcurveto
            57 vlineto
            15 -8 8 -16 vhcurveto
            return
          </CharString>
          <CharString index="238">
            -80 -55 -40 -82 hvcurveto
            -19 vlineto
            -85 42 -43 93 vhcurveto
            56 hlineto
            25 9 -12 -24 hvcurveto
            -19 vlineto
            -27 -10 -11 -24 vhcurveto
            -36 hlineto
            return
          </CharString>
          <CharString index="239">
            -27 -18 10 32 hvcurveto
            4 vlineto
            17 -8 6 -16 vhcurveto
            -67 hlineto
            -16 -8 -6 -17 hvcurveto
            -188 vlineto
            -17 8 -6 16 vhcurveto
            67 hlineto
            16 8 6 17 hvcurveto
            69 4 vlineto
            return
          </CharString>
          <CharString index="240">
            -17 8 -6 16 vhcurveto
            69 hlineto
            16 8 6 17 hvcurveto
            482 vlineto
            9 4 5 8 vhcurveto
            54 hlineto
            18 6 7 17 hvcurveto
            57 vlineto
            16 -6 7 -18 vhcurveto
            return
          </CharString>
          <CharString index="241">
            34 21 3 33 vhcurveto
            108 hlineto
            8 4 -5 -9 hvcurveto
            -259 vlineto
            -17 8 -6 16 vhcurveto
            69 hlineto
            16 8 6 17 hvcurveto
            482 vlineto
            9 4 5 8 vhcurveto
            54 hlineto
            18 6 7 17 hvcurveto
            57 vlineto
            16 -6 7 -18 vhcurveto
            return
          </CharString>
          <CharString index="242">
            -9 -4 -5 -8 vhcurveto
            -154 hlineto
            -9 0 -9 -1 -9 -1 rrcurveto
            return
          </CharString>
          <CharString index="243">
            -23 41 -39 22 -51 0 rrcurveto
            -26 hlineto
            -43 0 -30 -17 -13 -22 rrcurveto
            -4 82 hlineto
            9 4 5 8 vhcurveto
            400 hlineto
            7 -1 3 -5 0 -8 rrcurveto
            return
          </CharString>
          <CharString index="244">
            34 21 3 33 vhcurveto
            108 hlineto
            8 4 -5 -9 hvcurveto
            -219 vlineto
            -17 8 -6 16 vhcurveto
            69 hlineto
            16 8 6 17 hvcurveto
            482 vlineto
            9 4 5 8 vhcurveto
            54 hlineto
            18 6 7 17 hvcurveto
            57 vlineto
            16 -6 7 -18 vhcurveto
            return
          </CharString>
          <CharString index="245">
            34 21 3 33 vhcurveto
            108 hlineto
            8 4 -5 -9 hvcurveto
            -249 vlineto
            -17 8 -6 16 vhcurveto
            69 hlineto
            16 8 6 17 hvcurveto
            482 vlineto
            9 4 5 8 vhcurveto
            54 hlineto
            18 6 7 17 hvcurveto
            57 vlineto
            16 -6 7 -18 vhcurveto
            return
          </CharString>
          <CharString index="246">
            -9 -4 -5 -8 vhcurveto
            -154 hlineto
            -73 -51 -46 -71 hvcurveto
            0 -32 3 -35 17 -20 8 -9 11 -6 15 0 rrcurveto
            49 hlineto
            15 7 10 13 hvcurveto
            0 7 -2 7 -2 9 -2 9 -3 10 0 12 rrcurveto
            34 21 3 33 vhcurveto
            108 hlineto
            8 4 -5 -9 hvcurveto
            -259 vlineto
            -17 8 -6 16 vhcurveto
            69 hlineto
            16 8 6 17 hvcurveto
            482 vlineto
            9 4 5 8 vhcurveto
            54 hlineto
            18 6 7 17 hvcurveto
            57 vlineto
            16 -6 7 -18 vhcurveto
            return
          </CharString>
          <CharString index="247">
            -18 -6 -7 -16 hvcurveto
            -57 vlineto
            -17 6 -7 18 vhcurveto
            239 hlineto
            7 4 -6 -8 hvcurveto
            -28 vlineto
            -9 -4 -5 -8 vhcurveto
            -48 hlineto
            -80 -55 -40 -82 hvcurveto
            -19 vlineto
            -85 42 -43 93 vhcurveto
            56 hlineto
            return
          </CharString>
          <CharString index="248">
            -9 -4 -5 -8 vhcurveto
            -154 hlineto
            return
          </CharString>
          <CharString index="249">
            33 26 15 40 hvcurveto
            115 vlineto
            9 4 5 8 vhcurveto
            78 hlineto
            16 8 8 16 hvcurveto
            57 vlineto
            15 -8 8 -16 vhcurveto
            return
          </CharString>
          <CharString index="250">
            -9 13 -10 7 -14 0 rrcurveto
            -66 hlineto
            -12 -6 -8 -10 hvcurveto
            0 -3 1 -4 2 -3 rrcurveto
            89 -150 rlineto
            5 -8 9 -8 12 0 rrcurveto
            76 hlineto
            13 8 10 12 hvcurveto
            0 5 -2 7 -4 5 rrcurveto
            return
          </CharString>
          <CharString index="251">
            8 -19 13 -15 24 0 rrcurveto
            49 hlineto
            15 7 10 13 hvcurveto
            0 5 -1 5 -1 5 -3 11 -4 12 0 16 rrcurveto
            return
          </CharString>
          <CharString index="252">
            -37 -19 -32 -55 vhcurveto
            -14 hlineto
            -47 -17 21 45 hvcurveto
            181 vlineto
            9 4 5 8 vhcurveto
            128 hlineto
            8 4 -5 -9 hvcurveto
            return
          </CharString>
          <CharString index="253">
            -16 -8 -7 -16 hvcurveto
            -58 vlineto
            -17 8 -6 16 vhcurveto
            358 hlineto
            7 -1 3 -5 0 -8 rrcurveto
            -24 vlineto
            -10 -5 -4 -8 vhcurveto
            -160 hlineto
            -87 -54 -26 -94 hvcurveto
            0 -51 20 -30 31 -14 rrcurveto
            -4 vlineto
            return
          </CharString>
          <CharString index="254">
            0 0 -33 -12 -36 -41 rrcurveto
            -46 -53 rlineto
            -3 -4 -2 -4 0 -4 rrcurveto
            -8 6 -8 12 vhcurveto
            83 hlineto
            13 0 8 4 6 6 8 7 23 26 29 35 21 25 23 29 25 29 rrcurveto
            4 -95 hlineto
            -16 8 -8 15 vhcurveto
            67 hlineto
            16 8 8 16 hvcurveto
            271 vlineto
            40 21 23 43 vhcurveto
            23 hlineto
            49 28 -24 -48 hvcurveto
            -30 vlineto
            -48 -24 -24 -49 vhcurveto
            -19 hlineto
            -16 -8 -8 -15 hvcurveto
            -57 vlineto
            -16 8 -8 16 vhcurveto
            37 hlineto
            110 0 59 64 1 106 rrcurveto
            42 vlineto
            108 -62 62 -108 vhcurveto
            -19 hlineto
            -43 0 -30 -17 -13 -22 rrcurveto
            -4 82 hlineto
            9 4 5 8 vhcurveto
            303 hlineto
            16 8 8 16 hvcurveto
            57 vlineto
            15 -8 8 -16 vhcurveto
            -743 hlineto
            -16 -8 -8 -15 hvcurveto
            -57 vlineto
            -16 8 -8 16 vhcurveto
            302 hlineto
            8 4 -5 -9 hvcurveto
            -258 vlineto
            -40 -21 -23 -43 vhcurveto
            -23 hlineto
            -49 -28 24 48 hvcurveto
            30 vlineto
            48 24 24 49 vhcurveto
            19 hlineto
            16 8 8 15 hvcurveto
            57 vlineto
            16 -8 8 -16 vhcurveto
            -37 hlineto
            -110 0 -59 -64 -1 -106 rrcurveto
            -42 vlineto
            -102 60 -52 68 vhcurveto
            10 hlineto
            return
          </CharString>
          <CharString index="255">
            0 0 -39 -20 -34 -44 rrcurveto
            -53 -67 rlineto
            -3 -4 -2 -5 0 -5 rrcurveto
            -9 5 -8 12 vhcurveto
            80 hlineto
            25 0 9 12 12 17 rrcurveto
            110 151 4 0 0 -115 rlineto
            -17 8 -6 16 vhcurveto
            67 hlineto
            16 8 6 17 hvcurveto
            482 vlineto
            9 4 5 8 vhcurveto
            54 hlineto
            18 6 7 17 hvcurveto
            57 vlineto
            16 -6 7 -18 vhcurveto
            -748 hlineto
            -16 -8 -7 -16 hvcurveto
            -57 vlineto
            -17 8 -7 16 vhcurveto
            165 hlineto
            7 -1 3 -5 0 -8 rrcurveto
            -132 vlineto
            -23 -12 -13 -23 vhcurveto
            -74 hlineto
            -18 -12 -12 -17 hvcurveto
            0 -72 29 -38 114 -185 rlineto
            3 -5 7 -8 11 0 rrcurveto
            77 hlineto
            13 8 10 12 hvcurveto
            0 5 -2 7 -4 5 rrcurveto
            -124 196 6 0 rlineto
            72 44 54 77 hvcurveto
            139 vlineto
            9 4 5 8 vhcurveto
            253 hlineto
            8 4 -5 -9 hvcurveto
            -233 vlineto
            -38 -7 -32 -53 vhcurveto
            -7 hlineto
            -46 -16 16 49 hvcurveto
            23 vlineto
            47 12 16 46 vhcurveto
            7 hlineto
            17 8 6 16 hvcurveto
            56 vlineto
            16 -8 8 -17 vhcurveto
            -19 hlineto
            -108 -51 -62 -87 hvcurveto
            -47 vlineto
            0 -73 31 -59 73 -3 rrcurveto
            7 0 5 0 rlineto
            return
          </CharString>
          <CharString index="256">
            -16 -8 -8 -15 hvcurveto
            -57 vlineto
            -16 8 -8 16 vhcurveto
            120 hlineto
            7 -1 3 -5 0 -8 rrcurveto
            -144 vlineto
            -48 -21 -21 -49 vhcurveto
            -5 hlineto
            -16 -8 -8 -16 hvcurveto
            -59 vlineto
            -16 8 -8 16 vhcurveto
            25 hlineto
            109 58 61 110 hvcurveto
            149 vlineto
            9 4 5 8 vhcurveto
            83 hlineto
            7 -1 3 -5 0 -8 rrcurveto
            0 -210 -269 -281 rlineto
            -3 -4 -2 -4 0 -4 rrcurveto
            -8 6 -8 12 vhcurveto
            86 hlineto
            16 0 11 5 10 11 rrcurveto
            133 146 0 -125 rlineto
            -17 8 -6 16 vhcurveto
            69 hlineto
            16 8 6 17 hvcurveto
            482 vlineto
            9 4 5 8 vhcurveto
            54 hlineto
            18 6 7 17 hvcurveto
            57 vlineto
            16 -6 7 -18 vhcurveto
            return
          </CharString>
          <CharString index="257">
            20 11 -8 -30 hvcurveto
            -21 vlineto
            -28 -11 -9 -20 vhcurveto
            -54 hlineto
            -42 -21 1 41 hvcurveto
            4 vlineto
            19 -8 10 -14 vhcurveto
            -62 hlineto
            -17 -8 -10 -19 hvcurveto
            -4 vlineto
            0 -72 27 -39 45 -18 rrcurveto
            -78 -105 rlineto
            -4 -6 -2 -4 0 -7 rrcurveto
            -11 8 -5 13 vhcurveto
            88 hlineto
            12 0 7 5 5 8 rrcurveto
            66 98 5 0 65 -98 rlineto
            5 -8 7 -5 12 0 rrcurveto
            88 hlineto
            13 8 5 11 hvcurveto
            0 7 -2 4 -4 6 rrcurveto
            -76 103 rlineto
            42 20 25 41 0 56 rrcurveto
            44 vlineto
            78 -50 40 -80 vhcurveto
            -95 hlineto
            return
          </CharString>
          <CharString index="258">
            -16 -8 -7 -16 hvcurveto
            -57 vlineto
            -17 8 -7 16 vhcurveto
            380 hlineto
            7 -1 3 -5 0 -8 rrcurveto
            -47 vlineto
            -9 -4 -5 -8 vhcurveto
            -286 hlineto
            -15 -8 -7 -14 hvcurveto
            -64 vlineto
            -15 7 -8 17 vhcurveto
            26 hlineto
            42 28 -19 -47 hvcurveto
            -17 vlineto
            -36 -3 -32 -66 vhcurveto
            -66 hlineto
            -16 -8 -8 -16 hvcurveto
            -57 vlineto
            -15 8 -8 16 vhcurveto
            105 hlineto
            95 50 64 97 hvcurveto
            36 vlineto
            0 28 -12 18 -21 8 rrcurveto
            4 107 vlineto
            8 4 -5 -9 hvcurveto
            0 -110 -201 -219 rlineto
            -5 -6 -4 -6 0 -8 rrcurveto
            -8 6 -7 12 vhcurveto
            83 hlineto
            13 0 8 4 6 6 10 9 35 43 37 48 rrcurveto
            -45 vlineto
            -17 8 -6 16 vhcurveto
            69 hlineto
            16 8 6 17 hvcurveto
            482 vlineto
            9 4 5 8 vhcurveto
            54 hlineto
            18 6 7 17 hvcurveto
            57 vlineto
            16 -6 7 -18 vhcurveto
            return
          </CharString>
          <CharString index="259">
            -17 -7 -8 -15 hvcurveto
            -57 vlineto
            -16 7 -8 17 vhcurveto
            274 hlineto
            7 4 -6 -8 hvcurveto
            -53 vlineto
            -9 -5 -5 -7 vhcurveto
            -58 hlineto
            -116 -55 -65 -103 hvcurveto
            -67 vlineto
            0 -72 27 -55 56 -27 rrcurveto
            -79 -106 rlineto
            -4 -6 -2 -4 0 -7 rrcurveto
            -11 8 -5 13 vhcurveto
            88 hlineto
            12 0 7 5 5 8 rrcurveto
            66 98 5 0 65 -98 rlineto
            5 -8 7 -5 12 0 rrcurveto
            88 hlineto
            13 8 5 11 hvcurveto
            0 7 -2 4 -4 6 rrcurveto
            -76 102 rlineto
            return
          </CharString>
          <CharString index="260">
            56 23 30 50 0 79 rrcurveto
            4 vlineto
            19 -8 10 -17 vhcurveto
            -62 hlineto
            -14 -8 -10 -19 hvcurveto
            -4 vlineto
            -51 -25 -11 -48 vhcurveto
            -37 hlineto
            -49 -23 17 48 hvcurveto
            70 vlineto
            48 23 17 49 vhcurveto
            113 hlineto
            return
          </CharString>
          <CharString index="261">
            33 26 15 40 hvcurveto
            115 vlineto
            9 4 5 8 vhcurveto
            64 hlineto
            16 8 8 16 hvcurveto
            57 vlineto
            15 -8 8 -16 vhcurveto
            return
          </CharString>
          <CharString index="262">
            27 8 8 23 0 21 rrcurveto
            47 vlineto
            9 4 5 8 vhcurveto
            89 hlineto
            16 8 8 16 hvcurveto
            56 vlineto
            16 -8 8 -16 vhcurveto
            return
          </CharString>
          <CharString index="263">
            47 20 -25 -43 hvcurveto
            -61 vlineto
            -48 -24 -24 -49 vhcurveto
            -40 hlineto
            -49 -24 24 48 hvcurveto
            return
          </CharString>
          <CharString index="264">
            29 21 16 34 hvcurveto
            93 vlineto
            9 4 5 8 vhcurveto
            57 hlineto
            16 8 8 16 hvcurveto
            57 vlineto
            15 -8 8 -16 vhcurveto
            return
          </CharString>
          <CharString index="265">
            -37 -18 -18 -35 vhcurveto
            -4 hlineto
            -38 -16 19 36 hvcurveto
            203 vlineto
            9 4 5 8 vhcurveto
            87 hlineto
            8 4 -5 -9 hvcurveto
            return
          </CharString>
          <CharString index="266">
            -17 -7 -8 -15 hvcurveto
            -57 vlineto
            -16 7 -8 17 vhcurveto
            306 hlineto
            7 4 -5 -8 hvcurveto
            -31 vlineto
            -8 -4 -5 -7 vhcurveto
            -97 hlineto
            -109 -54 -57 -109 hvcurveto
            -66 vlineto
            0 -87 36 -60 81 -17 rrcurveto
            -65 -70 rlineto
            -3 -4 -2 -4 0 -4 rrcurveto
            -8 6 -8 12 vhcurveto
            83 hlineto
            13 0 8 4 6 6 15 14 38 47 42 50 rrcurveto
            3 3 4 0 0 -69 rlineto
            -17 8 -6 16 vhcurveto
            67 hlineto
            16 8 6 17 hvcurveto
            237 vlineto
            17 -8 6 -16 vhcurveto
            -67 hlineto
            -16 -8 -6 -17 hvcurveto
            -47 vlineto
            -32 -18 -16 -27 vhcurveto
            -46 hlineto
            -49 -19 14 48 hvcurveto
            63 vlineto
            47 18 21 45 vhcurveto
            156 hlineto
            29 21 16 34 hvcurveto
            97 vlineto
            9 4 5 8 vhcurveto
            50 hlineto
            16 8 8 16 hvcurveto
            57 vlineto
            15 -8 8 -16 vhcurveto
            return
          </CharString>
          <CharString index="267">
            -16 -8 -7 -16 hvcurveto
            -57 vlineto
            -17 8 -7 16 vhcurveto
            310 hlineto
            7 -1 3 -5 0 -8 rrcurveto
            -90 vlineto
            -9 -4 -5 -8 vhcurveto
            -154 hlineto
            -73 -51 -46 -71 hvcurveto
            0 -32 3 -35 17 -20 8 -9 11 -6 15 0 rrcurveto
            49 hlineto
            15 7 10 13 hvcurveto
            0 7 -2 7 -2 9 -2 9 -3 10 0 12 rrcurveto
            34 21 3 33 vhcurveto
            108 hlineto
            8 4 -5 -9 hvcurveto
            0 -2 -260 -252 rlineto
            -3 -4 -2 -4 0 -4 rrcurveto
            -8 6 -8 12 vhcurveto
            86 hlineto
            16 0 11 5 10 11 rrcurveto
            124 126 0 -119 rlineto
            -17 8 -6 16 vhcurveto
            69 hlineto
            16 8 6 17 hvcurveto
            482 vlineto
            9 4 5 8 vhcurveto
            54 hlineto
            18 6 7 17 hvcurveto
            57 vlineto
            16 -6 7 -18 vhcurveto
            return
          </CharString>
          <CharString index="268">
            -17 8 -6 16 vhcurveto
            69 hlineto
            16 8 6 17 hvcurveto
            272 vlineto
            40 21 23 43 vhcurveto
            23 hlineto
            49 28 -24 -48 hvcurveto
            -30 vlineto
            -48 -24 -24 -49 vhcurveto
            -19 hlineto
            -16 -8 -8 -15 hvcurveto
            -57 vlineto
            -16 8 -8 16 vhcurveto
            37 hlineto
            110 0 59 64 1 106 rrcurveto
            42 vlineto
            108 -62 62 -108 vhcurveto
            -19 hlineto
            -43 0 -30 -17 -13 -22 rrcurveto
            -4 82 hlineto
            9 4 5 8 vhcurveto
            303 hlineto
            18 6 7 17 hvcurveto
            57 vlineto
            16 -6 7 -18 vhcurveto
            -762 hlineto
            -16 -8 -8 -15 hvcurveto
            -56 vlineto
            -17 8 -8 16 vhcurveto
            46 hlineto
            7 -1 3 -5 0 -8 rrcurveto
            -201 vlineto
            -63 36 -71 82 vhcurveto
            12 -4 hlineto
            0 0 -39 -18 -54 -55 rrcurveto
            -63 -65 rlineto
            -3 -4 -2 -4 0 -4 rrcurveto
            -8 6 -8 12 vhcurveto
            86 hlineto
            16 0 11 5 10 11 rrcurveto
            160 176 4 0 rlineto
            return
          </CharString>
          <CharString index="269">
            8 4 -5 -9 hvcurveto
            -215 vlineto
            -67 -30 -48 -87 vhcurveto
            -22 hlineto
            -79 -32 38 64 hvcurveto
            17 9 vlineto
            94 46 43 85 hvcurveto
            25 vlineto
            0 37 -18 22 -17 8 rrcurveto
            5 vlineto
            return
          </CharString>
          <CharString index="270">
            0 0 -49 -20 -48 -37 rrcurveto
            -45 -35 rlineto
            -8 -6 -2 -6 0 -6 rrcurveto
            -8 6 -7 12 vhcurveto
            107 hlineto
            13 0 11 5 9 7 11 9 47 40 50 43 24 21 24 21 21 20 rrcurveto
            4 -102 hlineto
            -17 8 -6 16 vhcurveto
            69 hlineto
            16 8 6 17 hvcurveto
            482 vlineto
            9 4 5 8 vhcurveto
            54 hlineto
            18 6 7 17 hvcurveto
            57 vlineto
            16 -6 7 -18 vhcurveto
            -594 hlineto
            -16 -8 -6 -16 hvcurveto
            -58 vlineto
            -17 8 -7 16 vhcurveto
            140 hlineto
            41 18 -18 -38 hvcurveto
            -15 vlineto
            -39 -15 -14 -44 vhcurveto
            -70 hlineto
            -17 -7 -8 -16 hvcurveto
            -103 vlineto
            -100 73 -80 99 vhcurveto
            6 hlineto
            return
          </CharString>
          <CharString index="271">
            -35 22 -15 22 0 37 rrcurveto
            42 17 12 31 31 18 -12 -42 vhcurveto
            0 -33 -5 -24 -37 -27 rrcurveto
            return
          </CharString>
          <CharString index="272">
            9 11 2 5 0 8 0 9 -4 4 -12 9 rrcurveto
            -28 22 rlineto
            -6 5 -5 1 -3 0 -10 0 -6 -9 -5 -9 -19 -33 -18 -28 -31 0 rrcurveto
            -4 hlineto
            -46 -16 16 49 hvcurveto
            23 vlineto
            47 12 16 46 vhcurveto
            7 hlineto
            17 8 6 16 hvcurveto
            56 vlineto
            16 -8 8 -17 vhcurveto
            -19 hlineto
            -108 -51 -62 -87 hvcurveto
            -47 vlineto
            -75 32 -60 71 vhcurveto
            9 -4 hlineto
            -1 0 -34 -21 -34 -43 rrcurveto
            -53 -67 rlineto
            -3 -4 -2 -5 0 -5 rrcurveto
            -9 5 -8 12 vhcurveto
            80 hlineto
            25 0 10 13 13 16 rrcurveto
            return
          </CharString>
          <CharString index="273">
            9 10 3 7 0 8 0 7 -5 6 -8 8 rrcurveto
            -29 27 rlineto
            -8 7 -4 2 -8 0 -6 0 -7 -4 -6 -7 rrcurveto
            -273 -285 rlineto
            -3 -4 -2 -4 0 -4 rrcurveto
            -8 6 -8 12 vhcurveto
            86 hlineto
            16 0 11 5 10 11 rrcurveto
            return
          </CharString>
          <CharString index="274">
            -5 -6 -4 -6 0 -8 rrcurveto
            -8 6 -7 12 vhcurveto
            83 hlineto
            13 0 8 4 6 6 16 15 90 113 57 72 8 10 3 4 0 8 0 8 -4 4 -7 7 rrcurveto
            -25 23 rlineto
            -8 8 -5 2 -4 0 -8 0 -5 -5 -8 -8 rrcurveto
            return
          </CharString>
          <CharString index="275">
            18 6 7 17 hvcurveto
            61 vlineto
            16 -6 7 -18 vhcurveto
            -296 hlineto
            -15 -8 -7 -14 hvcurveto
            -64 vlineto
            -15 7 -8 17 vhcurveto
            26 hlineto
            42 28 -19 -47 hvcurveto
            -7 vlineto
            -36 -3 -32 -66 vhcurveto
            -66 hlineto
            -16 -8 -8 -16 hvcurveto
            -57 vlineto
            -15 8 -8 16 vhcurveto
            105 hlineto
            95 50 64 97 hvcurveto
            26 vlineto
            0 28 -12 18 -21 8 rrcurveto
            4 vlineto
            return
          </CharString>
          <CharString index="276">
            18 6 7 17 hvcurveto
            57 vlineto
            16 -6 7 -18 vhcurveto
            -387 hlineto
            -16 -8 -7 -16 hvcurveto
            -57 vlineto
            -17 8 -7 16 vhcurveto
            return
          </CharString>
          <CharString index="277">
            -16 -8 -8 -15 hvcurveto
            -56 vlineto
            -17 8 -8 16 vhcurveto
            406 hlineto
            18 6 7 17 hvcurveto
            57 vlineto
            16 -6 7 -18 vhcurveto
            return
          </CharString>
          <CharString index="278">
            -16 -8 -8 -15 hvcurveto
            -56 vlineto
            -17 8 -8 16 vhcurveto
            386 hlineto
            18 6 7 17 hvcurveto
            57 vlineto
            16 -6 7 -18 vhcurveto
            return
          </CharString>
          <CharString index="279">
            -16 -8 -8 -15 hvcurveto
            -57 vlineto
            -16 8 -8 16 vhcurveto
            302 hlineto
            8 4 -5 -9 hvcurveto
            -258 vlineto
            -40 -21 -23 -43 vhcurveto
            -23 hlineto
            -49 -28 24 48 hvcurveto
            30 vlineto
            48 24 24 49 vhcurveto
            19 hlineto
            16 8 8 15 hvcurveto
            57 vlineto
            16 -8 8 -16 vhcurveto
            -37 hlineto
            -110 0 -59 -64 -1 -106 rrcurveto
            -42 vlineto
            -108 62 -62 108 vhcurveto
            19 hlineto
            return
          </CharString>
          <CharString index="280">
            43 0 30 17 13 22 rrcurveto
            4 -95 hlineto
            -16 8 -8 15 vhcurveto
            67 hlineto
            16 8 8 16 hvcurveto
            271 vlineto
            40 21 23 43 vhcurveto
            23 hlineto
            49 28 -24 -48 hvcurveto
            -30 vlineto
            return
          </CharString>
          <CharString index="281">
            -48 -24 -24 -49 vhcurveto
            -19 hlineto
            -16 -8 -8 -15 hvcurveto
            -57 vlineto
            -16 8 -8 16 vhcurveto
            37 hlineto
            110 0 59 64 1 106 rrcurveto
            42 vlineto
            108 -62 62 -108 vhcurveto
            -19 hlineto
            return
          </CharString>
          <CharString index="282">
            -43 0 -30 -17 -13 -22 rrcurveto
            -4 82 hlineto
            9 4 5 8 vhcurveto
            303 hlineto
            16 8 8 16 hvcurveto
            57 vlineto
            15 -8 8 -16 vhcurveto
            return
          </CharString>
          <CharString index="283">
            -40 -21 -23 -43 vhcurveto
            -23 hlineto
            -49 -28 24 48 hvcurveto
            30 vlineto
            return
          </CharString>
          <CharString index="284">
            32 2 28 11 14 22 rrcurveto
            4 -115 hlineto
            -17 8 -6 16 vhcurveto
            67 hlineto
            16 8 6 17 hvcurveto
            482 vlineto
            9 4 5 8 vhcurveto
            54 hlineto
            18 6 7 17 hvcurveto
            57 vlineto
            16 -6 7 -18 vhcurveto
            return
          </CharString>
          <CharString index="285">
            -16 -8 -8 -15 hvcurveto
            -57 vlineto
            -16 8 -8 16 vhcurveto
            302 hlineto
            8 4 -5 -9 hvcurveto
            -258 vlineto
            -40 -21 -23 -43 vhcurveto
            -23 hlineto
            -49 -28 24 48 hvcurveto
            30 vlineto
            48 24 24 49 vhcurveto
            19 hlineto
            16 8 8 15 hvcurveto
            return
          </CharString>
          <CharString index="286">
            -103 55 -69 116 vhcurveto
            63 hlineto
            110 60 54 112 hvcurveto
            4 vlineto
            19 -8 10 -17 vhcurveto
            -62 hlineto
            -14 -8 -10 -19 hvcurveto
            -4 vlineto
            -51 -25 -11 -48 vhcurveto
            -37 hlineto
            -49 -23 17 48 hvcurveto
            70 vlineto
            48 23 17 49 vhcurveto
            113 hlineto
            return
          </CharString>
          <CharString index="287">
            -103 51 -66 116 vhcurveto
            43 hlineto
            33 0 21 13 9 18 rrcurveto
            4 -69 hlineto
            -17 8 -6 16 vhcurveto
            67 hlineto
            16 8 6 17 hvcurveto
            237 vlineto
            17 -8 6 -16 vhcurveto
            -67 hlineto
            -16 -8 -6 -17 hvcurveto
            -47 vlineto
            -32 -18 -16 -27 vhcurveto
            -46 hlineto
            -49 -19 14 48 hvcurveto
            63 vlineto
            47 18 21 45 vhcurveto
            156 hlineto
            29 21 16 34 hvcurveto
            97 vlineto
            9 4 5 8 vhcurveto
            50 hlineto
            16 8 8 16 hvcurveto
            57 vlineto
            15 -8 8 -16 vhcurveto
            return
          </CharString>
          <CharString index="288">
            -16 -8 -8 -15 hvcurveto
            -57 vlineto
            -16 8 -8 16 vhcurveto
            302 hlineto
            8 4 -5 -9 hvcurveto
            -258 vlineto
            -40 -21 -23 -43 vhcurveto
            -23 hlineto
            -49 -28 24 48 hvcurveto
            30 vlineto
            48 24 24 49 vhcurveto
            19 hlineto
            16 8 8 15 hvcurveto
            57 vlineto
            16 -8 8 -16 vhcurveto
            -37 hlineto
            -110 0 -59 -64 -1 -106 rrcurveto
            -42 vlineto
            -108 62 -62 108 vhcurveto
            19 hlineto
            43 0 30 17 13 22 rrcurveto
            4 -95 hlineto
            -16 8 -8 15 vhcurveto
            67 hlineto
            16 8 8 16 hvcurveto
            251 vlineto
            return
          </CharString>
          <CharString index="289">
            -43 0 -30 -17 -13 -22 rrcurveto
            -4 102 hlineto
            9 4 5 8 vhcurveto
            114 hlineto
            7 -1 3 -5 0 -8 rrcurveto
            -63 vlineto
            return
          </CharString>
          <CharString index="290">
            -37 -19 -32 -55 vhcurveto
            -19 hlineto
            -47 -17 21 45 hvcurveto
            181 vlineto
            9 4 5 8 vhcurveto
            133 hlineto
            8 4 -5 -9 hvcurveto
            return
          </CharString>
          <CharString index="291">
            40 21 23 43 vhcurveto
            23 hlineto
            49 28 -24 -48 hvcurveto
            -30 vlineto
            -48 -24 -24 -49 vhcurveto
            -19 hlineto
            -16 -8 -8 -15 hvcurveto
            -57 vlineto
            -16 8 -8 16 vhcurveto
            37 hlineto
            110 0 59 64 1 106 rrcurveto
            42 vlineto
            108 -62 62 -108 vhcurveto
            -19 hlineto
            -43 0 -30 -17 -13 -22 rrcurveto
            -4 82 hlineto
            9 4 5 8 vhcurveto
            303 hlineto
            16 8 8 16 hvcurveto
            57 vlineto
            15 -8 8 -16 vhcurveto
            return
          </CharString>
          <CharString index="292">
            -43 0 -30 -17 -13 -22 rrcurveto
            -4 133 hlineto
            9 4 5 8 vhcurveto
            205 hlineto
            41 18 -13 -38 hvcurveto
            -4 vlineto
            -39 -15 -14 -44 vhcurveto
            return
          </CharString>
          <CharString index="293">
            -67 -30 -48 -87 vhcurveto
            -22 hlineto
            -79 -32 38 64 hvcurveto
            33 6 vlineto
            96 47 42 86 hvcurveto
            9 vlineto
            0 37 -18 22 -17 8 rrcurveto
            5 124 vlineto
            8 4 -5 -9 hvcurveto
            return
          </CharString>
          <CharString index="294">
            -29 -16 -20 -26 hvcurveto
            -554 vlineto
            -17 8 -6 16 vhcurveto
            69 hlineto
            16 8 6 17 hvcurveto
            482 vlineto
            9 4 5 8 vhcurveto
            54 hlineto
            18 6 7 17 hvcurveto
            57 vlineto
            16 -6 7 -18 vhcurveto
            return
          </CharString>
          <CharString index="295">
            -16 8 -8 17 vhcurveto
            67 hlineto
            15 8 8 16 hvcurveto
            17 vlineto
            return
          </CharString>
          <CharString index="296">
            28 9 15 31 31 9 -16 -28 vhcurveto
            -90 vlineto
            -40 -28 -21 -49 vhcurveto
            -53 hlineto
            return
          </CharString>
          <CharString index="297">
            -156 190 19 0 rlineto
            127 56 65 100 hvcurveto
            83 vlineto
            99 -61 49 -94 -100 -55 -49 -99 vhcurveto
            return
          </CharString>
          <CharString index="298">
            -23 -12 -13 -23 vhcurveto
            -4 hlineto
            -12 82 -51 43 -73 0 rrcurveto
            -7 hlineto
            -45 0 -30 -17 -13 -22 rrcurveto
            -4 82 hlineto
            9 4 5 8 vhcurveto
            250 hlineto
            8 4 -5 -9 hvcurveto
            return
          </CharString>
          <CharString index="299">
            -9 -4 -5 -8 vhcurveto
            return
          </CharString>
          <CharString index="300">
            13 14 2 18 0 33 rrcurveto
            99 vlineto
            9 4 5 8 vhcurveto
            116 hlineto
            8 4 -5 -9 hvcurveto
            return
          </CharString>
          <CharString index="301">
            -16 -8 -7 -16 hvcurveto
            -57 vlineto
            -17 8 -7 16 vhcurveto
            165 hlineto
            7 -1 3 -5 0 -8 rrcurveto
            -132 vlineto
            -23 -12 -13 -23 vhcurveto
            -74 hlineto
            -18 -12 -12 -17 hvcurveto
            0 -72 29 -38 114 -185 rlineto
            3 -5 7 -8 11 0 rrcurveto
            77 hlineto
            13 8 10 12 hvcurveto
            0 5 -2 7 -4 5 rrcurveto
            -124 196 8 0 rlineto
            71 3 43 52 0 76 rrcurveto
            139 vlineto
            9 4 5 8 vhcurveto
            547 hlineto
            7 -1 3 -5 0 -8 rrcurveto
            -54 vlineto
            -9 -4 -5 -8 vhcurveto
            -106 hlineto
            -109 -64 -61 -109 hvcurveto
            -65 -78 vlineto
            -46 -16 16 49 hvcurveto
            23 vlineto
            return
          </CharString>
          <CharString index="302">
            47 12 16 46 vhcurveto
            7 hlineto
            17 8 6 16 hvcurveto
            56 vlineto
            16 -8 8 -17 vhcurveto
            -19 hlineto
            -108 -51 -62 -87 hvcurveto
            -47 vlineto
            -91 44 -65 100 vhcurveto
            117 hlineto
            17 -68 46 -35 84 0 rrcurveto
            39 hlineto
            16 8 8 16 hvcurveto
            52 vlineto
            16 -8 8 -16 vhcurveto
            -9 hlineto
            -56 1 -12 18 0 50 rrcurveto
            91 vlineto
            return
          </CharString>
          <CharString index="303">
            48 24 22 49 vhcurveto
            89 hlineto
            8 4 -5 -9 hvcurveto
            -293 vlineto
            -17 8 -6 16 vhcurveto
            69 hlineto
            16 8 6 17 hvcurveto
            482 vlineto
            9 4 5 8 vhcurveto
            54 hlineto
            18 6 7 17 hvcurveto
            57 vlineto
            16 -6 7 -18 vhcurveto
            return
          </CharString>
          <CharString index="304">
            -16 -8 -7 -16 hvcurveto
            -57 vlineto
            -17 8 -7 16 vhcurveto
            165 hlineto
            7 -1 3 -5 0 -8 rrcurveto
            -132 vlineto
            -23 -12 -13 -23 vhcurveto
            -74 hlineto
            -18 -12 -12 -17 hvcurveto
            0 -72 29 -38 114 -185 rlineto
            3 -5 7 -8 11 0 rrcurveto
            77 hlineto
            13 8 10 12 hvcurveto
            0 5 -2 7 -4 5 rrcurveto
            -124 196 8 0 rlineto
            71 3 43 52 0 76 rrcurveto
            139 vlineto
            9 4 5 8 vhcurveto
            269 hlineto
            7 -1 3 -5 0 -8 rrcurveto
            -271 vlineto
            0 -3 0 -2 1 -2 rrcurveto
            -1 hlineto
            -29 -18 -18 -38 vhcurveto
            -26 hlineto
            -52 -19 25 47 hvcurveto
            38 vlineto
            47 12 16 46 vhcurveto
            7 hlineto
            17 8 6 16 hvcurveto
            56 vlineto
            16 -8 8 -17 vhcurveto
            -19 hlineto
            -108 -51 -62 -87 hvcurveto
            -54 vlineto
            -108 66 -62 107 vhcurveto
            51 hlineto
            121 0 37 76 1 74 rrcurveto
            0 2 0 10 rlineto
            return
          </CharString>
          <CharString index="305">
            9 4 5 8 vhcurveto
            132 hlineto
            8 4 -5 -9 hvcurveto
            -221 vlineto
            -17 8 -6 16 vhcurveto
            69 hlineto
            16 8 6 17 hvcurveto
            482 vlineto
            9 4 5 8 vhcurveto
            54 hlineto
            18 6 7 17 hvcurveto
            57 vlineto
            16 -6 7 -18 vhcurveto
            return
          </CharString>
          <CharString index="306">
            -9 -4 -5 -8 vhcurveto
            -132 hlineto
            -8 -4 5 9 hvcurveto
            131 vlineto
            9 4 5 8 vhcurveto
            134 hlineto
            7 -1 3 -5 0 -8 rrcurveto
            return
          </CharString>
          <CharString index="307">
            -16 -8 -7 -16 hvcurveto
            -57 vlineto
            -17 8 -7 16 vhcurveto
            165 hlineto
            7 -1 3 -5 0 -8 rrcurveto
            -132 vlineto
            -23 -12 -13 -23 vhcurveto
            -74 hlineto
            -18 -12 -12 -17 hvcurveto
            0 -72 29 -38 114 -185 rlineto
            3 -5 7 -8 11 0 rrcurveto
            77 hlineto
            13 8 10 12 hvcurveto
            0 5 -2 7 -4 5 rrcurveto
            -124 196 8 0 rlineto
            71 3 43 52 0 76 rrcurveto
            139 vlineto
            9 4 5 8 vhcurveto
            358 hlineto
            41 18 -18 -38 hvcurveto
            -15 vlineto
            -39 -15 -14 -44 vhcurveto
            -70 hlineto
            -17 -7 -8 -16 hvcurveto
            -93 vlineto
            0 -13 1 -14 2 -13 rrcurveto
            -3 -4 rlineto
            -11 -12 -12 -20 -46 0 rrcurveto
            -7 hlineto
            -46 -16 16 49 hvcurveto
            23 vlineto
            47 12 16 46 vhcurveto
            7 hlineto
            17 8 6 16 hvcurveto
            56 vlineto
            16 -8 8 -17 vhcurveto
            -19 hlineto
            -108 -51 -62 -87 hvcurveto
            -47 vlineto
            -91 44 -65 100 vhcurveto
            46 hlineto
            42 0 37 16 27 26 rrcurveto
            return
          </CharString>
          <CharString index="308">
            34 -43 55 -30 78 0 rrcurveto
            33 hlineto
            59 0 38 20 19 33 rrcurveto
            4 -102 hlineto
            -17 8 -6 16 vhcurveto
            69 hlineto
            16 8 6 17 hvcurveto
            482 vlineto
            9 4 5 8 vhcurveto
            54 hlineto
            18 6 7 17 hvcurveto
            57 vlineto
            16 -6 7 -18 vhcurveto
            return
          </CharString>
          <CharString index="309">
            -16 8 -8 17 vhcurveto
            67 hlineto
            15 8 8 16 hvcurveto
            52 vlineto
            return
          </CharString>
          <CharString index="310">
            28 9 15 31 31 9 -16 -28 vhcurveto
            -90 vlineto
            -40 -28 -21 -49 vhcurveto
            -102 hlineto
            -18 -12 -12 -17 hvcurveto
            -70 vlineto
            -11 -12 -13 -18 -43 0 rrcurveto
            -7 hlineto
            -46 -16 16 49 hvcurveto
            23 vlineto
            47 12 16 46 vhcurveto
            7 hlineto
            17 8 6 16 hvcurveto
            56 vlineto
            16 -8 8 -17 vhcurveto
            -19 hlineto
            -108 -51 -62 -87 hvcurveto
            -47 vlineto
            -91 44 -65 100 vhcurveto
            46 hlineto
            48 0 41 21 27 32 rrcurveto
            105 -143 rlineto
            3 -5 7 -8 11 0 rrcurveto
            82 hlineto
            13 8 10 12 hvcurveto
            0 5 -2 7 -4 5 rrcurveto
            -146 190 7 0 rlineto
            127 56 65 100 hvcurveto
            83 vlineto
            99 -61 49 -94 -100 -55 -49 -99 vhcurveto
            return
          </CharString>
          <CharString index="311">
            9 4 5 8 vhcurveto
            192 hlineto
            18 6 7 17 hvcurveto
            57 vlineto
            16 -6 7 -18 vhcurveto
            -494 hlineto
            -16 -8 -7 -16 hvcurveto
            -57 vlineto
            -17 8 -7 16 vhcurveto
            165 hlineto
            7 -1 3 -5 0 -8 rrcurveto
            -132 vlineto
            -23 -12 -13 -23 vhcurveto
            -74 hlineto
            -18 -12 -12 -17 hvcurveto
            0 -72 29 -38 114 -185 rlineto
            3 -5 7 -8 11 0 rrcurveto
            77 hlineto
            13 8 10 12 hvcurveto
            0 5 -2 7 -4 5 rrcurveto
            -124 196 8 0 rlineto
            71 3 43 52 0 76 rrcurveto
            return
          </CharString>
          <CharString index="312">
            -9 14 -20 10 -31 0 -58 0 -22 -28 -10 -27 rrcurveto
            -4 hlineto
            -15 35 -27 22 -67 0 rrcurveto
            -95 -62 -61 -110 hvcurveto
            -77 vlineto
            -109 61 -61 109 vhcurveto
            24 hlineto
            16 8 7 17 hvcurveto
            57 vlineto
            16 -8 7 -16 vhcurveto
            -6 hlineto
            -49 -24 23 49 hvcurveto
            63 vlineto
            48 14 24 37 32 16 -15 -44 vhcurveto
            -61 vlineto
            -16 8 -8 16 vhcurveto
            64 hlineto
            16 8 8 16 hvcurveto
            52 vlineto
            51 15 15 34 35 14 -14 -47 vhcurveto
            -250 vlineto
            -17 8 -6 16 vhcurveto
            69 hlineto
            16 8 6 17 hvcurveto
            482 vlineto
            9 4 5 8 vhcurveto
            54 hlineto
            18 6 7 17 hvcurveto
            57 vlineto
            16 -6 7 -18 vhcurveto
            return
          </CharString>
          <CharString index="313">
            -9 -4 -5 -8 vhcurveto
            -132 hlineto
            -8 -4 5 9 hvcurveto
            138 vlineto
            9 4 5 8 vhcurveto
            134 hlineto
            7 -1 3 -5 0 -8 rrcurveto
            return
          </CharString>
          <CharString index="314">
            -87 51 -69 140 vhcurveto
            23 hlineto
            59 0 35 20 20 33 rrcurveto
            4 -60 hlineto
            -17 8 -6 16 vhcurveto
            69 hlineto
            16 8 6 17 hvcurveto
            482 vlineto
            9 4 5 8 vhcurveto
            56 hlineto
            18 6 7 17 hvcurveto
            57 vlineto
            16 -6 7 -18 vhcurveto
            return
          </CharString>
          <CharString index="315">
            14 24 8 28 0 29 rrcurveto
            60 vlineto
            0 55 -17 38 -36 21 rrcurveto
            return
          </CharString>
          <CharString index="316">
            18 15 13 24 0 34 rrcurveto
            38 vlineto
            9 5 3 9 vhcurveto
            58 hlineto
            16 1 8 7 0 17 rrcurveto
            56 vlineto
            16 -8 7 -16 vhcurveto
            return
          </CharString>
          <CharString index="317">
            31 14 16 33 vhcurveto
            22 hlineto
            16 8 8 14 hvcurveto
            56 vlineto
            16 -8 8 -16 vhcurveto
            -32 hlineto
            -23 -14 13 23 hvcurveto
            66 vlineto
            31 16 18 32 vhcurveto
            138 hlineto
            9 -1 4 -3 0 -9 rrcurveto
            -60 vlineto
            return
          </CharString>
          <CharString index="318">
            0 -12 -2 -11 -3 -10 rrcurveto
            -24 hlineto
            -16 -8 -8 -14 hvcurveto
            -58 vlineto
            -16 8 -8 16 vhcurveto
            32 hlineto
            16 10 -11 -14 hvcurveto
            -65 vlineto
            -49 -18 -16 -50 vhcurveto
            -94 hlineto
            -46 -20 12 43 hvcurveto
            return
          </CharString>
          <CharString index="319">
            -54 -19 17 35 34 14 24 32 hvcurveto
            77 hlineto
            17 0 17 2 16 4 rrcurveto
            -54 vlineto
            -34 -13 -28 -60 vhcurveto
            return
          </CharString>
          <CharString index="320">
            -108 62 -62 108 vhcurveto
            19 hlineto
            43 0 30 17 13 22 rrcurveto
            4 -95 hlineto
            -16 8 -8 15 vhcurveto
            67 hlineto
            16 8 8 16 hvcurveto
            271 vlineto
            40 21 23 43 vhcurveto
            23 hlineto
            49 28 -24 -48 hvcurveto
            -30 vlineto
            -48 -24 -24 -49 vhcurveto
            -19 hlineto
            -16 -8 -8 -15 hvcurveto
            -57 vlineto
            -16 8 -8 16 vhcurveto
            37 hlineto
            110 0 59 64 1 106 rrcurveto
            42 vlineto
            108 -62 62 -108 vhcurveto
            -19 hlineto
            -43 0 -30 -17 -13 -22 rrcurveto
            -4 82 hlineto
            9 4 5 8 vhcurveto
            303 hlineto
            16 8 8 16 hvcurveto
            57 vlineto
            15 -8 8 -16 vhcurveto
            return
          </CharString>
          <CharString index="321">
            16 1 8 7 0 17 rrcurveto
            60 vlineto
            16 -8 7 -16 vhcurveto
            -259 hlineto
            -15 -8 -7 -14 hvcurveto
            -64 vlineto
            -15 7 -8 17 vhcurveto
            26 hlineto
            42 28 -19 -47 hvcurveto
            -47 vlineto
            -36 -3 -32 -66 vhcurveto
            -66 hlineto
            -16 -8 -8 -16 hvcurveto
            -57 vlineto
            -15 8 -8 16 vhcurveto
            105 hlineto
            95 50 64 97 hvcurveto
            66 vlineto
            0 28 -12 18 -21 8 rrcurveto
            4 vlineto
            return
          </CharString>
          <CharString index="322">
            -27 -10 -11 -24 vhcurveto
            -36 hlineto
            -27 -18 10 32 hvcurveto
            4 vlineto
            17 -8 6 -16 vhcurveto
            -67 hlineto
            -16 -8 -6 -17 hvcurveto
            -188 vlineto
            -17 8 -6 16 vhcurveto
            67 hlineto
            16 8 6 17 hvcurveto
            return
          </CharString>
          <CharString index="323">
            33 26 15 40 hvcurveto
            90 vlineto
            9 4 5 8 vhcurveto
            64 hlineto
            16 8 6 17 hvcurveto
            58 vlineto
            16 -8 7 -16 vhcurveto
            return
          </CharString>
          <CharString index="324">
            -114 46 -59 109 vhcurveto
            39 hlineto
            16 8 8 16 hvcurveto
            52 vlineto
            16 -8 8 -16 vhcurveto
            -9 hlineto
            -56 1 -12 18 0 50 rrcurveto
            91 vlineto
            48 24 22 49 vhcurveto
            89 hlineto
            8 4 -5 -9 hvcurveto
            -293 vlineto
            -17 8 -6 16 vhcurveto
            69 hlineto
            16 8 6 17 hvcurveto
            482 vlineto
            9 4 5 8 vhcurveto
            54 hlineto
            18 6 7 17 hvcurveto
            57 vlineto
            16 -6 7 -18 vhcurveto
            return
          </CharString>
          <CharString index="325">
            -108 64 -62 107 vhcurveto
            40 hlineto
            43 0 36 17 13 22 rrcurveto
            4 -86 hlineto
            -16 8 -8 15 vhcurveto
            70 hlineto
            16 8 8 16 hvcurveto
            481 vlineto
            9 4 5 8 vhcurveto
            54 hlineto
            16 8 8 16 hvcurveto
            57 vlineto
            15 -8 8 -16 vhcurveto
            return
          </CharString>
          <CharString index="326">
            -16 -8 -7 -16 hvcurveto
            -57 vlineto
            -17 8 -7 16 vhcurveto
            468 hlineto
            41 18 -18 -38 hvcurveto
            -15 vlineto
            -38 -15 -15 -42 vhcurveto
            -18 28 -29 16 -44 0 rrcurveto
            -287 hlineto
            -15 -8 -7 -14 hvcurveto
            -64 vlineto
            -15 7 -8 17 vhcurveto
            26 hlineto
            42 28 -19 -47 hvcurveto
            -47 vlineto
            -36 -3 -32 -66 vhcurveto
            -66 hlineto
            -16 -8 -8 -16 hvcurveto
            -57 vlineto
            -15 8 -8 16 vhcurveto
            105 hlineto
            95 50 64 97 hvcurveto
            66 vlineto
            0 28 -12 18 -21 8 rrcurveto
            4 73 vlineto
            24 6 -10 -21 hvcurveto
            -22 vlineto
            return
          </CharString>
          <CharString index="327">
            -48 -24 -24 -49 vhcurveto
            -39 hlineto
            -49 -24 24 48 hvcurveto
            10 vlineto
            48 20 20 49 vhcurveto
            49 hlineto
            47 20 -25 -43 hvcurveto
            return
          </CharString>
          <CharString index="328">
            -17 8 -6 16 vhcurveto
            69 hlineto
            16 8 6 17 hvcurveto
            482 vlineto
            9 4 5 8 vhcurveto
            56 hlineto
            18 6 7 17 hvcurveto
            56 vlineto
            17 -6 7 -18 vhcurveto
            return
          </CharString>
          <CharString index="329">
            -48 -24 -24 -49 vhcurveto
            -40 hlineto
            -49 -24 24 48 hvcurveto
            61 vlineto
            48 20 20 49 vhcurveto
            50 hlineto
            47 20 -25 -43 hvcurveto
            return
          </CharString>
          <CharString index="330">
            -16 -8 -7 -16 hvcurveto
            -58 vlineto
            -17 8 -6 16 vhcurveto
            285 hlineto
            7 4 -6 -8 hvcurveto
            -18 vlineto
            -9 -5 -5 -7 vhcurveto
            -98 hlineto
            -80 -55 -40 -82 hvcurveto
            -16 vlineto
            -85 42 -33 93 vhcurveto
            114 hlineto
            return
          </CharString>
          <CharString index="331">
            33 26 15 40 hvcurveto
            80 vlineto
            9 4 5 8 vhcurveto
            74 hlineto
            16 8 6 17 hvcurveto
            58 vlineto
            16 -8 7 -16 vhcurveto
            return
          </CharString>
          <CharString index="332">
            110 60 54 112 hvcurveto
            4 vlineto
            19 -8 10 -17 vhcurveto
            -62 hlineto
            -14 -8 -10 -19 hvcurveto
            -4 vlineto
            -51 -25 -11 -48 vhcurveto
            -37 hlineto
            -49 -23 17 48 hvcurveto
            70 vlineto
            48 23 17 49 vhcurveto
            113 hlineto
            return
          </CharString>
          <CharString index="333">
            -108 62 -62 108 vhcurveto
            19 hlineto
            43 0 30 17 13 22 rrcurveto
            4 -95 hlineto
            return
          </CharString>
          <CharString index="334">
            -48 -24 -24 -49 vhcurveto
            -19 hlineto
            -16 -8 -8 -15 hvcurveto
            -57 vlineto
            -16 8 -8 16 vhcurveto
            37 hlineto
            110 0 59 64 1 106 rrcurveto
            42 vlineto
            108 -62 62 -108 vhcurveto
            -19 hlineto
            -43 0 -30 -17 -13 -22 rrcurveto
            -4 82 hlineto
            9 4 5 8 vhcurveto
            303 hlineto
            16 8 8 16 hvcurveto
            57 vlineto
            15 -8 8 -16 vhcurveto
            return
          </CharString>
          <CharString index="335">
            -101 66 -105 146 vhcurveto
            33 hlineto
            59 0 38 20 19 33 rrcurveto
            4 -102 hlineto
            return
          </CharString>
          <CharString index="336">
            -67 -30 -48 -87 vhcurveto
            -22 hlineto
            -79 -32 38 64 hvcurveto
            24 6 vlineto
            96 47 42 86 hvcurveto
            18 vlineto
            0 37 -18 22 -17 8 rrcurveto
            5 124 vlineto
            8 4 -5 -9 hvcurveto
            return
          </CharString>
          <CharString index="337">
            -108 64 -62 107 vhcurveto
            30 hlineto
            43 0 36 17 13 22 rrcurveto
            4 -86 hlineto
            return
          </CharString>
          <CharString index="338">
            -16 8 -8 15 vhcurveto
            70 hlineto
            16 8 8 16 hvcurveto
            481 vlineto
            9 4 5 8 vhcurveto
            54 hlineto
            16 8 8 16 hvcurveto
            57 vlineto
            15 -8 8 -16 vhcurveto
            return
          </CharString>
          <CharString index="339">
            -16 -8 -7 -16 hvcurveto
            -57 vlineto
            -17 8 -7 16 vhcurveto
            444 hlineto
            8 4 -5 -9 hvcurveto
            -132 vlineto
            -23 -12 -13 -23 vhcurveto
            -11 hlineto
            return
          </CharString>
          <CharString index="340">
            -12 62 -45 38 -74 0 rrcurveto
            -57 hlineto
            -109 -64 -61 -109 hvcurveto
            -94 vlineto
            -114 46 -59 109 vhcurveto
            39 hlineto
            16 8 8 16 hvcurveto
            52 vlineto
            16 -8 8 -16 vhcurveto
            -8 hlineto
            -56 -13 18 51 hvcurveto
            91 vlineto
            48 14 22 49 vhcurveto
            36 hlineto
            36 16 -19 -29 hvcurveto
            0 -46 29 -38 114 -185 rlineto
            3 -5 7 -8 11 0 rrcurveto
            79 hlineto
            13 8 9 12 hvcurveto
            0 7 -3 6 -3 5 rrcurveto
            return
          </CharString>
          <CharString index="341">
            -123 194 249 0 rlineto
            8 4 -5 -9 hvcurveto
            -196 vlineto
            -17 8 -6 16 vhcurveto
            69 hlineto
            16 8 6 17 hvcurveto
            482 vlineto
            9 4 5 8 vhcurveto
            54 hlineto
            18 6 7 17 hvcurveto
            57 vlineto
            16 -6 7 -18 vhcurveto
            return
          </CharString>
          <CharString index="342">
            -80 -60 -48 -68 hvcurveto
            -55 vlineto
            -18 8 -6 14 vhcurveto
            64 hlineto
            14 8 6 18 hvcurveto
            41 vlineto
            16 11 14 25 22 15 -12 -18 vhcurveto
            -58 vlineto
            return
          </CharString>
          <CharString index="343">
            -17 -7 -8 -15 hvcurveto
            -57 vlineto
            -16 7 -8 17 vhcurveto
            306 hlineto
            7 4 -5 -8 hvcurveto
            -31 vlineto
            -8 -4 -5 -7 vhcurveto
            -97 hlineto
            -109 -54 -57 -109 hvcurveto
            -66 vlineto
            return
          </CharString>
          <CharString index="344">
            -49 -19 14 48 hvcurveto
            63 vlineto
            47 18 21 45 vhcurveto
            156 hlineto
            29 21 16 34 hvcurveto
            97 vlineto
            9 4 5 8 vhcurveto
            50 hlineto
            16 8 8 16 hvcurveto
            57 vlineto
            15 -8 8 -16 vhcurveto
            return
          </CharString>
          <CharString index="345">
            47 18 21 45 vhcurveto
            156 hlineto
            29 21 16 34 hvcurveto
            97 vlineto
            9 4 5 8 vhcurveto
            50 hlineto
            16 8 8 16 hvcurveto
            57 vlineto
            15 -8 8 -16 vhcurveto
            return
          </CharString>
          <CharString index="346">
            25 16 13 20 vhcurveto
            62 hlineto
            16 8 7 16 hvcurveto
            57 vlineto
            16 -8 8 -16 vhcurveto
            -62 hlineto
            -24 -12 12 23 hvcurveto
            50 vlineto
            26 13 10 18 vhcurveto
            6 hlineto
            return
          </CharString>
          <CharString index="347">
            -16 -8 -8 -15 hvcurveto
            -57 vlineto
            -16 8 -8 16 vhcurveto
            330 hlineto
            8 4 -5 -9 hvcurveto
            -251 vlineto
            -40 -19 -39 -59 vhcurveto
            -30 hlineto
            -52 -19 25 47 hvcurveto
            35 vlineto
            48 24 24 49 vhcurveto
            34 hlineto
            16 8 8 15 hvcurveto
            57 vlineto
            16 -8 8 -16 vhcurveto
            -55 hlineto
            -110 0 -59 -64 -1 -106 rrcurveto
            0 -47 0 -12 rlineto
            -16 -20 -19 -31 -51 0 rrcurveto
            -55 hlineto
            -42 -13 13 45 hvcurveto
            20 vlineto
            return
          </CharString>
          <CharString index="348">
            48 23 17 49 vhcurveto
            113 hlineto
            33 26 15 40 hvcurveto
            115 vlineto
            9 4 5 8 vhcurveto
            64 hlineto
            16 8 8 16 hvcurveto
            57 vlineto
            15 -8 8 -16 vhcurveto
            return
          </CharString>
          <CharString index="349">
            -16 -8 -7 -16 hvcurveto
            -57 vlineto
            -17 8 -7 16 vhcurveto
            549 hlineto
            7 4 -5 -8 hvcurveto
            -31 vlineto
            -8 -4 -5 -7 vhcurveto
            -97 hlineto
            return
          </CharString>
          <CharString index="350">
            -47 -168 vlineto
            -73 -51 -46 -71 hvcurveto
            0 -27 2 -23 7 -18 8 -19 13 -15 24 0 rrcurveto
            49 hlineto
            15 7 10 13 hvcurveto
            0 5 -1 5 -1 5 -3 11 -4 12 0 16 rrcurveto
            34 21 3 33 vhcurveto
            122 -138 hlineto
            -17 8 -6 16 vhcurveto
            69 hlineto
            16 8 6 17 hvcurveto
            56 vlineto
            return
          </CharString>
          <CharString index="351">
            -11 61 -39 37 -68 0 rrcurveto
            -118 hlineto
            -73 -51 -46 -71 hvcurveto
            0 -27 2 -23 7 -18 8 -19 13 -15 24 0 rrcurveto
            49 hlineto
            15 7 10 13 hvcurveto
            0 5 -1 5 -1 5 -3 11 -4 12 0 16 rrcurveto
            34 21 3 33 vhcurveto
            59 hlineto
            24 13 -11 -21 hvcurveto
            0 -62 29 -38 114 -185 rlineto
            3 -5 7 -8 11 0 rrcurveto
            79 hlineto
            13 8 9 12 hvcurveto
            0 7 -3 6 -3 5 rrcurveto
            return
          </CharString>
          <CharString index="352">
            -47 -17 21 45 hvcurveto
            181 vlineto
            9 4 5 8 vhcurveto
            141 hlineto
            7 -1 3 -5 0 -8 rrcurveto
            0 -194 0 -9 rlineto
            -15 -20 -20 -24 -45 0 rrcurveto
            return
          </CharString>
          <CharString index="353">
            -16 -8 -8 -15 hvcurveto
            -56 vlineto
            -17 8 -8 16 vhcurveto
            46 hlineto
            7 -1 3 -5 0 -8 rrcurveto
            -194 vlineto
            -98 63 -61 97 vhcurveto
            16 hlineto
            48 0 28 18 13 22 rrcurveto
            4 -169 hlineto
            -17 8 -6 16 vhcurveto
            69 hlineto
            16 8 8 16 hvcurveto
            244 vlineto
            40 21 23 43 vhcurveto
            64 hlineto
            18 6 7 17 hvcurveto
            61 vlineto
            16 -6 7 -18 vhcurveto
            -38 hlineto
            -43 0 -30 -17 -13 -22 rrcurveto
            -4 105 hlineto
            9 4 5 8 vhcurveto
            486 hlineto
            7 -1 3 -5 0 -8 rrcurveto
            -52 vlineto
            -9 -4 -5 -8 vhcurveto
            -266 hlineto
            -15 -8 -7 -14 hvcurveto
            -64 vlineto
            -15 7 -8 17 vhcurveto
            6 hlineto
            42 28 -19 -47 hvcurveto
            -47 vlineto
            -36 -3 -32 -66 vhcurveto
            -87 hlineto
            -16 -8 -8 -16 hvcurveto
            -57 vlineto
            -15 8 -8 16 vhcurveto
            126 hlineto
            95 50 64 97 hvcurveto
            66 vlineto
            0 28 -12 18 -21 8 rrcurveto
            4 107 vlineto
            8 4 -5 -9 hvcurveto
            -294 vlineto
            -17 8 -6 16 vhcurveto
            69 hlineto
            16 8 6 17 hvcurveto
            482 vlineto
            9 4 5 8 vhcurveto
            54 hlineto
            18 6 7 17 hvcurveto
            57 vlineto
            16 -6 7 -18 vhcurveto
            return
          </CharString>
          <CharString index="354">
            -43 0 -30 -17 -13 -22 rrcurveto
            -4 105 hlineto
            9 4 5 8 vhcurveto
            118 hlineto
            7 -1 3 -5 0 -8 rrcurveto
            -66 vlineto
            return
          </CharString>
          <CharString index="355">
            51 15 15 34 35 14 -14 -47 vhcurveto
            -250 vlineto
            -17 8 -6 16 vhcurveto
            69 hlineto
            16 8 6 17 hvcurveto
            482 vlineto
            9 4 5 8 vhcurveto
            54 hlineto
            18 6 7 17 hvcurveto
            57 vlineto
            16 -6 7 -18 vhcurveto
            return
          </CharString>
          <CharString index="356">
            -16 -8 -8 -15 hvcurveto
            -57 vlineto
            -16 8 -8 16 vhcurveto
            724 hlineto
            7 -1 3 -5 0 -8 rrcurveto
            -52 vlineto
            -9 -4 -5 -8 vhcurveto
            -286 hlineto
            -15 -8 -7 -14 hvcurveto
            -64 vlineto
            -15 7 -8 17 vhcurveto
            26 hlineto
            42 28 -19 -47 hvcurveto
            -47 vlineto
            -36 -3 -32 -66 vhcurveto
            -41 0 -221 198 rlineto
            return
          </CharString>
          <CharString index="357">
            8 2 9 1 10 0 rrcurveto
            50 hlineto
            16 8 8 15 hvcurveto
            61 vlineto
            16 -8 8 -16 vhcurveto
            -64 hlineto
            -110 0 -59 -64 -1 -106 rrcurveto
            -73 vlineto
            -108 64 -62 107 vhcurveto
            287 hlineto
            95 50 64 97 hvcurveto
            66 vlineto
            0 28 -12 18 -21 8 rrcurveto
            return
          </CharString>
          <CharString index="358">
            4 107 vlineto
            8 4 -5 -9 hvcurveto
            -294 vlineto
            -17 8 -6 16 vhcurveto
            69 hlineto
            16 8 6 17 hvcurveto
            482 vlineto
            9 4 5 8 vhcurveto
            54 hlineto
            18 6 7 17 hvcurveto
            57 vlineto
            16 -6 7 -18 vhcurveto
            return
          </CharString>
          <CharString index="359">
            0 8 1 8 1 7 rrcurveto
            169 -152 -100 0 rlineto
            -52 -19 25 47 hvcurveto
            return
          </CharString>
          <CharString index="360">
            -8 -4 5 9 hvcurveto
            161 vlineto
            9 4 5 8 vhcurveto
            100 hlineto
            40 13 -23 -48 hvcurveto
            -118 vlineto
            return
          </CharString>
          <CharString index="361">
            33 26 15 40 hvcurveto
            86 vlineto
            9 4 5 8 vhcurveto
            49 hlineto
            16 8 6 17 hvcurveto
            58 vlineto
            16 -8 7 -16 vhcurveto
            return
          </CharString>
          <CharString index="362">
            -58 0 -24 -28 -10 -27 rrcurveto
            -4 hlineto
            -15 35 -27 22 -67 0 rrcurveto
            -95 -62 -61 -110 hvcurveto
            -77 vlineto
            return
          </CharString>
          <CharString index="363">
            -109 61 -61 109 vhcurveto
            24 hlineto
            16 8 7 17 hvcurveto
            57 vlineto
            16 -8 7 -16 vhcurveto
            -6 hlineto
            -49 -24 23 49 hvcurveto
            63 vlineto
            48 14 24 37 32 16 -15 -44 vhcurveto
            -61 vlineto
            -16 8 -8 16 vhcurveto
            64 hlineto
            16 8 8 16 hvcurveto
            52 vlineto
            51 18 15 34 vhcurveto
            25 hlineto
            18 6 7 17 hvcurveto
            60 vlineto
            16 -6 7 -18 vhcurveto
            return
          </CharString>
          <CharString index="364">
            80 50 49 80 hvcurveto
            44 vlineto
            78 -50 40 -80 vhcurveto
            -95 hlineto
            -20 -11 3 30 hvcurveto
            4 vlineto
            28 11 4 20 vhcurveto
            139 hlineto
            return
          </CharString>
          <CharString index="365">
            91 -70 37 -82 -80 -60 -48 -68 vhcurveto
            -45 vlineto
            -18 8 -6 14 vhcurveto
            64 hlineto
            14 8 6 18 hvcurveto
            31 vlineto
            16 11 14 25 22 15 -12 -18 vhcurveto
            -87 vlineto
            -23 -8 -26 -61 vhcurveto
            -71 hlineto
            return
          </CharString>
          <CharString index="366">
            -18 47 -48 31 -69 0 -69 0 -27 -29 -11 -26 rrcurveto
            -4 hlineto
            -15 35 -27 22 -67 0 rrcurveto
            -95 -62 -61 -110 hvcurveto
            -77 vlineto
            -109 61 -61 109 vhcurveto
            24 hlineto
            16 8 7 17 hvcurveto
            57 vlineto
            16 -8 7 -16 vhcurveto
            -6 hlineto
            -49 -24 23 49 hvcurveto
            63 vlineto
            48 14 24 37 32 16 -15 -44 vhcurveto
            -61 vlineto
            -16 8 -8 16 vhcurveto
            64 hlineto
            16 8 8 16 hvcurveto
            52 vlineto
            51 15 15 34 34 15 -15 -51 vhcurveto
            -13 vlineto
            return
          </CharString>
          <CharString index="367">
            16 -6 7 -18 vhcurveto
            -431 hlineto
            -16 -8 -8 -15 hvcurveto
            -57 vlineto
            -16 8 -8 16 vhcurveto
            431 hlineto
            18 6 7 17 hvcurveto
            return
          </CharString>
          <CharString index="368">
            -101 66 -95 146 vhcurveto
            33 hlineto
            59 0 38 20 19 33 rrcurveto
            4 -102 hlineto
            -17 8 -6 16 vhcurveto
            69 hlineto
            16 8 6 17 hvcurveto
            482 vlineto
            9 4 5 8 vhcurveto
            54 hlineto
            18 6 7 17 hvcurveto
            57 vlineto
            16 -6 7 -18 vhcurveto
            return
          </CharString>
          <CharString index="369">
            -67 -30 -48 -87 vhcurveto
            -22 hlineto
            -79 -32 28 64 hvcurveto
            5 6 vlineto
            96 47 42 86 hvcurveto
            47 vlineto
            0 37 -18 22 -17 8 rrcurveto
            5 124 vlineto
            8 4 -5 -9 hvcurveto
            return
          </CharString>
          <CharString index="370">
            -47 -14 -27 -45 vhcurveto
            -10 hlineto
            -45 -14 27 47 hvcurveto
            53 vlineto
            47 14 27 45 vhcurveto
            10 hlineto
            45 14 -27 -47 hvcurveto
            return
          </CharString>
          <CharString index="371">
            9 4 5 8 vhcurveto
            303 hlineto
            16 8 8 16 hvcurveto
            57 vlineto
            15 -8 8 -16 vhcurveto
            -689 hlineto
            -16 -8 -8 -15 hvcurveto
            -57 vlineto
            -16 8 -8 16 vhcurveto
            248 hlineto
            8 4 -5 -9 hvcurveto
            -258 vlineto
            -40 -21 -23 -43 vhcurveto
            -23 hlineto
            -49 -28 24 48 hvcurveto
            30 vlineto
            48 24 24 49 vhcurveto
            19 hlineto
            16 8 8 15 hvcurveto
            57 vlineto
            16 -8 8 -16 vhcurveto
            -37 hlineto
            -110 0 -59 -64 -1 -106 rrcurveto
            -42 vlineto
            -108 62 -62 108 vhcurveto
            19 hlineto
            43 0 30 17 13 22 rrcurveto
            4 -95 hlineto
            -16 8 -8 15 vhcurveto
            67 hlineto
            16 8 8 16 hvcurveto
            271 vlineto
            40 21 23 43 vhcurveto
            23 hlineto
            49 28 -24 -48 hvcurveto
            -30 vlineto
            -48 -24 -24 -49 vhcurveto
            -19 hlineto
            -16 -8 -8 -15 hvcurveto
            -57 vlineto
            -16 8 -8 16 vhcurveto
            37 hlineto
            110 0 59 64 1 106 rrcurveto
            42 vlineto
            108 -62 62 -108 vhcurveto
            -19 hlineto
            -43 0 -30 -17 -13 -22 rrcurveto
            -4 hlineto
            return
          </CharString>
          <CharString index="372">
            -17 -7 -8 -15 hvcurveto
            -57 vlineto
            -16 7 -8 17 vhcurveto
            51 hlineto
            7 -1 3 -5 0 -8 rrcurveto
            -117 vlineto
            0 -38 14 -25 25 -15 rrcurveto
            -4 vlineto
            return
          </CharString>
          <CharString index="373">
            -37 -28 -19 -45 0 -60 rrcurveto
            -31 vlineto
            -103 55 -69 116 vhcurveto
            93 hlineto
            110 60 54 112 hvcurveto
            4 vlineto
            19 -8 10 -17 vhcurveto
            -62 hlineto
            -14 -8 -10 -19 hvcurveto
            -4 vlineto
            -51 -25 -11 -48 vhcurveto
            -67 hlineto
            -49 -23 17 48 hvcurveto
            35 vlineto
            48 23 17 49 vhcurveto
            114 hlineto
            return
          </CharString>
          <CharString index="374">
            73 36 44 61 hvcurveto
            161 vlineto
            9 4 5 8 vhcurveto
            54 hlineto
            16 8 8 16 hvcurveto
            57 vlineto
            15 -8 8 -16 vhcurveto
            return
          </CharString>
          <CharString index="375">
            7 4 -6 -8 hvcurveto
            0 -95 -157 109 1 0 rlineto
            return
          </CharString>
          <CharString index="376">
            -38 -13 12 45 hvcurveto
            0 55 159 -112 -3 0 rlineto
            return
          </CharString>
          <CharString index="377">
            30 -21 rlineto
            -8 -4 -5 -9 hvcurveto
            0 -55 -58 41 rlineto
            return
          </CharString>
          <CharString index="378">
            -48 -24 -24 -49 vhcurveto
            -82 hlineto
            -49 -24 24 48 hvcurveto
            25 vlineto
            48 20 20 49 vhcurveto
            90 hlineto
            49 20 -20 -48 hvcurveto
            return
          </CharString>
          <CharString index="379">
            -27 19 rlineto
            6 1 4 5 0 8 rrcurveto
            0 58 55 -38 rlineto
            return
          </CharString>
          <CharString index="380">
            -16 -8 -8 -15 hvcurveto
            -56 vlineto
            -17 8 -8 16 vhcurveto
            46 hlineto
            7 -1 3 -5 0 -8 rrcurveto
            -210 vlineto
            -98 63 -61 97 vhcurveto
            48 hlineto
            59 0 48 27 34 32 rrcurveto
            return
          </CharString>
          <CharString index="381">
            27 -33 43 -17 56 0 rrcurveto
            18 hlineto
            104 58 56 105 hvcurveto
            199 vlineto
            9 4 5 8 vhcurveto
            76 hlineto
            8 4 -5 -9 hvcurveto
            -482 vlineto
            -17 8 -6 16 vhcurveto
            69 hlineto
            16 8 6 17 hvcurveto
            482 vlineto
            9 4 5 8 vhcurveto
            54 hlineto
            18 6 7 17 hvcurveto
            57 vlineto
            16 -6 7 -18 vhcurveto
            return
          </CharString>
          <CharString index="382">
            187 hlineto
            8 4 -5 -9 hvcurveto
            -195 vlineto
            return
          </CharString>
          <CharString index="383">
            189 hlineto
            7 -1 3 -5 0 -8 rrcurveto
            -195 vlineto
            return
          </CharString>
          <CharString index="384">
            -40 -21 -23 -43 vhcurveto
            -23 hlineto
            -49 -28 24 48 hvcurveto
            30 vlineto
            48 24 24 49 vhcurveto
            19 hlineto
            16 8 8 15 hvcurveto
            57 vlineto
            16 -8 8 -16 vhcurveto
            -37 hlineto
            -93 0 -57 -46 -16 -79 rrcurveto
            return
          </CharString>
          <CharString index="385">
            -9 -5 -5 -7 vhcurveto
            -58 hlineto
            return
          </CharString>
          <CharString index="386">
            -16 -8 -8 -15 hvcurveto
            -56 vlineto
            -17 8 -8 16 vhcurveto
            163 hlineto
            8 4 -5 -9 hvcurveto
            -132 vlineto
            -23 -12 -13 -23 vhcurveto
            -74 hlineto
            -18 -12 -12 -17 hvcurveto
            0 -72 29 -38 114 -185 rlineto
            3 -5 7 -8 11 0 rrcurveto
            79 hlineto
            13 8 9 12 hvcurveto
            0 7 -3 6 -3 5 rrcurveto
            -123 194 258 0 5 0 rlineto
            return
          </CharString>
          <CharString index="387">
            13 14 2 18 0 33 rrcurveto
            99 vlineto
            9 4 5 8 vhcurveto
            104 hlineto
            7 -1 3 -5 0 -8 rrcurveto
            -168 vlineto
            return
          </CharString>
          <CharString index="388">
            -17 -7 -8 -16 hvcurveto
            -34 vlineto
            return
          </CharString>
          <CharString index="389">
            -16 -8 -8 -15 hvcurveto
            -57 vlineto
            -16 8 -8 16 vhcurveto
            302 hlineto
            8 4 -5 -9 hvcurveto
            -258 vlineto
            -40 -21 -23 -43 vhcurveto
            -23 hlineto
            -49 -28 24 48 hvcurveto
            30 vlineto
            48 24 24 49 vhcurveto
            19 hlineto
            16 8 8 15 hvcurveto
            57 vlineto
            16 -8 8 -16 vhcurveto
            -37 hlineto
            -110 0 -59 -64 -1 -106 rrcurveto
            -42 vlineto
            -108 62 -62 108 vhcurveto
            19 hlineto
            43 0 30 17 13 22 rrcurveto
            4 -95 hlineto
            return
          </CharString>
          <CharString index="390">
            -43 0 -30 -17 -13 -22 rrcurveto
            -4 102 hlineto
            9 4 5 8 vhcurveto
            132 hlineto
            7 -1 3 -5 0 -8 rrcurveto
            -63 vlineto
            return
          </CharString>
          <CharString index="391">
            -16 -8 -8 -15 hvcurveto
            -57 vlineto
            -16 8 -8 16 vhcurveto
            95 hlineto
            16 8 8 16 hvcurveto
            57 vlineto
            15 -8 8 -16 vhcurveto
            return
          </CharString>
          <CharString index="392">
            -83 0 -55 -36 -22 -65 rrcurveto
            -82 4 hlineto
            return
          </CharString>
          <CharString index="393">
            48 14 22 49 vhcurveto
            77 -17 hlineto
            -101 66 -105 146 vhcurveto
            33 hlineto
            59 0 38 20 19 33 rrcurveto
            4 -102 hlineto
            return
          </CharString>
          <CharString index="394">
            48 23 22 48 vhcurveto
            26 hlineto
            51 24 -27 -46 hvcurveto
            0 -4 -89 -63 -185 -147 rlineto
            -9 -7 -4 -7 0 -10 rrcurveto
            -10 6 -8 12 vhcurveto
            96 hlineto
            19 0 8 6 9 7 rrcurveto
            141 114 0 -104 rlineto
            -17 8 -6 16 vhcurveto
            69 hlineto
            16 8 6 17 hvcurveto
            482 vlineto
            9 4 5 8 vhcurveto
            54 hlineto
            18 6 7 17 hvcurveto
            57 vlineto
            16 -6 7 -18 vhcurveto
            return
          </CharString>
          <CharString index="395">
            -23 -12 -13 -23 vhcurveto
            -11 hlineto
            -12 82 -49 43 -72 0 rrcurveto
            -10 hlineto
            -45 0 -30 -17 -13 -22 rrcurveto
            -4 82 hlineto
            9 4 5 8 vhcurveto
            257 hlineto
            8 4 -5 -9 hvcurveto
            return
          </CharString>
          <CharString index="396">
            13 14 2 18 0 33 rrcurveto
            99 vlineto
            9 4 5 8 vhcurveto
            120 hlineto
            7 -1 3 -5 0 -8 rrcurveto
            -168 vlineto
            return
          </CharString>
          <CharString index="397">
            13 14 2 18 0 33 rrcurveto
            99 vlineto
            9 4 5 8 vhcurveto
            196 hlineto
            41 18 -18 -38 hvcurveto
            -15 vlineto
            -39 -15 -14 -44 vhcurveto
            return
          </CharString>
          <CharString index="398">
            -16 -8 -6 -16 hvcurveto
            -58 vlineto
            -17 8 -7 16 vhcurveto
            73 hlineto
            41 18 -18 -38 hvcurveto
            -15 vlineto
            -39 -15 -14 -44 vhcurveto
            -70 hlineto
            -17 -7 -8 -16 hvcurveto
            -93 vlineto
            0 -8 0 -8 1 -8 rrcurveto
            -6 -6 rlineto
            -23 -23 -27 -43 -60 0 rrcurveto
            -55 hlineto
            -77 -19 36 57 hvcurveto
            13 32 vlineto
            116 55 51 95 hvcurveto
            67 vlineto
            return
          </CharString>
          <CharString index="399">
            34 -44 56 -31 79 0 rrcurveto
            33 hlineto
            59 0 38 20 19 33 rrcurveto
            4 -102 hlineto
            -17 8 -6 16 vhcurveto
            69 hlineto
            16 8 6 17 hvcurveto
            482 vlineto
            9 4 5 8 vhcurveto
            54 hlineto
            18 6 7 17 hvcurveto
            57 vlineto
            16 -6 7 -18 vhcurveto
            return
          </CharString>
          <CharString index="400">
            16 -6 7 -18 vhcurveto
            -236 hlineto
            -16 -8 -7 -16 hvcurveto
            -57 vlineto
            -17 8 -7 16 vhcurveto
            236 hlineto
            18 6 7 17 hvcurveto
            return
          </CharString>
          <CharString index="401">
            -47 -2 vlineto
            -164 hlineto
            -73 -51 -46 -71 hvcurveto
            0 -27 2 -23 7 -18 8 -19 13 -15 24 0 rrcurveto
            49 hlineto
            15 7 10 13 hvcurveto
            0 5 -1 5 -1 5 -3 11 -4 12 0 16 rrcurveto
            34 21 3 33 vhcurveto
            118 0 2 0 0 -138 rlineto
            -17 8 -6 16 vhcurveto
            69 hlineto
            16 8 6 17 hvcurveto
            56 vlineto
            return
          </CharString>
          <CharString index="402">
            -16 -8 -7 -16 hvcurveto
            -57 vlineto
            -17 8 -7 16 vhcurveto
            423 hlineto
            8 4 -5 -9 hvcurveto
            -132 vlineto
            -23 -12 -13 -23 vhcurveto
            -15 hlineto
            return
          </CharString>
          <CharString index="403">
            -16 48 -37 30 -60 0 rrcurveto
            -118 hlineto
            -73 -51 -48 -71 hvcurveto
            0 -27 2 -23 7 -18 8 -19 13 -15 24 0 rrcurveto
            49 hlineto
            15 7 10 13 hvcurveto
            0 5 -1 5 -1 5 -3 11 -4 12 0 16 rrcurveto
            34 21 3 33 vhcurveto
            59 hlineto
            24 13 -11 -21 hvcurveto
            0 -40 29 -38 114 -185 rlineto
            3 -5 7 -8 11 0 rrcurveto
            79 hlineto
            13 8 9 12 hvcurveto
            0 7 -3 6 -3 5 rrcurveto
            return
          </CharString>
          <CharString index="404">
            179 hlineto
            7 -1 3 -5 0 -8 rrcurveto
            -184 vlineto
            return
          </CharString>
          <CharString index="405">
            13 14 2 18 0 33 rrcurveto
            99 vlineto
            9 4 5 8 vhcurveto
            366 hlineto
            8 4 -5 -9 hvcurveto
            return
          </CharString>
          <CharString index="406">
            40 21 23 43 vhcurveto
            23 hlineto
            49 28 -24 -48 hvcurveto
            -30 vlineto
            -48 -24 -24 -49 vhcurveto
            -19 hlineto
            -16 -8 -8 -15 hvcurveto
            -57 vlineto
            -16 8 -8 16 vhcurveto
            37 hlineto
            110 0 59 64 1 106 rrcurveto
            42 vlineto
            108 -62 62 -108 vhcurveto
            -19 hlineto
            -43 0 -30 -17 -13 -22 rrcurveto
            -4 82 hlineto
            9 4 5 8 vhcurveto
            303 hlineto
            18 6 7 17 hvcurveto
            57 vlineto
            16 -6 7 -18 vhcurveto
            -772 hlineto
            -15 -8 -7 -16 hvcurveto
            -57 vlineto
            -17 8 -7 15 vhcurveto
            328 hlineto
            8 4 -5 -9 hvcurveto
            -115 -4 vlineto
            return
          </CharString>
          <CharString index="407">
            -35 22 -15 22 0 37 rrcurveto
            42 17 12 31 vhcurveto
            return
          </CharString>
          <CharString index="408">
            31 18 -12 -42 hvcurveto
            0 -33 -5 -24 -37 -27 rrcurveto
            return
          </CharString>
          <CharString index="409">
            0 -72 31 -34 48 -14 rrcurveto
            -31 vlineto
            -48 -21 -21 -49 vhcurveto
            -5 hlineto
            -16 -8 -8 -16 hvcurveto
            -59 vlineto
            -16 8 -8 16 vhcurveto
            25 hlineto
            109 58 61 110 hvcurveto
            26 75 -269 vlineto
            -17 8 -6 16 vhcurveto
            69 hlineto
            16 8 6 17 hvcurveto
            288 vlineto
            return
          </CharString>
          <CharString index="410">
            15 7 8 15 hvcurveto
            50 vlineto
            15 -8 7 -14 vhcurveto
            -50 hlineto
            -15 -7 -7 -15 hvcurveto
            -50 vlineto
            -15 7 -8 15 vhcurveto
            return
          </CharString>
        <CharString name=".notdef">
          118 0 46 490 46 hstem
          120 50 260 50 vstem
          170 536 rmoveto
          260 -490 -260 hlineto
          -50 -46 rmoveto
          360 582 -360 hlineto
          endchar
        </CharString>
        <CharString name="A">
          75 21 -21 131 102 hstem
          132 hmoveto
          -99 callsubr
          241 522 rmoveto
          -98 callsubr
          endchar
        </CharString>
        <CharString name="AE">
          299 0 110 22 111 28 110 152 110 hstem
          368 127 vstem
          112 hmoveto
          -37 callsubr
          344 522 rmoveto
          4 -279 -131 hlineto
          endchar
        </CharString>
        <CharString name="AEacute">
          299 0 110 22 111 28 110 152 110 64 129 hstem
          368 127 vstem
          487 836 rmoveto
          -39 callsubr
          -474 -836 rmoveto
          -37 callsubr
          344 522 rmoveto
          4 -279 -131 hlineto
          endchar
        </CharString>
        <CharString name="Aacute">
          74 21 -21 131 102 474 129 hstem
          307 836 rmoveto
          -39 callsubr
          -274 -836 rmoveto
          -99 callsubr
          241 522 rmoveto
          -98 callsubr
          endchar
        </CharString>
        <CharString name="Abreve">
          74 21 -21 131 102 474 64 hstem
          163 77 77 77 vstem
          163 823 rmoveto
          -11 vlineto
          -69 38 -36 60 vhcurveto
          35 hlineto
          59 39 36 69 hvcurveto
          11 vlineto
          9 -5 4 -9 vhcurveto
          -50 hlineto
          -9 -4 -4 -9 hvcurveto
          -9 vlineto
          -31 -11 -12 -24 vhcurveto
          -7 hlineto
          -24 -11 11 32 hvcurveto
          9 vlineto
          9 -4 4 -9 vhcurveto
          -50 hlineto
          -9 -5 -4 -9 hvcurveto
          -31 -823 rmoveto
          -99 callsubr
          241 522 rmoveto
          -98 callsubr
          endchar
        </CharString>
        <CharString name="Acircumflex">
          74 21 -21 131 102 474 129 hstem
          333 825 rmoveto
          -5 7 -6 4 -11 0 rrcurveto
          -65 hlineto
          -10 0 -7 -4 -5 -7 rrcurveto
          -62 -105 rlineto
          -4 -7 2 -6 10 0 rrcurveto
          59 hlineto
          8 0 6 3 3 9 rrcurveto
          33 66 32 -66 rlineto
          4 -9 5 -3 9 0 rrcurveto
          60 hlineto
          9 0 2 6 -4 7 rrcurveto
          -264 -720 rmoveto
          -99 callsubr
          241 522 rmoveto
          -98 callsubr
          endchar
        </CharString>
        <CharString name="Adieresis">
          74 21 -21 131 102 474 129 hstem
          124 118 72 118 vstem
          124 728 rmoveto
          -38 callsubr
          190 -88 rmoveto
          -38 callsubr
          -182 -816 rmoveto
          -99 callsubr
          241 522 rmoveto
          -98 callsubr
          endchar
        </CharString>
        <CharString name="Agrave">
          74 21 -21 131 102 474 129 hstem
          274 817 rmoveto
          -40 callsubr
          -187 -728 rmoveto
          -99 callsubr
          241 522 rmoveto
          -98 callsubr
          endchar
        </CharString>
        <CharString name="Amacron">
          74 21 -21 131 102 499 87 hstem
          377 732 rmoveto
          -1 callsubr
          -47 -732 rmoveto
          -99 callsubr
          241 522 rmoveto
          -98 callsubr
          endchar
        </CharString>
        <CharString name="Aogonek">
          74 -123 66 78 -21 131 102 hstem
          375 622 rmoveto
          -4 16 -10 5 -16 0 rrcurveto
          -133 hlineto
          -16 0 -9 -5 -5 -16 rrcurveto
          -158 -601 rlineto
          -4 -15 2 -6 14 0 rrcurveto
          96 hlineto
          14 0 4 5 3 16 rrcurveto
          28 110 195 0 28 -110 0 -2 -53 -87 rlineto
          -17 -27 10 -28 38 0 rrcurveto
          32 65 14 32 17 -5 3 -17 hvcurveto
          -41 0 37 57 68 0 rlineto
          14 0 2 6 -4 15 rrcurveto
          -328 212 rmoveto
          72 289 4 0 72 -289 rlineto
          endchar
        </CharString>
        <CharString name="Aring">
          74 21 -21 131 102 471 46 77 47 hstem
          195 51 62 53 vstem
          306 704 rmoveto
          33 22 19 35 hvcurveto
          64 vlineto
          33 -22 19 -33 vhcurveto
          -57 hlineto
          -35 -19 -19 -33 hvcurveto
          -64 vlineto
          -35 19 -19 35 vhcurveto
          20 46 rmoveto
          -17 -6 6 19 hvcurveto
          26 vlineto
          20 7 6 17 vhcurveto
          16 hlineto
          17 5 -6 -20 hvcurveto
          -26 vlineto
          -19 -5 -6 -18 vhcurveto
          -153 -750 rmoveto
          -99 callsubr
          241 522 rmoveto
          -98 callsubr
          endchar
        </CharString>
        <CharString name="Atilde">
          74 21 -21 131 102 469 67 -4 68 hstemhm
          159 61 119 60 hintmask 11011100
          294 738 rmoveto
          18 22 3 5 8 0 rrcurveto
          12 4 -5 -31 hvcurveto
          -10 vlineto
          -9 2 -4 8 vhcurveto
          40 hlineto
          8 2 4 9 hvcurveto
          37 vlineto
          40 -16 37 -56 vhcurveto
          -23 0 -17 -7 -20 -25 rrcurveto
          hintmask 11101100
          -20 -26 -5 -6 -7 0 rrcurveto
          -11 -4 6 30 hvcurveto
          12 vlineto
          9 -3 2 -8 vhcurveto
          -39 hlineto
          -9 -2 -2 -9 hvcurveto
          -39 vlineto
          -40 16 -36 56 vhcurveto
          23 0 18 6 22 30 rrcurveto
          -162 -738 rmoveto
          -99 callsubr
          241 522 rmoveto
          -98 callsubr
          endchar
        </CharString>
        <CharString name="B">
          73 0 106 173 103 155 106 hstemhm
          65 127 175 124 -114 123 hintmask 11110100
          203 106 rmoveto
          -7 -4 3 8 hvcurveto
          151 vlineto
          8 4 3 7 vhcurveto
          110 hlineto
          45 19 -16 -41 hvcurveto
          -58 vlineto
          -42 -19 -16 -43 vhcurveto
          -112 276 rmoveto
          -7 -4 3 8 hvcurveto
          133 vlineto
          8 4 3 7 vhcurveto
          103 hlineto
          hintmask 11111000
          42 19 -16 -42 hvcurveto
          -39 vlineto
          -41 -19 -17 -43 vhcurveto
          -240 -361 rmoveto
          -16 7 -5 14 vhcurveto
          250 hlineto
          hintmask 11110100
          104 60 57 105 hvcurveto
          60 vlineto
          0 68 -38 33 -50 7 rrcurveto
          hintmask 11111000
          50 16 29 38 0 56 rrcurveto
          41 vlineto
          105 -60 57 -105 vhcurveto
          -240 hlineto
          -14 -7 -5 -16 hvcurveto
          endchar
        </CharString>
        <CharString name="C">
          56 0 110 423 110 hstem
          55 127 185 127 vstem
          329 hmoveto
          -97 callsubr
          endchar
        </CharString>
        <CharString name="CR">
          -482 endchar
        </CharString>
        <CharString name="Cacute">
          56 0 110 423 110 64 129 hstem
          55 127 185 127 vstem
          329 hmoveto
          -97 callsubr
          70 836 rmoveto
          1 callsubr
          endchar
        </CharString>
        <CharString name="Ccaron">
          56 0 110 423 110 64 129 hstem
          55 127 185 127 vstem
          329 hmoveto
          -97 callsubr
          90 707 rmoveto
          11 0 7 4 5 7 rrcurveto
          62 105 rlineto
          4 7 -2 6 -9 0 rrcurveto
          -60 hlineto
          -8 0 -6 -3 -4 -9 rrcurveto
          -32 -66 -33 66 rlineto
          -3 9 -6 3 -8 0 rrcurveto
          -59 hlineto
          -9 0 -3 -6 4 -7 rrcurveto
          62 -105 rlineto
          5 -7 7 -4 11 0 rrcurveto
          endchar
        </CharString>
        <CharString name="Ccedilla">
          56 -209 58 151 110 423 110 hstem
          55 127 119 61 5 127 vstem
          472 411 rmoveto
          15 7 7 15 hvcurveto
          47 vlineto
          105 -61 58 -104 vhcurveto
          -109 hlineto
          -105 -60 -58 -105 hvcurveto
          -317 vlineto
          -105 60 -58 105 vhcurveto
          32 0 -40 -47 rlineto
          -19 -21 13 -34 24 0 rrcurveto
          26 hlineto
          36 9 -4 -20 hvcurveto
          -3 vlineto
          -17 -9 -5 -36 vhcurveto
          -34 hlineto
          -14 -4 -4 -16 hvcurveto
          -19 vlineto
          -14 3 -5 15 vhcurveto
          46 hlineto
          54 40 21 50 hvcurveto
          18 vlineto
          55 -30 20 -44 vhcurveto
          0 4 40 41 1 0 rlineto
          104 61 58 105 hvcurveto
          47 vlineto
          15 -7 7 -15 vhcurveto
          -84 hlineto
          -14 -7 -7 -15 hvcurveto
          -41 vlineto
          -42 -16 -17 -43 vhcurveto
          -68 hlineto
          -42 -16 17 42 hvcurveto
          305 vlineto
          42 16 17 42 vhcurveto
          68 hlineto
          43 16 -17 -42 hvcurveto
          -41 vlineto
          -15 7 -7 14 vhcurveto
          endchar
        </CharString>
        <CharString name="Cdotaccent">
          56 0 110 423 110 65 135 hstem
          55 127 29 127 29 127 vstem
          cntrmask 00011100
          329 hmoveto
          -97 callsubr
          -9 729 rmoveto
          2 callsubr
          endchar
        </CharString>
        <CharString name="D">
          71 0 110 423 110 hstem
          65 127 179 127 vstem
          203 110 rmoveto
          -96 callsubr
          -247 -89 rmoveto
          -95 callsubr
          endchar
        </CharString>
        <CharString name="Dcaron">
          71 0 110 423 110 64 129 hstem
          65 127 179 127 vstem
          243 707 rmoveto
          65 hlineto
          10 0 7 4 5 7 rrcurveto
          62 105 rlineto
          4 7 -1 6 -10 0 rrcurveto
          -59 hlineto
          -9 0 -5 -3 -4 -9 rrcurveto
          -33 -66 -32 66 rlineto
          -4 9 -5 3 -9 0 rrcurveto
          -58 hlineto
          -10 0 -3 -6 4 -7 rrcurveto
          63 -105 rlineto
          5 -7 6 -4 11 0 rrcurveto
          -40 -597 rmoveto
          -96 callsubr
          -247 -89 rmoveto
          -95 callsubr
          endchar
        </CharString>
        <CharString name="Dcroat">
          84 0 110 199 93 131 110 hstem
          79 127 179 127 vstem
          217 110 rmoveto
          -7 -4 3 8 hvcurveto
          177 vlineto
          8 4 3 7 vhcurveto
          76 hlineto
          16 5 5 15 hvcurveto
          52 vlineto
          14 -6 7 -15 vhcurveto
          -76 hlineto
          -7 -4 3 9 hvcurveto
          108 vlineto
          8 4 3 7 vhcurveto
          109 hlineto
          43 16 -17 -42 hvcurveto
          -305 vlineto
          -42 -16 -17 -43 vhcurveto
          21 -110 rmoveto
          105 60 58 105 hvcurveto
          317 vlineto
          105 -60 58 -105 vhcurveto
          -247 hlineto
          -14 -7 -5 -16 hvcurveto
          -208 vlineto
          -9 -3 -3 -8 vhcurveto
          -26 hlineto
          -16 -5 -7 -14 hvcurveto
          -52 vlineto
          -15 4 -5 17 vhcurveto
          26 hlineto
          8 3 -3 -8 hvcurveto
          -277 vlineto
          -16 7 -5 14 vhcurveto
          endchar
        </CharString>
        <CharString name="E">
          -3 0 110 161 110 152 110 hstem
          65 127 vstem
          413 hmoveto
          -94 callsubr
          endchar
        </CharString>
        <CharString name="Eacute">
          -3 0 110 161 110 152 110 64 129 hstem
          65 127 vstem
          268 836 rmoveto
          -36 callsubr
          46 -836 rmoveto
          -94 callsubr
          endchar
        </CharString>
        <CharString name="Ebreve">
          -3 0 110 161 110 152 110 64 64 hstemhm
          65 127 -59 78 76 77 hintmask 11110110
          133 823 rmoveto
          4 callsubr
          280 -823 rmoveto
          -33 callsubr
          hintmask 11111010
          -32 callsubr
          endchar
        </CharString>
        <CharString name="Ecaron">
          -3 0 110 161 110 152 110 64 129 hstem
          65 127 vstem
          223 707 rmoveto
          65 hlineto
          11 0 6 4 5 7 rrcurveto
          63 105 rlineto
          4 7 -2 6 -10 0 rrcurveto
          -59 hlineto
          -9 0 -5 -3 -4 -9 rrcurveto
          -32 -66 -33 66 rlineto
          -4 9 -5 3 -9 0 rrcurveto
          -58 hlineto
          -10 0 -2 -6 4 -7 rrcurveto
          62 -105 rlineto
          5 -7 7 -4 10 0 rrcurveto
          190 -707 rmoveto
          -94 callsubr
          endchar
        </CharString>
        <CharString name="Ecircumflex">
          -3 0 110 161 110 152 110 64 129 hstem
          65 127 vstem
          303 825 rmoveto
          -35 callsubr
          48 -720 rmoveto
          -94 callsubr
          endchar
        </CharString>
        <CharString name="Edieresis">
          -3 0 110 161 110 152 110 64 129 hstemhm
          65 127 -97 119 71 119 hintmask 11110110
          95 728 rmoveto
          -34 callsubr
          190 -88 rmoveto
          -34 callsubr
          128 -816 rmoveto
          -33 callsubr
          hintmask 11111010
          -32 callsubr
          endchar
        </CharString>
        <CharString name="Edotaccent">
          0 0 110 161 110 152 110 65 135 hstemhm
          65 127 -6 127 hintmask 11110100
          186 729 rmoveto
          5 callsubr
          227 -823 rmoveto
          -33 callsubr
          hintmask 11111000
          -32 callsubr
          endchar
        </CharString>
        <CharString name="Egrave">
          -3 0 110 161 110 152 110 64 129 hstem
          65 127 vstem
          245 817 rmoveto
          -40 callsubr
          123 -728 rmoveto
          -94 callsubr
          endchar
        </CharString>
        <CharString name="Emacron">
          -3 0 110 161 110 152 110 89 87 hstem
          65 127 vstem
          348 732 rmoveto
          -1 callsubr
          263 -732 rmoveto
          -94 callsubr
          endchar
        </CharString>
        <CharString name="Eng">
          107 -172 110 83 -21 hstem
          73 127 201 127 vstem
          362 -172 rmoveto
          104 62 60 104 hvcurveto
          630 vlineto
          16 -7 5 -14 vhcurveto
          -85 hlineto
          -14 -7 -5 -16 hvcurveto
          -372 -4 vlineto
          -199 379 rlineto
          -1 2 -6 12 -20 0 rrcurveto
          -77 hlineto
          -14 -7 -5 -16 hvcurveto
          -601 vlineto
          -16 7 -5 14 vhcurveto
          85 hlineto
          14 7 5 16 hvcurveto
          371 4 vlineto
          19 -32 158 -308 19 -32 rrcurveto
          -5 vlineto
          -60 -17 -17 -60 vhcurveto
          -28 hlineto
          -15 -5 -7 -14 hvcurveto
          -68 vlineto
          -14 5 -7 15 vhcurveto
          endchar
        </CharString>
        <CharString name="Eogonek">
          -3 -123 66 57 110 161 110 152 110 hstem
          65 127 vstem
          413 533 rmoveto
          15 5 7 14 hvcurveto
          68 vlineto
          14 -5 7 -15 vhcurveto
          -327 hlineto
          -14 -7 -5 -16 hvcurveto
          -601 vlineto
          -16 7 -5 14 vhcurveto
          227 0 -42 -68 rlineto
          -18 -27 10 -28 38 0 rrcurveto
          32 65 14 32 17 -5 3 -16 hvcurveto
          -42 0 38 57 40 0 rlineto
          15 5 7 14 hvcurveto
          68 vlineto
          14 -5 7 -15 vhcurveto
          -209 hlineto
          -8 -4 3 8 hvcurveto
          139 vlineto
          8 4 3 8 vhcurveto
          171 hlineto
          15 6 7 14 hvcurveto
          68 vlineto
          14 -6 7 -15 vhcurveto
          -171 hlineto
          -8 -4 3 8 hvcurveto
          130 vlineto
          8 4 3 8 vhcurveto
          endchar
        </CharString>
        <CharString name="Eth">
          84 0 110 165 94 164 110 hstem
          79 127 179 127 vstem
          217 110 rmoveto
          -7 -4 3 8 hvcurveto
          143 vlineto
          8 4 3 7 vhcurveto
          76 hlineto
          16 5 6 15 hvcurveto
          52 vlineto
          14 -6 7 -15 vhcurveto
          -76 hlineto
          -7 -4 3 8 hvcurveto
          142 vlineto
          8 4 3 7 vhcurveto
          109 hlineto
          43 16 -17 -42 hvcurveto
          -305 vlineto
          -42 -16 -17 -43 vhcurveto
          21 -110 rmoveto
          105 60 58 105 hvcurveto
          317 vlineto
          105 -60 58 -105 vhcurveto
          -247 hlineto
          -14 -7 -5 -16 hvcurveto
          -242 vlineto
          -8 -3 -3 -8 vhcurveto
          -26 hlineto
          -16 -5 -7 -14 hvcurveto
          -52 vlineto
          -15 4 -6 17 vhcurveto
          26 hlineto
          8 3 -3 -8 hvcurveto
          -243 vlineto
          -16 7 -5 14 vhcurveto
          endchar
        </CharString>
</ttFont>
